<?xml version="1.0" encoding="utf-8"?>
<!-- Generator: Adobe Illustrator 21.1.0, SVG Export Plug-In . SVG Version: 6.00 Build 0)  -->
<svg version="1.1" id="Layer_2" xmlns="http://www.w3.org/2000/svg" xmlns:xlink="http://www.w3.org/1999/xlink" x="0px" y="0px"
	 viewBox="0 0 3776.9 997.5" style="enable-background:new 0 0 3776.9 997.5;" xml:space="preserve">
<style type="text/css">
	.st0{fill:#00437B;}
	.st1{fill:#23336C;}
	.st2{fill:#C11F3D;}
	.st3{fill:#231E60;}
	.st4{fill:#FFFFFF;}
	.st5{fill:#D12026;}
	.st6{fill:#010101;}
	.st7{fill:#1182C5;}
	.st8{enable-background:new    ;}
	.st9{fill:#0061AA;}
	.st10{fill:#2B3087;}
</style>
<title>PMI logo_strip</title>
<rect x="-0.2" y="612.3" class="st0" width="3787.7" height="387.1"/>
<path class="st1" d="M800.5,200.4c0,22,0.3,44-0.1,66c-0.4,20.1-5,39.2-16.5,56.1c-13.8,20.3-33.7,31.7-57,37.4
	c-29.8,7.3-59.9,7.5-89.7-0.1c-41.2-10.6-68-38.5-72.9-82.7c-0.7-7.2-1.1-14.5-1-21.8c0-41.9,0.1-83.9-0.1-125.8c0-4,1.1-5,5-4.9
	c16.3,0.2,32.6,0.2,48.9,0c4.2-0.1,5.5,0.8,5.5,5.3c-0.2,43.5-0.2,87.1-0.1,130.6c0,17.5,5.7,32.6,20.2,43.4
	c12.5,9.3,27,12.2,42.2,11.5c12.6-0.6,24.8-3.4,35.2-11.1c14.5-10.7,20.7-25.8,20.9-43.2c0.4-43.7,0.3-87.4,0.2-131.1
	c0-4.3,1.1-5.5,5.5-5.5c16.5,0.3,32.9,0.2,49.4,0c3.7,0,4.8,0.8,4.8,4.7c-0.2,23.7-0.1,47.5-0.1,71.2L800.5,200.4z"/>
<path class="st1" d="M841.6,316.5c0-7.1,0-14.2,0-21.4c0-1.2-0.7-2.8,0.6-3.5s2.3,0.8,3.3,1.4c14.6,9.8,29.9,18.4,46.8,23.8
	c14.1,4.6,29,5.7,43.6,3.3c9.7-1.6,18.4-5.4,21-16.4c2-8.4-2-16.1-10.6-21.4c-11.1-7-23.6-10.7-35.7-15.2
	c-13.4-4.9-26.7-9.8-38.9-17.3c-16.5-10.1-29.1-23.5-33.2-43.1c-8.2-39.9,11.6-68.1,48.3-79.5c35.6-11.1,70.7-6.4,105,6.2
	c4.5,1.6,8.8,3.5,13.3,5.1c2.2,0.8,2.8,2.1,2.8,4.3c-0.1,13.1-0.1,26.3,0,39.4c0,3.4-1,3.7-3.8,2.5c-13.2-5.7-26.5-11.1-40.3-15.1
	c-14.9-4.3-30.1-6.1-45.5-3.3c-5.7,0.9-11,3.3-15.3,7.1c-6.6,6.1-6.9,14.9-0.7,21.4c6.9,7.3,16,10.6,24.9,14.2
	c17.3,7,35.2,12.3,51.6,21.5c16.2,9.1,29.7,20.6,35.9,38.7c11,32.5-0.1,69.5-37.7,86.1c-21.2,9.3-43.4,10.6-66,9
	c-23.5-1.6-45-9.4-65.6-20.4c-2.8-1.5-3.9-3.1-3.8-6.2C841.7,330.8,841.5,323.6,841.6,316.5z"/>
<path class="st2" d="M1384.6,243.3c0,38.1,0,76.3,0.1,114.4c0,3.1-0.4,4.4-4,4.4c-17.2-0.2-34.5-0.2-51.8,0c-3.2,0-3.9-1-3.9-4
	c0.1-76.4,0.1-152.9,0-229.3c0-3.2,0.8-4.3,4.2-4.3c16.9,0.2,33.9,0.2,50.8,0c3.9-0.1,4.7,1.3,4.6,4.9
	C1384.6,167.3,1384.5,205.3,1384.6,243.3z"/>
<path class="st2" d="M1670.9,236.1c-2.1-36.3-16.3-66.3-46.3-87.8c-22.5-16-48.2-23-75.4-23.5c-36.2-0.7-72.5-0.2-108.7-0.4
	c-4.7,0-5.4,1.5-5.3,5.6c0.1,37.7,0.1,75.3,0.1,113c0,38,0,76-0.1,114c0,3.7,0.6,5.1,4.8,5.1c30.9-0.2,61.7,0,92.6-0.1
	c24.3-0.1,48.3-2.9,71.1-12.2s41.1-24,53.2-45.8C1668.5,282.9,1672.3,260,1670.9,236.1z M1605.5,271.9c-9.4,28.3-30.5,41.9-59,45.5
	c-16.2,2-32,0.5-48.3,1c-3.7,0.1-2.6-2.2-2.6-4.4v-71.2c0-23.3-0.4-46.5-0.6-69.8c0-4,0.9-5,4.8-4.9c16.1,0.6,32.2-1.1,48.2,1.1
	c23.8,3.1,43.3,13.4,54,35.8C1612.3,226.5,1613,249.2,1605.5,271.9z"/>
<path class="st2" d="M1233.4,213.4c-12.6-28.5-25.3-56.9-37.9-85.4c-1.1-2.4-2.3-3.6-5.3-3.6c-20.6,0.1-41.2,0.1-61.7,0
	c-2.7,0-4,0.9-4.9,3.3c-2,5.5-4.2,10.9-6.4,16.3c-13.1,32.5-26.2,65.1-39.4,97.6c-15.1,37.4-30.2,74.7-45.4,112.1
	c-1,2.6-1.9,5.2-3,8.2c20.4,0,40.2,0,60,0.1c2.2,0,3.1-0.9,3.8-2.7c5.1-13.5,10.4-26.8,15.2-40.4c1.2-3.4,2.8-4.2,6.1-4.2
	c32.3,0.1,64.6,0.1,96.9,0c3.1,0,4.8,0.8,6,3.9c5.4,13.5,11.1,26.9,16.8,40.3c0.7,1.6,1,3.1,3.4,3.1c20.4-0.1,40.8-0.1,61.8-0.1
	C1277.2,312,1255.3,262.7,1233.4,213.4z M1191.3,281.8c-20.4,0-40.8-4.4-61.2-4.3c-3.3,0-4-2.8-2.7-6.1
	c9.5-24.8,18.8-50.8,28.2-75.6c1.5-3.9,2-4.5,5.1-8.5c12.6,30.3,25,52.3,37.6,94.4H1191.3z"/>
<ellipse transform="matrix(0.7071 -0.7071 0.7071 0.7071 -126.5617 266.6323)" class="st3" cx="258.6" cy="286.1" rx="248.4" ry="248.4"/>
<ellipse transform="matrix(0.7071 -0.7071 0.7071 0.7071 -126.8891 266.7347)" class="st4" cx="258.5" cy="286.5" rx="244.4" ry="244.4"/>
<ellipse transform="matrix(0.7071 -0.7071 0.7071 0.7071 -126.3017 267.2613)" class="st3" cx="259.5" cy="286.1" rx="198.2" ry="198.2"/>
<ellipse transform="matrix(0.7071 -0.7071 0.7071 0.7071 -126.3017 267.2613)" class="st4" cx="259.5" cy="286.1" rx="193.7" ry="193.7"/>
<path class="st3" d="M25,295.6l26.8-2.3l0.6,6.9l-26.8,2.3L25,295.6z"/>
<path class="st3" d="M44.2,315.1l-16.6,3.1l-1.2-6.5l26.5-4.9l1.1,5.8l-13.2,17.1l15.8-2.9l1.2,6.5l-26.5,4.9l-0.9-5.2L44.2,315.1z"
	/>
<path class="st3" d="M35.5,353.3l21-6.3l-2.6-8.5l4.8-1.4l7.1,23.8l-4.9,1.4l-2.5-8.5l-21,6.3L35.5,353.3z"/>
<path class="st3" d="M42.4,374.8l24.9-10.2l6.8,16.6l-4.6,1.9l-4.3-10.4l-5.1,2.1l4.1,9.9l-4.6,1.9l-4.1-9.9l-5.9,2.4l4.4,10.7
	l-4.7,1.9L42.4,374.8z"/>
<path class="st3" d="M53,399.3l23.6-12.9l4.8,8.7c1.8,3.2,2.5,5.9,2.2,8s-1.6,3.9-3.9,5.1c-1.2,0.7-2.6,1-3.9,0.8
	c-1.5-0.3-2.8-0.9-4-1.8c0.1,0.7,0,1.5-0.2,2.2c-0.3,0.8-0.7,1.6-1.2,2.3l-6,8.2l-3.7-6.7l5.1-6.7c0.7-0.8,1.1-1.8,1.2-2.9
	c0-1.1-0.3-2.1-0.8-3c-0.1-0.1-0.1-0.2-0.2-0.3l-0.2-0.3l-9.6,5.2L53,399.3z M71.7,400.4c0.4,0.9,1.1,1.6,2,2.1
	c0.9,0.3,1.8,0.1,2.5-0.4c0.8-0.4,1.4-1.1,1.6-2c0.1-1-0.1-2-0.6-2.8l-1.5-2.8l-5.5,3L71.7,400.4z"/>
<path class="st3" d="M85.3,420.7l-13.5,10.2l-4-5.3l21.5-16.2l3.5,4.7l-4.1,21.2l12.8-9.7l4,5.3l-21.4,16.3l-3.2-4.2L85.3,420.7z"/>
<path class="st3" d="M88.6,452.3l27-11.6l5.7,5.3l-10.8,26.8l-5.2-4.9l2.2-5.1l-8.4-7.9l-5.1,2.3L88.6,452.3z M103.5,452.8l5.8,5.4
	l4.3-10L103.5,452.8z"/>
<path class="st3" d="M119.3,479l12.5-18l-7.3-5.1l2.9-4.1l20.4,14.2l-2.9,4.1l-7.3-5.1L125.1,483L119.3,479z"/>
<path class="st3" d="M138.6,491.4l12.9-23.6l6.1,3.3l-12.9,23.6L138.6,491.4z"/>
<path class="st3" d="M156.9,486.3c0.7-1.8,1.7-3.4,3-4.8c2.6-2.7,6.3-4.1,10-4c2,0.1,3.9,0.5,5.7,1.2c1.8,0.7,3.6,1.7,5.1,3
	c2.8,2.5,4.4,6,4.5,9.8c0,1.9-0.3,3.8-1,5.5c-0.7,1.8-1.7,3.4-3,4.7c-1.3,1.3-2.9,2.3-4.6,3c-1.7,0.7-3.6,1-5.4,1
	c-3.9-0.2-7.7-1.7-10.7-4.2c-1.4-1.2-2.5-2.7-3.3-4.4c-0.8-1.7-1.2-3.5-1.3-5.4C155.9,490,156.2,488.1,156.9,486.3z M163.3,488.9
	c-0.9,2-0.9,4.3-0.2,6.3c1.7,3.9,6.2,5.8,10.2,4.1c0,0,0.1,0,0.1-0.1c3.9-2.1,5.8-6.8,4.4-11c-1.6-3.9-6.2-5.8-10.1-4.2
	c-0.1,0-0.1,0.1-0.2,0.1C165.5,485.1,164,486.8,163.3,488.9L163.3,488.9z"/>
<path class="st3" d="M197.7,497l-3.8,16.5l-6.5-1.5l6-26.2l5.8,1.3l10.5,18.9l3.6-15.6l6.5,1.5l-6,26.2l-5.1-1.2L197.7,497z"/>
<path class="st3" d="M219.6,519l14.4-25.5l7.7,0.8l7.6,27.8l-7.1-0.8l-1.4-5.4l-11.5-1.2l-2.7,5L219.6,519z M231.8,510.4l7.9,0.8
	l-2.7-10.6L231.8,510.4z"/>
<path class="st3" d="M254.8,522.2l0.3-26.9l6.7,0.1l-0.2,21.7l11.6,0.1l0,5.2L254.8,522.2z"/>
<path class="st3" d="M293.8,521.1l-4.4-26.5l10-1.7c2.2-0.4,4.5-0.6,6.7-0.5c3.7,0.4,7.1,2.3,9.3,5.3c1.2,1.7,2,3.6,2.3,5.7
	c0.4,2.2,0.2,4.5-0.5,6.7c-0.8,2.2-2.1,4.1-3.8,5.6c-1,0.9-2.2,1.7-3.5,2.2c-1.9,0.7-4,1.2-6,1.5L293.8,521.1z M296.9,498.8
	l2.6,15.8l5-0.8c2.1-0.3,3.9-1.4,5.1-3.1c2.3-3.7,1.5-8.6-1.9-11.4c-1.7-1.2-3.8-1.7-5.9-1.3L296.9,498.8z"/>
<path class="st3" d="M328,514.4l-8.2-25.6l17.1-5.4l1.5,4.7l-10.7,3.4l1.7,5.2l10.2-3.3l1.5,4.8l-10.2,3.3l1.9,6.1L344,504l1.5,4.8
	L328,514.4z"/>
<path class="st3" d="M361.8,502L339,482.9l6.5-3.1l12.8,11.2l-0.4-17.1l6.5-3.2l0,30.1L361.8,502z"/>
<path class="st3" d="M381.4,491.3L366.4,469l14.9-10.1l2.8,4.1l-9.3,6.3l3.1,4.5l8.9-6l2.8,4.1l-8.9,6l3.6,5.3l9.6-6.5l2.8,4.2
	L381.4,491.3z"/>
<path class="st3" d="M403.2,475.7l-17.7-20.2l5.1-4.4l14.3,16.3l8.7-7.6l3.4,3.9L403.2,475.7z"/>
<path class="st3" d="M410.4,451.7c-1.4-1.2-2.6-2.7-3.5-4.5c-1.6-3.4-1.8-7.3-0.5-10.7c1.5-3.7,4.2-6.7,7.6-8.7
	c1.6-0.9,3.4-1.4,5.2-1.6c1.9-0.2,3.7,0,5.5,0.6c3.6,1.3,6.6,3.9,8.3,7.3c0.8,1.7,1.3,3.5,1.3,5.3c0.1,1.8-0.2,3.7-0.9,5.4
	c-1.5,3.7-4.2,6.7-7.6,8.7c-1.6,0.9-3.4,1.4-5.2,1.6c-1.8,0.2-3.7,0-5.5-0.6C413.4,453.9,411.8,453,410.4,451.7z M414.9,446.5
	c1.6,1.5,3.7,2.3,5.9,2.3c4.3-0.2,7.5-3.9,7.3-8.2c0-0.1,0-0.1,0-0.2c-0.2-2.2-1.3-4.2-3-5.5c-1.6-1.5-3.7-2.3-5.9-2.3
	c-4.3,0.2-7.5,3.9-7.3,8.1c0,0.1,0,0.1,0,0.2C412.1,443.1,413.2,445.1,414.9,446.5z"/>
<path class="st3" d="M444.4,431.8l-22.4-14.9l5.5-8.3c2-3,4-4.9,6.1-5.6c2.2-0.7,4.6-0.3,6.5,1.2c2.1,1.2,3.5,3.4,3.6,5.8
	c0.1,2.3-0.9,5-3,8.2l-1.5,2.2l8.8,5.9L444.4,431.8z M436.9,414.8c0.6-0.8,1-1.8,1-2.8c-0.1-0.9-0.7-1.6-1.4-2
	c-0.7-0.5-1.6-0.7-2.4-0.5c-0.9,0.3-1.7,1-2.2,1.9L430,414l5.1,3.4L436.9,414.8z"/>
<path class="st3" d="M460,407.9l-24-12.1l2.7-5.3l13.5-2.8l-5.7-12.6l2.7-5.3l24,12.1l-3,5.9l-14.9-7.5l5.2,11.6l-12.4,2.6L463,402
	L460,407.9z"/>
<path class="st3" d="M476.6,373.4l-25.2-9.5l6.3-16.8l4.6,1.8l-4,10.5l5.1,1.9l3.8-10l4.7,1.7l-3.8,10.1l6,2.2l4.1-10.8l4.7,1.8
	L476.6,373.4z"/>
<path class="st3" d="M471,337.9l16.4,4.2l-1.7,6.4l-26-6.7l1.5-5.7l19.1-10l-15.5-4l1.7-6.4l26,6.7l-1.3,5.1L471,337.9z"/>
<path class="st3" d="M494.7,305.8l-21.8-1.8l-0.7,8.9l-5-0.4l2-24.8l5,0.4l-0.7,8.9l21.8,1.8L494.7,305.8z"/>
<path class="st3" d="M54.2,171l13.8,6.9c3.4,1.7,5.5,4,6.3,7s0.4,6.2-1.4,9.8s-4.1,5.9-7,6.9s-6,0.7-9.4-1l-13.8-6.9l3-6l13.5,6.8
	c1.5,0.9,3.3,1.2,5.1,0.8c1.6-0.5,2.9-1.7,3.5-3.2c0.8-1.4,1-3.1,0.5-4.7c-0.8-1.6-2.1-2.9-3.7-3.6L51.1,177L54.2,171z"/>
<path class="st3" d="M71,163.2l13.8,9.8l-3.8,5.4L59,162.8l3.5-4.8l21.4-2.5l-13.1-9.3l3.8-5.4l21.9,15.6l-3.1,4.3L71,163.2z"/>
<path class="st3" d="M100.8,152l-20.1-17.9l4.6-5.1l20.1,17.9L100.8,152z"/>
<path class="st3" d="M114.3,137.8l-14.9-16l-6.5,6l-3.4-3.7l18.2-16.9l3.4,3.7l-6.5,6l14.9,16L114.3,137.8z"/>
<path class="st3" d="M128.8,124.9l-15.9-21.7l14.5-10.6l2.9,4l-9.1,6.6l3.2,4.4l8.7-6.3l2.9,4l-8.7,6.3l3.8,5.2l9.3-6.8l3,4.1
	L128.8,124.9z"/>
<path class="st3" d="M147.5,111.3l-12.9-23.6l8.9-4.9c1.9-1.1,4-2,6.2-2.7c1.6-0.4,3.3-0.5,4.9-0.2c2,0.3,4,1,5.6,2.2
	c1.7,1.2,3.1,2.8,4.1,4.6c1.1,2,1.7,4.2,1.7,6.5c0,2.3-0.6,4.5-1.7,6.5c-0.7,1.2-1.6,2.3-2.6,3.2c-1.6,1.3-3.4,2.4-5.2,3.4
	L147.5,111.3z M143.1,89.3l7.7,14l4.4-2.4c1.9-0.9,3.3-2.6,3.8-4.7c0.9-4.3-1.4-8.6-5.6-10.1c-2-0.6-4.2-0.4-6,0.7L143.1,89.3z"/>
<path class="st3" d="M184.6,90.7l-1.8-5.7c1.9,0.5,3.8,0.8,5.7,0.9c1.4,0.1,2.8-0.1,4.1-0.5c1-0.3,1.9-0.8,2.7-1.5
	c0.5-0.5,0.7-1.3,0.4-2c-0.2-0.6-0.6-1-1.1-1.3c-1-0.3-2.1-0.5-3.2-0.4c-4.1-0.1-7-0.6-8.8-1.5c-1.8-0.9-3.2-2.5-3.7-4.4
	c-0.7-2.1-0.4-4.4,0.9-6.2c1.5-2.1,3.8-3.6,6.3-4.3c1.5-0.5,3-0.8,4.5-0.9c1.6-0.1,3.2-0.1,4.8,0.2l1.7,5.3
	c-1.7-0.3-3.5-0.4-5.3-0.4c-1.3,0-2.7,0.2-3.9,0.6c-1,0.3-1.9,0.7-2.6,1.4c-0.5,0.5-0.7,1.2-0.5,1.8c0.2,0.6,0.7,1.1,1.4,1.2
	c1,0.3,2,0.5,3,0.5h1.3c2,0,4,0.2,6,0.6c1.3,0.3,2.4,0.9,3.4,1.8c1,1,1.7,2.2,2.1,3.5c0.8,2.2,0.5,4.6-0.9,6.4
	c-1.4,1.9-3.6,3.4-6.8,4.4c-1.6,0.5-3.2,0.8-4.8,0.9C187.8,91.2,186.2,91,184.6,90.7z"/>
<path class="st3" d="M215,84.2l-4.2-21.5l-8.7,1.7l-1-4.9l24.4-4.8l1,4.9l-8.7,1.7l4.3,21.5L215,84.2z"/>
<path class="st3" d="M228.6,81.3l9.8-27.7l7.7-0.6l12.4,26.1l-7.1,0.5l-2.3-5.1l-11.6,0.8l-1.8,5.4L228.6,81.3z M239.1,70.6l7.9-0.6
	l-4.5-9.9L239.1,70.6z"/>
<path class="st3" d="M265.3,79.7l1-21.9l-8.9-0.4l0.2-5l24.8,1.2l-0.2,5l-8.9-0.4l-1,21.8L265.3,79.7z"/>
<path class="st3" d="M284.7,81l4.4-26.5l17.7,3l-0.9,4.9l-11-1.8l-0.9,5.4l10.6,1.8l-0.8,4.9l-10.6-1.8l-1,6.3l11.4,1.9l-0.8,5
	L284.7,81z"/>
<path class="st3" d="M307.7,83l1.6-5.7c1.3,1.4,2.7,2.8,4.2,3.9c1.1,0.8,2.4,1.4,3.7,1.8c1,0.3,2,0.4,3,0.3c0.7-0.2,1.3-0.7,1.5-1.4
	c0.2-0.6,0.1-1.2-0.2-1.7c-0.7-0.8-1.5-1.6-2.4-2.1c-3.3-2.3-5.5-4.4-6.5-6.1c-1-1.8-1.2-3.8-0.6-5.8c0.6-2.1,2.2-3.9,4.3-4.6
	c2.5-0.9,5.2-0.9,7.6,0c1.5,0.4,2.9,1,4.3,1.8c1.4,0.8,2.7,1.7,3.9,2.8l-1.5,5.3c-1.3-1.2-2.7-2.3-4.1-3.3c-1.1-0.7-2.3-1.3-3.6-1.7
	c-1-0.3-2-0.4-3-0.3c-0.7,0.1-1.2,0.6-1.4,1.3c-0.1,0.6,0,1.3,0.4,1.8c0.6,0.8,1.4,1.5,2.2,2.1c0.2,0.2,0.5,0.4,1,0.8
	c1.7,1.2,3.2,2.5,4.6,3.9c0.9,0.9,1.5,2.1,1.8,3.4c0.2,1.3,0.2,2.7-0.2,4c-0.5,2.2-2.2,4.1-4.3,4.9c-2.2,0.8-4.9,0.8-8.1-0.1
	C312.8,87.1,309.9,85.4,307.7,83z"/>
<path class="st3" d="M338.5,94.8L360.9,76l7,3.5l-2.6,28.7l-6.4-3.2l0.6-5.5l-10.4-5.2l-4.3,3.7L338.5,94.8z M352.9,91l7.1,3.6
	l1.2-10.8L352.9,91z"/>
<path class="st3" d="M388.5,120.4c-2,0.1-4-0.1-5.9-0.7c-2-0.6-3.8-1.5-5.5-2.7c-1.6-1.1-3.1-2.5-4.3-4.1c-1.1-1.5-1.8-3.1-2.2-4.9
	c-0.4-1.8-0.4-3.7,0-5.5c0.4-1.9,1.2-3.6,2.3-5.2c2-3.2,5.4-5.4,9.2-6c3.7-0.5,7.5,0.5,11.3,3.1c1.4,0.9,2.7,2.1,3.8,3.3
	c1.2,1.3,2.2,2.8,3.1,4.3L397,107c-0.9-1.6-1.9-3.1-3-4.6c-1-1.2-2.1-2.2-3.4-3.1c-1.9-1.4-4.2-2.1-6.5-1.8
	c-2.2,0.4-4.2,1.8-5.4,3.7c-1.4,1.8-1.9,4-1.6,6.2c0.4,2.2,1.8,4,3.6,5.2c0.6,0.4,1.1,0.7,1.8,0.9c0.6,0.3,1.3,0.5,2,0.6l1.9-2.8
	l-3.1-2.1l2.9-4.2l8.7,6L388.5,120.4z"/>
<path class="st3" d="M390.7,126.4l17.9-20.1l13.5,11.9l-3.3,3.7l-8.4-7.4l-3.6,4.1l8,7.1l-3.3,3.7l-8-7.1l-4.3,4.8l8.6,7.7l-3.4,3.8
	L390.7,126.4z"/>
<path class="st3" d="M425,135.8l-12.8,11l-4.3-5l20.4-17.6l3.9,4.5l-2.7,21.4l12.1-10.5l4.3,5l-20.4,17.6l-3.4-4L425,135.8z"/>
<path class="st3" d="M443.3,185.4c-3.2-1.7-5.9-4.1-7.8-7.2c-1.1-1.6-1.9-3.5-2.3-5.4c-0.8-3.6-0.1-7.4,2-10.5
	c1.1-1.6,2.5-2.9,4.1-3.9c3.1-2.2,7.1-2.9,10.8-1.9c3.6,1,6.7,3.4,9.2,7.3c0.9,1.4,1.6,2.8,2.1,4.3c0.6,1.5,0.9,3.1,1.1,4.8
	l-5.3,3.4c0-1.7-0.2-3.3-0.6-4.9c-0.4-1.5-1-2.9-1.8-4.2c-1.1-2.1-3.1-3.6-5.3-4.2c-2.2-0.5-4.6,0-6.4,1.3c-1.9,1.1-3.3,3-3.9,5.1
	c-0.4,2.2,0,4.5,1.3,6.3c0.9,1.4,2,2.6,3.3,3.6c1.4,1.1,3,2,4.7,2.8L443.3,185.4z"/>
<path class="st3" d="M446.5,197.1l11-5.1l8.9-15.8l3.4,7.3l-5.4,9l10.5,1.8l3.4,7.3l-17.8-3.5l-11.1,5.1L446.5,197.1z"/>
<rect x="147.4" y="357" class="st3" width="226" height="36.4"/>
<rect x="147.4" y="151.2" class="st3" width="226" height="65.4"/>
<polygon class="st4" points="171.6,376.5 178.7,371.3 170,371.3 167.2,362.5 164.3,371.3 155.6,371.3 162.6,376.5 159.8,385.1 
	167,379.9 174.5,385.6 "/>
<polygon class="st3" points="45.6,244.9 50.9,237.9 42.5,240.4 37.4,232.8 37.1,242 28.8,244.5 37,247.5 36.7,256.5 42.1,249.5 
	51,252.8 "/>
<polygon class="st3" points="471.5,244.7 466.5,237.6 474.7,240.4 480.1,232.9 480.1,242.1 488.3,244.9 480,247.7 480,256.7 
	474.8,249.4 465.8,252.4 "/>
<polygon class="st4" points="202.6,376.5 209.7,371.3 201,371.3 198.2,362.5 195.3,371.3 186.6,371.3 193.6,376.5 190.8,385.1 
	198,379.9 205.5,385.6 "/>
<polygon class="st4" points="233.3,376.5 240.4,371.3 231.6,371.3 228.9,362.5 226,371.3 217.3,371.3 224.3,376.5 221.5,385.1 
	228.7,379.9 236.2,385.6 "/>
<polygon class="st4" points="264.3,376.5 271.4,371.3 262.6,371.3 259.9,362.5 257,371.3 248.3,371.3 255.3,376.5 252.5,385.1 
	259.7,379.9 267.2,385.6 "/>
<polygon class="st4" points="296.4,376.5 303.4,371.3 294.7,371.3 291.9,362.5 289.1,371.3 280.4,371.3 287.4,376.5 284.5,385.1 
	291.7,379.9 299.3,385.6 "/>
<polygon class="st4" points="327.2,376.5 334.3,371.3 325.6,371.3 322.8,362.5 319.9,371.3 311.3,371.3 318.2,376.5 315.4,385.1 
	322.6,379.9 330.1,385.6 "/>
<polygon class="st4" points="359,376.5 366,371.3 357.3,371.3 354.5,362.5 351.7,371.3 343,371.3 350,376.5 347.2,385.1 
	354.3,379.9 361.9,385.6 "/>
<path class="st5" d="M246.6,397.1v54.1c10.4,5.9,13.6,11.7,13.6,11.7s-0.5-5.5,12.7-11.8v-54L246.6,397.1z"/>
<path class="st5" d="M175,397.1v33.3c8.2,4.3,17.1,7.2,26.2,8.5v-41.8H175z"/>
<path class="st5" d="M282,397.1v50.3c8.6-2.8,17.3-5,26.2-6.6v-43.8H282z"/>
<path class="st5" d="M210.4,397.1v43c9.2,1.1,18.3,3.4,26.9,6.8v-49.8H210.4z"/>
<path class="st5" d="M373.4,397.1h-20v27.6C371.1,412,373.4,397.1,373.4,397.1z"/>
<path class="st5" d="M317.5,397.1v42.1c9.3-1.7,18.3-4.7,26.7-8.9v-33.2L317.5,397.1z"/>
<path class="st5" d="M147.4,397.1c-1.7,2,3.4,16,18.4,27.4v-27.4H147.4z"/>
<path class="st4" d="M207.9,164.5v21.9c0,5.3-1.6,9.5-4.8,12.6c-3.2,3-7.6,4.5-13.3,4.5c-5.7,0-10.1-1.5-13.3-4.5
	c-3.2-3-4.8-7.2-4.8-12.6v-21.9h9.6V186c0,3,0.7,5.4,2.2,7c1.7,1.7,4,2.6,6.4,2.4c2.4,0.2,4.7-0.7,6.3-2.4c1.4-1.6,2.2-3.9,2.2-7
	v-21.5L207.9,164.5z"/>
<path class="st4" d="M215.2,199.7v-8.5c2.3,1.5,4.7,2.8,7.3,3.8c1.8,0.7,3.8,1.1,5.8,1.1c1.5,0.1,2.9-0.2,4.3-0.9
	c0.9-0.5,1.5-1.5,1.4-2.6c0-0.8-0.3-1.6-0.9-2.2c-1.3-0.9-2.7-1.6-4.2-2c-5.4-1.9-9.2-3.9-11.2-5.9c-2.1-2-3.2-4.8-3.1-7.6
	c-0.1-3.2,1.4-6.2,4-8c2.7-2,6.1-3.1,10.4-3.1c2.2,0,4.4,0.3,6.5,0.8c2.2,0.5,4.4,1.3,6.5,2.3v7.8c-2.2-1.1-4.5-2.1-6.9-2.8
	c-1.8-0.6-3.7-0.9-5.6-0.9c-1.4-0.1-2.9,0.2-4.1,0.8c-0.9,0.4-1.4,1.3-1.4,2.3c0.1,0.9,0.5,1.7,1.3,2.3c1.2,0.9,2.5,1.5,3.9,2
	c0.4,0.1,0.9,0.4,1.7,0.6c2.7,0.9,5.3,2.1,7.8,3.5c1.6,0.9,2.9,2.3,3.8,3.9c0.9,1.7,1.3,3.7,1.3,5.6c0.1,3.3-1.4,6.4-4,8.3
	c-2.7,2-6.4,3-11.1,3C223.8,203.4,219.2,202.1,215.2,199.7L215.2,199.7z"/>
<path class="st4" d="M244.4,202.8l16.6-38.2h11l14.9,38.2h-10.2l-2.7-7.4h-16.5l-3.1,7.4H244.4z M260.4,188.8h11.3l-5.4-14.6
	L260.4,188.8z"/>
<path class="st4" d="M292,202.8v-38.2h9.8v38.2H292z"/>
<path class="st4" d="M310.2,202.8v-38.2h14.4c3.2-0.1,6.4,0.2,9.5,0.9c5.1,1.4,9.4,4.9,11.8,9.7c2.6,5.7,2.5,12.2-0.4,17.8
	c-1.6,2.9-3.9,5.3-6.6,7c-1.7,1.1-3.5,1.8-5.4,2.2c-2.9,0.5-5.9,0.7-8.8,0.7L310.2,202.8z M319.8,172.3V195h7.1c3,0.1,5.9-1,7.9-3.2
	c4.1-4.7,4.1-11.7,0-16.4c-2.1-2.1-5-3.3-7.9-3.2L319.8,172.3z"/>
<path class="st6" d="M220.1,257.4c0.8-0.1,1.5-0.4,2.1-0.9C222.9,255.9,222,258.8,220.1,257.4z"/>
<path class="st6" d="M226.3,259l4.5-4.5C230.8,254.5,228.6,259.1,226.3,259z"/>
<path class="st6" d="M307.8,282.3c0,0,4.5,1.7,11.4,0.3C319.2,282.6,312.3,287.1,307.8,282.3z"/>
<path class="st6" d="M206.3,309c0,0,2.1-1,2.6-1.4l0.5-0.3l2.1-0.2C211.5,307.1,209.1,309.4,206.3,309z"/>
<path class="st6" d="M228.2,288.5l3.3-2.6C231.5,285.9,228,287.1,228.2,288.5z"/>
<path class="st6" d="M216.1,288.8c0.7,0.1,1.4-0.1,1.9-0.5c0.9-0.7,5.7-5.9,5.7-5.9S217,286.9,216.1,288.8z"/>
<path class="st6" d="M205.1,289.9c0,0,5-5,5.7-5.2s0.7,1.2,0.7,1.2L205.1,289.9z"/>
<path class="st6" d="M204.1,284.9c0,0,3.1-2.9,3.8-3.1c0.4-0.1,0.8-0.1,1.2,0C209.1,281.8,205.1,284.7,204.1,284.9z"/>
<path class="st6" d="M201.5,283.6c0,0,4.3-5.2,5.7-5.4s1.4,0.3,1.4,0.3v0.9C208.5,279.5,202.3,282.8,201.5,283.6z"/>
<path class="st6" d="M197,283.3c0.5-0.5,4.3-5.2,6.4-5.5l0.7-0.4l-0.2,1.4L197,283.3z"/>
<path class="st6" d="M187,292.8c0,0,5.2-4.3,5.7-4.5l0.5-0.2h-2.1C191.1,288.1,186.6,291.4,187,292.8z"/>
<path class="st6" d="M184.9,291.1c0,0-10.4,8.6-13.5,12.4c0,0-7.3-0.2-8.3,0.5s-0.5,0.2-0.5,0.2l0.3-1.7c1.3-0.4,2.5-1.1,3.5-2.1
	c1.7-1.7,15.2-11.6,15.2-11.6L168.8,300c0,0-0.9,4,2.3,1.2S183.2,291.8,184.9,291.1z"/>
<path class="st6" d="M159.5,302.5l1.9-0.2l3.1-2.2l10.9-9.8C175.4,290.2,162.4,299.7,159.5,302.5z"/>
<path class="st6" d="M154.7,302.5l2.2-0.3l11.6-10.9C168.5,291.2,156.8,299.4,154.7,302.5z"/>
<path class="st6" d="M149.8,302.3l2.4-0.3l7.8-8.5C160,293.5,152.1,299,149.8,302.3z"/>
<path class="st6" d="M146.6,299.7l0.2,1.2h1.6c0,0,1.7-2.4,3.1-4.8C149.9,297.5,148.3,298.7,146.6,299.7z"/>
<path class="st6" d="M281,290.9c0,0,4.1-2.1,5.7-3.6c-0.9,1.8-2.3,3.2-4,4.3C282.7,291.6,280,292.3,281,290.9z"/>
<path class="st6" d="M279.5,288.5c1.6-0.5,3.1-1.1,4.5-1.9c-0.8,1.3-2,2.4-3.5,3.1C278.5,290.5,279.5,288.5,279.5,288.5z"/>
<path class="st6" d="M277.8,287.1c0,0,4-1.5,4.5-2.2l-0.5,0.7C281.7,285.6,279.7,288.6,277.8,287.1z"/>
<path class="st6" d="M256.7,272.6c0,0,1,1,4.7-1.7c0,0-1.4,2.9-3.6,2.8S256.9,273.3,256.7,272.6z"/>
<path class="st6" d="M247.6,262.2c0,0,6.4,0.2,7.9,1.9s4.5,4.3,4.5,4.3l0.4,0.9h-1.7c0,0,0.4-2.3-1.7-0.7c-0.9,0.7-1.9,1.4-2.9,1.9
	c0,0,3.5-4,1.4-4.7s0,1.7-3.3,2.8c0,0,2.6-3.6,1.2-3.5c-1,0.3-1.9,0.9-2.6,1.7l-1,0.4c0,0,3.5-3.5,0.4-3.6l-0.9,0.2
	C248.7,263.2,248.1,262.7,247.6,262.2z"/>
<path class="st6" d="M261.7,298l0.7-0.7l4.3-2.6C266.7,294.7,263.3,299.2,261.7,298z"/>
<path class="st6" d="M264.1,300.6c1.6-2,3.5-3.6,5.7-4.8C269.8,295.7,266.9,300,264.1,300.6z"/>
<path class="st6" d="M266.5,302.3c0,0,2.9-3.3,5.5-4C272.1,298.3,269.3,302.1,266.5,302.3z"/>
<path class="st6" d="M269.5,304c1.4-1.6,2.9-3.1,4.7-4.3C274.1,299.7,272.2,304,269.5,304z"/>
<path class="st6" d="M272.1,305.6c0,0,5.4-2.4,7.3-5c0,0-0.9,3.6-1.9,4s0.2,1.7,1.9,0.7c1.2-0.9,2-2.1,2.4-3.5c0,0,1,3.3-1.2,4
	s-0.2,1.7,1.9,0.2s-1.7,3.5-5.5,4.8c0,0,2.1-3.1,0.9-3.1s-1.5,0.5-1.5,0.5l-0.2-2.1C276,306.1,272.6,307.1,272.1,305.6z"/>
<path class="st6" d="M239.3,282.3c0,0,1.4-1,1.9-1.6s4.5,0,5.5-2.6c0,0-0.7,2.1,0.3,2.1c1.1-0.2,2.2-0.6,3.1-1.2
	c0,0-1.9,3.5-0.2,3.5s3.8-1.9,3.8-1.9c-0.2,1-0.7,1.9-1.6,2.6c-1.2,0.7,0,2.6,2.4,0.7c-0.5,0.7-0.9,1.5-1.2,2.2
	c-0.4,0.9-0.6,1.8-0.9,2.8c0,0-0.5-0.4-2.3,0.7s-5,3.6-5.9,3.8s7.4-7.1,5.9-7.3s-6.9,4.3-6.9,4.3s6-6.6,4.7-6.9s-4.1,2.6-4.1,2.6
	s3.4-5.4,1.2-4.7s-2.1,1.6-2.1,1.6S243.9,279.2,239.3,282.3z"/>
<path class="st6" d="M356.7,261.5l2.6-1.5C359.3,260,360.3,261.5,356.7,261.5z"/>
<path class="st6" d="M318.5,267.8l3.1-2.8C321.6,265,322.8,266.9,318.5,267.8z"/>
<path class="st6" d="M345.4,305.9c-21.1,0-16.6-1.7-21.8-1.4c-1.7,0.1-3.4,0.1-5.1-0.1l-0.1-0.2c-0.2,0.1-0.4,0.1-0.5,0.1l-0.8-0.1
	c-0.5-0.7,2.2-3.3,4.1-4c2.4-0.9,3.3-4.7,3.3-4.7c-2.6,2.9-5.8,5.2-9.3,6.9c-5.2,2.3,2.8-5.5,5.9-7.4c1.9-1.2,3.3-2.9,4.1-5
	c0,0-8.6,8.5-13.1,10.9s-2.6-0.9-2.6-0.9s5-4.7,7.1-5.7c1.3-0.7,2.1-2,2.2-3.5c0,0-7.6,7.4-9.7,7.4s-0.9-1,2.3-3.1
	c1.8-1.2,3.2-3.1,3.8-5.2c0,0-3.6,4.3-6.4,5.2s-1.2-1.9,0.7-2.9s2.9-4,2.9-4s-2.9,2.4-4.8,3.8s-1.7-0.7-0.5-1.7c1-1,1.8-2.2,2.4-3.5
	c-1,0.6-1.9,1.3-2.8,2.1c-2.1,1.7-2.8-1.4-1.7-1.7s2.2-2.6,1.5-1.9s-3.6,1.6-3.6,1.6l0,0c-0.3-0.1-0.6,0.1-0.7,0.3
	c0.4,2.3,1.1,4.5,2.1,6.6c0.9,2.2,1.4,4.5,1.4,6.9c-2.3,5.5-4.9,4.6-4,2.5c0.8-0.6,1.5-1.4,2.1-2.3c-0.5,0.3-1.1,0.5-1.7,0.6
	c-0.1-0.6-0.2-1.3-0.5-1.8c0.5-0.4,1-0.8,1.5-1.2c-0.6,0.2-1.2,0.3-1.8,0.4c-0.2-0.4-0.4-0.8-0.6-1.2c0.3-0.4,0.6-0.7,0.9-1h-1.5
	c-0.9-1.4-1.7-2.8-2.3-4.3c-0.1-0.4-0.3-0.8-0.4-1.2c-0.4-1.9-0.2-3.8,0.8-5.5l-1,0.2c-1,0.2-0.2-1.4-0.2-1.4l3.5-3.4
	c0.1,1.3,0.4,2.6,1,3.7c0,0-0.2-3.1,0.9-4.5c0.7-1.1,1.3-2.2,1.7-3.5c0,0,0.4-5.7-2.8-8.8s-4.3-4-4.8-5.5c0.3,1.3,0.9,2.5,1.9,3.5
	c1.1,0.8,1.9,3.8,2.3,5.1l-1.2,0.9l1,0.4c0.2,0,0.5,0,0.7,0.1c0.2,0.4,0.3,0.9,0.4,1.4c-1,1.7-4.5,4.4-4.9,5
	c-0.6,0.9-1.8,1.2-2.6,0.6c0,0-0.1,0-0.1-0.1c-0.6-0.4,0.5-2,1.7-3.2c-0.9,0.5-1.8,1.1-2.4,1.6c-0.3,0.3-0.7,0.4-1.1,0.3l-0.4-0.3
	c-0.3-0.5-0.2-1.2,0.3-1.5c0,0,0.1-0.1,0.1-0.1c1.2-0.5,5-5.5,5-5.5s-4.5,4-6.6,4.5s-2.3,0.5-0.9-0.7s4.8-5.9,3.8-4.7
	s-4.3,4.7-6.7,3.8s3.8-3.8,2.8-3.8s-4.7,2.2-4.7,2.2c-4.1,0,1.7-4,0.9-4s-4.3,2.2-5.2,1.5s2.2-2.6,2.2-2.6c-1.2,0.3-2.4,0.8-3.5,1.6
	c-1.7,1.2-2.6-1.7-2.6-1.7c-5,1.9-2.4-1.9-2.4-1.9c-4.3,1.6-5,0.9-5,0.9c0,0.1,0,0.1,0,0.2c-1.6-0.8-3.1-1.9-4.3-3.3
	c-0.3-0.3-0.5-0.6-0.8-0.9c0-1.3,1.6-3.3,1.6-3.3c-1.3,0.6-2.6,1.1-3.9,1.5c-0.2-0.2-0.5-0.3-0.8-0.4c0.2-1,3-3.1,3-3.1
	s-3,1.7-4.7,2.4l-0.9-0.3c0.9-1.2,1.8-2.3,2.8-3.3c0,0-3.1,1.9-5,2.8c-0.5-0.1-0.9-0.1-1.4-0.2c0.4-1,0.8-2,1.4-3
	c0,0-2.7,2.4-4.7,2.7c-0.4,0-0.8,0-1.1-0.1c-1.9-0.9,2.1-4,2.1-4c-1.8,1.4-3.6,2.6-5.6,3.8l-1.3,0c0.2-1.1,2.2-3.7,1.2-2.5
	c-1.1,0.9-2.4,1.6-3.8,1.9c-0.3-0.4-0.4-0.8-0.4-1.3c1.1-1.1,2.7-2.7,3.4-3.3c-1.1,0.5-2.2,0.9-3.3,1.2c0.1-0.9,0.3-1.8,0.5-2.7
	c-3.9,7.6-8.1,8.8-11.1,9.1c0-0.9,0.6-1.6,1.5-1.6c0.1,0,0.2,0,0.3,0c4-1.2,4.8-6,4.8-6s-2.8,4.7-4.1,4.8s-0.5-2.2-0.5-2.2l-5,5.3
	c-2.1,0.4-4.3,0.4-6.4-0.2c1.1-0.5,3.3-3.4,3.3-3.4c-1.8,0.1-3.4,2.7-3.7,3.3c-2-0.5-3.8-1.6-5.3-3.1c-3.5-3.8,1.4-5.2,1.4-5.2
	l1.2-0.4c0.1,1.8,2,4,6.8,2c4.1-1.7,3.8-5.1,3.5-6.6l0.3-0.2c1.7-1,3.5-1.5,5.4-1.6c1.4,1.2,2.3,2.9,2.4,4.7c0,0,1.4-1.9-0.4-4.5
	c2.1,0.4,3.8,1.4,5.8,1.8c3.8,0.7,15.9,2.4,15.9,2.4s9-0.7,10.7,1.4s4.5,1.4,8.3,2.8l1.2,0.4c0.1,0.7-0.2,1.5-0.6,2
	c0,0,5.4-3.1,4.1,1.6c0,0,5.7-2.9,3.3,1.2c0,0,5-3.1,3.6,0.9c0,0,3.8-2.6,3.3,0.9c0.9-0.4,1.9-0.7,2.8-0.9l0.6,0.2
	c2.4,0.7,7.3,7.9,7.3,7.9c0.3-2.8-3.1-6.9-3.1-6.9h1.7c0.3,0.5,0.6,1.1,0.2,1.4c0,0,1.5-1.5,2.4-0.9s-0.7,2.8-0.7,2.8
	s3.5-3.5,4.3-2.8s-2.4,4.1-2.4,4.1c1.2-0.4,2.4-1,3.5-1.7c0.7-0.7,2.9-3.5,4.3-2.3s-6.4,6.9-6.4,6.9s1.2,0.2,4-1.7
	c2.1-1.5,4-3.1,5.9-4.8c0,0,4.5-1.2,2.9,0s-3.3,3.8-6.2,5.4s2.9-0.4,5.7-2.8s7.6-4.3,7.3-2.9s-2.9,2.6-2.9,2.6
	c1.5,0.1,3-0.4,4.1-1.4c1.6-1.5,6.9-3.1,5.9-1.4c-0.4,0.9-1.3,1.6-2.2,1.9c0,0,3.3-0.4,4.3-1.7s4.3-0.7,2.6,0.7s1.2-0.3,2.4-1.2
	s6.6-2.1,5.2-0.7c-0.9,0.9-1.9,1.8-2.9,2.6c0,0,2.3,0.4,3.5-1s7.1-3.5,5.9-2.3s-2.1,2.3-2.1,2.3s1.2-0.5,2.4-1.2
	c0.6-0.5,1.2-1.1,1.5-1.8c5.6-0.3,11.1-0.4,14.7-0.5c0,0.9-0.4,1.8-1.2,2.4c1.2-0.5,2.2-1.4,2.9-2.4h1.6c0.3,0.8,0.5,1.6-0.1,1.9
	l-1.2,0.7l1.5,0.2l0.1-2.8h0.1v-2.4c0,0-50.4,1.7-56.3,2.1s-16.2-1-19.3-1s-21.1-5.5-22.5-6.1s-8.3-4.1-14.1-4.1s-18-1.4-19.3-2.1
	s-9.3-2.8-11-0.3s-12.1,6.6-14.8,6.6s-2.1,4.5-2.1,4.5c-2.1,3.1-19.3,2.4-19.3,2.4s-24.2-2.4-33.1-2.4c-5,0-9.9,0.2-14.8,0.7v2.1
	h2.9c0.3,0.4,0.3,1-0.8,1.7c-2.1,1.4-2.1,2.9-2.1,2.9c2.4-1.6,5-3.1,7.6-4.5h0.6c0.2,0.4,0.1,0.9-0.9,1.6c-2.1,1.4-2.1,2.9-2.1,2.9
	s5-3.3,7.2-4.4h1.2c0.1,0.4-0.1,0.8-1,1.4c-2.1,1.4-2.1,2.9-2.1,2.9s4.5-3,6.8-4.2l1.4,0.1c0,0.3-0.3,0.7-1,1.2
	c-2.1,1.4-2.1,2.9-2.1,2.9s4.1-2.7,6.5-4l2,0.1c-0.2,0.4-0.5,0.8-0.9,1c-2.1,1.4-2.1,2.9-2.1,2.9s3.6-2.4,6.1-3.8l2,0.1
	c-0.2,0.3-0.5,0.5-0.8,0.7c-2.1,1.4-2.1,2.9-2.1,2.9s3.2-2.1,5.6-3.5c4.9,0.3,8.5,0.5,9,0.6s4.2,0.2,8.4,0.2l-0.1,1.7
	c0,0,4.1-3.3,4,0.3c0,0,5.7-3.8,5.4-0.5c0,0,4.7-2.9,4,0.9c0,0,7.1-6.7,4.5-0.5c0,0,5-3.5,2.8,1.4c0,0,7.3-3.6,1.9,1.9
	c0,0,11.1-6.4,2.9,2.1c0,0,12.3-7.6,8.1-1.9c0,0,8.5-5.5,7.8-2.1l3.6-2.2l3.5-0.6c11.7-1.4,18.3,3.1,21.1,6.2s11.7,6.2,11.7,6.2
	s9.3,2.4,13.8,8.6s3.8,12.4,6.2,15.9s2.1,7.3,0.7,7.6c-0.5,0.1-0.9,0.9-1.3,1.9L295,307c-0.9,0.8-2,1.3-3.1,1.6
	c-2.1,0.5-2.1-1.2-0.7-1.4s4.1-2.4,4.5-3.1s1.7-0.9,1.7-0.9c-0.6-0.2-1.3-0.3-1.9-0.2c0,0-1.5,2.4-3.8,2.8s-3.6-1.2-1.4-1.7
	s3.5-3.5,3.5-3.5c-0.9,1.4-2.4,2.3-4,2.4c-2.6,0-1.9-1.9-0.2-2.2s2.9-2.9,2.9-2.9s-3.3,2.3-4.5,2.3s-3.3-1.2-0.2-2.3
	c1.7-0.5,3.2-1.7,4-3.3c0,0-3.3,2.6-5,2.6s-1.4-1.4-1.4-1.4s3.3-0.9,4.5-2.2s2.2-3.3,0.7-2.1s-2.4,1-1.4-1.7s0.7-3.8,0.7-3.8
	c-0.5,4.8-7.1,7.1-7.1,7.1c0.9,0.3,1.9,0.2,2.8-0.2c1.2-0.7,0.9,1-0.5,1.9c-0.6,0.3-1.2,0.4-1.9,0.2v-0.1c-0.7-1-5.9-4.5-8.3-5.5
	c0,0-1.7-1,0.7-2.6c1-0.6,1.8-1.5,2.4-2.5c-0.4,0.7-3.8,2.2-4.6,2.5s-2.4-0.9-0.7-1.5c1.1-0.6,1.9-1.6,2.2-2.8
	c-0.8,0.9-1.9,1.6-3.1,1.9c-2.2,0.7-1.4-1-0.9-1s1.5-1.7,1.5-1.7c-0.6,0.5-1.4,0.8-2.2,0.9c-1.5,0.2-2.6-1-1.5-1s2.8-2.1,2.8-2.1
	s-1.4,0.4-3.3,1s-2.4-1-1.6-1.2s1.4-1.4,1.4-1.4c-0.8,0.4-1.7,0.7-2.6,0.9c-1.7,0.4-2.3-1.4-0.9-1.7s2-2,2.1-2.2
	c-0.1,0.1-0.5,0.8-2.6,1.7c-2.4,1-2.3-1.2-2.3-1.2l3.1-2.3c0,0,1-1.7-1,0c-1.2,1-2.7,1.7-4.3,1.9l-0.7,1l0.4,0.4l-0.3,0.3
	c1.7,0.8,2.8,2.6,2.8,4.5l14,11.3c0,0,5.9,4.1,7.9,7.9c0.8,1.5,1.1,3.2,1.1,4.9c-0.5,1.2-1.2,2.2-2.2,3c-1.4,1.2-2.6,2.5-3.6,4
	c1.5-0.8,2.9-1.8,4.3-2.8c1-0.9,3.5-1.7,2.4,0.4s-5.2,4.1-5.2,4.1c1.8,0.2,3.5-0.5,4.7-1.9c2.1-2.4,3.5-0.7,1.6,1s-2.9,2.9-4.5,3.1
	s2.4,0.9,3.6-0.3s2.1,0.3-0.2,1.9c-0.5,0.4-1.1,0.7-1.7,0.9c0.7,0.1,1.4,0.2,2,0.4c-0.4,0.4-0.8,0.9-1.3,1.2
	c-4.1,3.1-9.3-7.6-10-9.3s-10.7-9.3-12.4-10.4c-0.3-0.2-0.7-0.5-1.2-0.8c-0.1-0.7,0-1.3-1.1-1.4c-1.4-0.2,0.2-1.9,1.9-3.1
	c1-0.7,1.5-1.9,1.4-3.1l-0.9,1.2c0,0-3.8,2.8-4.1,3.5s-2.8-1.4,0-2.6c2.8-1.2,1.9-3.8,1.7-2.9s-3.5,2.9-4,3.3s-2.4-0.5-0.4-2.1
	c1.3-1,2.4-2.2,3.3-3.6c-1,0.9-2.1,1.7-3.3,2.4c-0.7,0.4-1.9,1.2-2.8,1.7l0,0l-1,0.7l3.5,3.8l-2.1,1c4.8,1.7,5.9,4.1,10.4,6.2
	c2.5,1,4.5,3,5.5,5.5c1,0,1.9,0.7,2.1,1.7c-4.5,5.2-3.1,0.7-3.1,0.7c-8.3,7.6-4.1,0.4-4.1,0.4c-0.8,0.9-1.8,1.6-2.9,2
	c-0.1-0.2-0.2-0.3-0.4-0.3c-0.5,0-3.5,2.1-4.5,1.4s-0.7-0.3,2.1-1.5s2.3-3.3,2.3-3.3l-0.4,0.5c-1,1-2.2,1.7-3.5,2.2
	c-1.9,0.7-2.4-1.4-1.7-1.4s3.4-2.1,3.4-2.1l1.4-1.7c0,0-1,0-1.2,0.5s-3.3,1.7-3.8,1.9c-0.6,0.1-1.3,0-1.9-0.2l-0.4-0.6
	c0.2-0.2,0.5-0.3,0.8-0.4c1.5-0.5,2.6-1.7,3.1-3.2c-0.2,0.9-2.9,1.7-3.8,2.4c-0.4,0.2-0.9,0.2-1.2-0.1l-0.6-0.5
	c-0.2-0.2-0.2-0.6,0-0.8c0.1-0.1,0.1-0.1,0.2-0.1c1.2-0.5,3.3-3.3,3.3-3.3c-1.4,0.9-2.8,1.7-4.3,2.4c-1,0.4-2.4-1.2-1.4-1.4
	s2.9-3.1,2.9-3.1s-2.6,1.9-4.1,1.9s2.2-4,2.2-4c-1.2,0.8-2.6,1.5-4,1.9c-1.7,0.4-1-1-1-1l2.8-3.3c-1.6,1.2-3.3,2.1-5.2,2.9
	c-0.3-0.1-0.6-0.3-0.9-0.4c0.6-0.8,1.3-1.6,2.1-2.2c1-0.7,1.9-1.5,2.8-2.4c-2.1,0.7-6.1-2.1-6.4-2.9s-2.6,0.3-2.6,0.3
	s-4.8,4-6.2,5.4c-0.8,0.7-1.6,1.3-2.5,1.7c-0.2-0.2-0.5-0.3-0.8-0.3c-1.9-0.4,8.5-8.5,8.5-8.5c-6.7,3.5-9,8.1-12.6,7.8s10-11,10-11
	c-7.1,4-14.1,11.9-17.8,14.1s-1.4-1.4-1.4-1.4s6.9-6.9,9.5-9s2.1-2.4,2.1-2.4c-1.9,0.5-9.7,7.6-12.9,10s-1.7-1.2-1.7-1.2l13.8-12.6
	c0,0-13.3,10-16.1,12.8s-1.9,0.2-1.4-0.5s7.4-7.9,7.4-7.9c-2.2,0.5-9.1,6.7-10.7,8.5s-1.4,1.2-1.7,0s6.6-7.4,6.6-7.4
	c-2.1,0.7-7.4,5.4-9.8,7.6s-3.3,2.4-3.3,1.2s7.3-8.8,7.3-8.8c-3.3,1.7-10,8.6-11.9,10.7c-0.5,0.6-1.2,1.2-1.9,1.5h-0.3
	c-0.9-0.3-1.3-1.1,0.7-2.9c3.8-3.6,13.1-13,13.1-13c-4.7,3.1-9.2,6.6-13.5,10.4c-4.4,3.9-5.3,4.9-5.4,5.1c-0.7,0.2-3.3,0.8-0.2-2.3
	c3.6-3.6,12.9-12.4,12.9-12.4c-6,4.2-11.7,8.9-17.1,13.8c0,0-2.1,2.9-3.1,1c0.5-1,1.2-1.9,2.1-2.6c1-0.7,7.1-6.7,7.1-6.7
	s-5,2.3-10.7,8.5c0,0-1.4,1.2-2.9,2.2c-0.8,0.1-1.5,0.2-2.3,0.4c-2.4,0.7-24.2,1-24.2,1v3.5c3.8-0.7,51.1-3.5,51.1-3.5
	c-0.7,2.1,1.4,4.1,1.4,4.1c3.4,9.3,10.7,5.2,10.7,5.2c0.7,9.3,12.4,7.9,12.4,7.9c4.5,9.7,13.5,5.9,13.5,5.9
	c6.2,11.4,17.6,3.5,17.6,3.5c7.6,5.2,11.4,1.7,13.8,0.7s1.7-5.9,1.7-5.9c6.9,4.1,11.4-4.5,11.4-4.5c8,3.5,10-6.6,10-6.6
	c5.2-0.7,8.3-6.2,8.3-6.2c3.1-0.4,6.6-3.5,6.6-3.5c11.4-0.7,68.7,4.5,68.7,4.5v-2.4C373.4,308.6,366.5,305.9,345.4,305.9z
	 M220.9,250.4c1.8-0.7,4.3-1.8,7.3-3.2c1.2,2.2-0.4,4.4-4.4,5.2C220.4,253.1,220.6,251.2,220.9,250.4z M295.9,283.1
	c-2.2-0.4-0.4-2.2,3.5-5.4c1.3-1.1,2-1.3,2.3-1.1c0.1,1.2-0.2,2.3-0.8,3.3l-0.6,0.3C300.2,280.2,298.1,283.5,295.9,283.1
	L295.9,283.1z M203.2,314.2c-1.4-0.4-1.8-2-2.1-3.6c0.9,0.3,1.8,0.7,2.6,1.2c0.8,0.5,1.6,1.2,2.4,1.8
	C205.2,314.2,204.2,314.4,203.2,314.2L203.2,314.2z M211.7,309c-1,0.3-1.9,0.8-2.6,1.6l-0.1,1c-0.4,0.2-0.8,0.4-1.3,0.6
	c-2.1-0.2-1.4-0.5-4.1-1.9s3.3-4,3.3-4c-1.5,0.2-2.9,0.6-4.1,1.4c-0.5,0.4-1.2,0.5-1.8,0.4c0-0.4-0.1-0.8-0.1-1.1c0-0.2,0-0.3,0-0.5
	c1.1-0.7,2.8-1.6,2.8-1.6l-2.7,0.6c0.2-0.7,0.4-1.3,0.6-2c1.5-0.6,3.6-1.3,4.1-1.5c0.9-0.4,3.3-0.5,6,1.7c1,0.8,1.6,1.9,1.8,3.1
	C212.8,307.5,212.2,308.2,211.7,309z M231.5,304.9c0.2-0.6,0.1-1.3-0.2-1.9c1.3-0.4,1.8,0,1.9,0.4
	C232.6,303.8,232,304.3,231.5,304.9L231.5,304.9z M232.9,301.2c-0.8,0.4-1.6,0.6-2.5,0.7l-0.3-0.2c2.5-2.9,5.5-5.3,8.9-7
	c1.7-0.5-0.3,2.1-0.3,2.1S234.3,300.4,232.9,301.2L232.9,301.2z M240.8,299.2c-0.4,0.3-1,0.8-1.6,1.1c-0.8,0.1-1.6,0.3-2.4,0.7
	c0.8-1.3,2.7-4.1,4.3-4.8C243.2,295.4,241.7,298.5,240.8,299.2L240.8,299.2z M294,311.1c-0.9,0.5-2.1,1.2-3.3-0.4
	c0.2-0.3,0.4-0.5,0.7-0.6c0.9-0.5,1.8-1,2.6-1.5c0.5-0.3,1-0.5,1.6-0.4C295.1,309.5,294.6,310.8,294,311.1z"/>
<path class="st6" d="M246,252.1c0.1-0.1,0.2-0.1,0.3-0.3C246.4,251.8,246.3,251.9,246,252.1z"/>
<path class="st6" d="M284.3,318.8l-0.9-0.1C283.5,318.7,283.6,319,284.3,318.8z"/>
<path class="st6" d="M278.1,284.1C278.2,284,278.1,284,278.1,284.1z"/>
<path class="st6" d="M278.1,284.1l0,0.1L278.1,284.1C278.1,284.2,278.1,284.1,278.1,284.1z"/>
<path class="st6" d="M297.4,274.7c-0.7,0.3-1.4,0.9-1.9,1.5C296.8,275.4,297.9,274.7,297.4,274.7z"/>
<path class="st6" d="M325.6,294.4c0,0,5.5-4,6.4-4.7S328.7,294.7,325.6,294.4z"/>
<path class="st6" d="M336.1,290.9c0,0-12.8,10.9-14.3,12.3l7.8,0.2c0,0,8.3-6.9,9.7-10.5c0,0-8.3,7.9-10.5,8.1s-2.8,0.7,0.2-1.9
	S336.1,291.6,336.1,290.9z"/>
<path class="st6" d="M346.5,290.5c0,0-11.7,11.6-14.7,12.8c0,0,6.2,1.7,7.8,0s9.1-6.9,11-10.9c0,0-11.9,9.8-13.3,10s-1.4-1,0.9-2.6
	S347,291.6,346.5,290.5z"/>
<path class="st6" d="M342.7,303.5c0,0,7.3-5.9,8.5-7.3s-0.7,1.9-0.7,1.9S345.8,303.7,342.7,303.5z"/>
<path class="st6" d="M352.9,296.4c0,0,0-2.1,2.9-3.8C355.8,292.6,354.1,295.9,352.9,296.4z"/>
<path class="st6" d="M347.7,303.9c0,0,8.3-5.4,12.1-10.2C359.8,293.7,352.3,305.2,347.7,303.9z"/>
<path class="st6" d="M352.5,304c0,0,8.8-5.7,12.3-9.5C364.8,294.5,356.3,306.3,352.5,304z"/>
<path class="st6" d="M357.9,304.4c3.9-2.2,7.4-5,10.5-8.1C368.4,296.3,362.9,305.7,357.9,304.4z"/>
<path class="st6" d="M363.6,304.9c0,0,7.4-5.5,9.5-7.8C373.1,297.1,366.8,306.4,363.6,304.9z"/>
<path class="st6" d="M368.7,305.7c1.6-1.1,3.1-2.3,4.5-3.6C374.1,301.1,373.9,306.6,368.7,305.7z"/>
<path class="st4" d="M258.4,318.4l-0.2-0.5l2.6-1.2c0,0-1.4,1.9,1.4,2.1s8.3-4,9.8-5.4s2.2,1.2,0.9,1.7s-4.1,4.1-6.7,4.7
	s1.5,0.9,4.7-1.7s6.2-3.3,3.5-0.3c-1.4,1.6-3.2,2.9-5.2,3.8c0,0,3.1,0,4.1-1.5s4.3-2.9,2.6-0.2s-3.3,2.6-3.3,2.6s1.7,0.5,2.6-0.4
	s2.1-1.7,2.3-0.9s-1,3.3-3.1,4.3s-5.2,1.2-7.1-0.5c-2.4-1.9-4.8-3.6-7.4-5.2C259.2,319.4,258.8,318.9,258.4,318.4z"/>
<path class="st4" d="M250.8,329.2c0,0,1-5.7,2.9-7.8s5-1.2,4.8-0.2s-5.4,3.8-5.4,3.8c0.9,0.5,2,0.4,2.8-0.4c1.6-1.2,5.7-4,4.7-1.4
	s-5.5,4.3-5.5,4.3s4-0.4,5.3-2.1s2.6-2.3,2.8-1s-5.5,4.7-5.5,4.7s4-0.2,4.3-1.2s4-3.8,2.8-0.9s-3.1,2.9-3.1,2.9s2.4-0.4,3.1-1.2
	s1.5,0.2,1.2,1.2s-2.9,3.1-3.5,3.3s-3.3,1-4.5,0.2S250.8,329.2,250.8,329.2z"/>
<path class="st4" d="M246.5,312.1c0,0,0-2.1,1-1.9c0.6,0.1,1.2,0.3,1.7,0.7c0,0,4.7,3.3,4,7.1c-0.6,2.6-1.7,5-3.3,7.1
	c0,0-0.4,3.1-0.9,3.8s-4.8,2.8-4.8,2.8c1.2-0.2,2.4-0.4,3.6-0.4c0.7,0.2,2.8,0.9,1.4,1.4s-8.3,2.4-9.8-1.7c0,0,5.2-0.7,6.2-2.9
	c-1.4,0.9-3.1,1.4-4.8,1.4c-2.9,0-2.9-1.4-1.7-1.5s5.9-1.2,7.1-2.6c0,0-4.7,1.2-5.5,0.9s-2.6-1.4-0.5-1.7s5.2-0.9,6-2.3
	s6.4-5.2,3.4-8.1S246.5,312.1,246.5,312.1z"/>
<path class="st4" d="M245,314.7l0.7-1.2c0,0,0.7-0.7,1.7,0.5s1.9,2.1,1.4,2.8s-2.4,0.7-2.4,0.7l1.2,0.9c0,0-0.9,2.1-1.4,2.1
	s-3.4-0.5-3.3-1.4s2.1-3.1,3.1-3.3s0.2-0.7,0.2-0.7L245,314.7z"/>
<path class="st4" d="M241.5,322c0,0,0.5-1.5,1.2-1.2S246,322.7,241.5,322z"/>
<path class="st4" d="M229.3,312.1c0.9,0.3,1.9-0.1,2.4-0.9c0.9-1.5,1.8-3,2.4-4.7c0,0,2.6-3.6,5.4-2.3s5.4,3.8,4,6s-2.8,6.7-7.1,5.2
	s-3.1-0.2-3.1-0.2l-5.7,1.6c0,0-0.9,1.4-0.4,1.5s1.4-0.5,3.1-0.9c1.4-0.3,2.9-0.4,4.3-0.5l0.7,0.2c-1.8,0.5-3.6,1.1-5.4,1.9
	c-1,0.5-2,0.8-3.1,1c0,0-0.9,1.5,1.7,0.7c1.2-0.5,2.5-0.8,3.8-0.9c0,0,4-0.7,4.7-1.4c-1.1,0.8-2.3,1.5-3.6,2.1
	c-1.5,0.5-2.9,1.2-4.1,2.1c0,0-0.2,0.5,1.9,0.2c1.4-0.3,2.8-0.9,4-1.7c0,0-1.2,3.5-4.7,3.1c-2-0.1-3.8-1-5.2-2.4
	c-0.8,0.5-1.1,1.6-0.6,2.4c0.1,0.2,0.3,0.4,0.6,0.6c1.9,1.5,3.8,2.4,4.8,2.4s5.2-1,6.2-2.9s13.3-14.2,8.8-19.2c0,0-5.2-5.7-10.5-1.6
	C232.3,306.1,230.5,309,229.3,312.1z"/>
<path class="st4" d="M230.1,314.9c0,0-0.4-1,0.3-1s2.1-1.6,2.1-1.6S233.6,314.9,230.1,314.9z"/>
<path class="st4" d="M240.1,312.6l-0.7-0.4l-0.9-0.3c0,0,2.2-1.5,2.9-1.5h0.7c0,0,0.5-1.9-0.2-2.4l-0.7-0.5h-0.7l-0.7,0.7l-0.5,0.7
	h-1.4l-0.5-0.7l1.6-0.5l1-0.7c0,0-1.6-1.4-2.2-1.2s-1.2-0.2-1.7,0.5s-1.4,1.9-1.4,1.9s-1.2,2.4-0.7,3.5s3.6,2.8,4.5,2.9
	S240.8,313,240.1,312.6z"/>
<path class="st4" d="M217.3,305.2c0,0,0.4,1,2.4,0s4.5,0.5,5,1.2s2.4,3.6,2.6,5.5s4-4.5,1.2-6.7s-4.8-4.1-9-2.1L217.3,305.2z"/>
<path class="st4" d="M216.1,310.1c0,0-0.3-1.4,1.4-2.9s3.1-2.1,4-1.4s5.5,3.5,4.8,6.2s-7.3,2.2-7.4,1.5S216.1,310.1,216.1,310.1z"/>
<path class="st4" d="M213.5,311.6c0,0,2.3-1,1.7,0.5c-0.4,1-1,1.8-1.9,2.4c0.8,0,1.5-0.1,2.3-0.4c0.5-0.3,2.4-1.5,2.2,0
	s-2.6,3.1-2.6,3.1c0.8,0.2,1.7,0.1,2.4-0.2c1.4-0.5,4.1-2.9,4.7-2.6s1.7-0.2,0.5,1l-2.4,2.5c0,0,1.9,0,2.4-0.9s3.1-2.4,3.1-2.4
	s1.9-0.3,0.9,0.9s-4.5,6-8.5,6s-7.1-4.5-7.1-5.5S212.9,311.8,213.5,311.6z"/>
<path class="st6" d="M220.8,312.6l1-1c0,0,1.2-1.5,1.2-2.1s0.9,0.7,0.7,1.4S220.8,312.6,220.8,312.6z"/>
<polygon class="st7" points="2294.9,130.6 2289.4,132.9 2282.8,135 2277.3,139.4 2272.9,142.7 2267.4,148.2 2264.1,153.7 
	2259.7,160.3 2256.4,166.9 2252,181.2 2248.7,198.8 2247.6,217.4 2248.7,237.2 2252,255.9 2256.4,271.2 2259.7,278.9 2264.1,285.5 
	2264.5,286 2299.7,129.9 "/>
<polygon class="st7" points="2254.2,316.3 2244.3,311.9 2236.6,306.4 2231.8,302.3 2211.4,443.7 2228.9,443.7 2257.3,317.8 "/>
<polygon class="st7" points="2275.1,118.6 2286.1,115.3 2297.1,114.2 2303.4,113.6 2314.6,63.6 2266.3,63.6 2257.4,125.3 
	2265.2,121.9 "/>
<polygon class="st7" points="2390.4,171.5 2335,307.3 2338.8,306.4 2349.8,300.9 2358.6,295.4 2365.1,311.9 2357.4,317.4 
	2345.4,321.8 2338.8,324 2330,326.2 2327.2,326.5 2279.5,443.7 2300.3,443.7 2390.4,267.6 "/>
<polygon class="st7" points="2467.2,117.6 2494.8,63.6 2434.3,63.6 2412.4,117.5 2465.1,117.5 "/>
<polygon class="st7" points="2448.6,132.8 2434.3,132.8 2434.3,181.8 2458.6,134.3 "/>
<polygon class="st7" points="2352,147.1 2351.6,146.8 2299.3,309.9 2305.8,310.8 2313.5,311.9 2320.1,310.8 2325.6,309.7 
	2330.1,308.5 2390.4,160.7 2390.4,117.5 2408,117.5 2429.9,63.6 2378.3,63.6 2358.6,125.3 2358.6,154.8 "/>
<polygon class="st7" points="2320.1,327.3 2308,327.3 2295.9,327.3 2293.8,327 2256.4,443.7 2275.1,443.7 2322.6,327 "/>
<polygon class="st7" points="2221.3,292.1 2215.8,284.4 2210.3,275.6 2205.9,265.8 2203.8,259.6 2191.6,443.7 2208.1,443.7 
	2228.5,299.4 "/>
<polygon class="st7" points="2216.9,159.2 2222.3,151.5 2230.1,143.8 2237.7,137.2 2246.5,130.6 2252.9,127.5 2261.9,63.6 
	2216.9,63.6 2209.6,172.6 2211.4,169.1 "/>
<polygon class="st7" points="2200.4,244.9 2198.2,233.9 2198.2,221.8 2199.3,209.7 2200.4,198.8 2202.6,188.9 2204.9,183.2 
	2212.5,63.6 2167.4,63.6 2167.4,443.7 2188.3,443.7 2200.8,247 "/>
<polygon class="st7" points="2268.5,291 2272.9,296.5 2278.4,300.9 2283.9,304.2 2290.4,307.5 2295.9,309 2348.3,144.2 
	2346.5,142.7 2342.1,138.3 2335.5,135 2327.8,131.7 2319,129.5 2309.1,129.5 2303.3,129.5 2267.6,289.9 "/>
<polygon class="st7" points="2321.2,114.2 2334.4,116.4 2346.5,118.6 2355.4,121.8 2373.9,63.6 2317.9,63.6 2306.9,113.3 
	2309.1,113.1 "/>
<polygon class="st7" points="2285,326.2 2274,324 2263,320.7 2260.9,319.6 2233.4,443.7 2253.1,443.7 2290.3,326.7 "/>
<polygon class="st7" points="2423.5,324 2344.3,443.7 2375,443.7 2471.6,323.9 2470.6,324 "/>
<polygon class="st7" points="2517.8,259.2 2520,248.2 2522.2,235 2522.2,220.7 2522.2,206.4 2520,193.3 2517.8,182.3 2517.6,181.7 
	2434.4,307.5 2448.6,307.5 2464,305.3 2471.7,303.1 2479.4,300.9 2486,298.7 2492.6,294.3 2498.9,290.1 2510.6,275.6 2513.4,268 "/>
<polygon class="st7" points="2555.2,159.2 2560.6,168 2565.1,179 2568.4,191.1 2570,201.9 2681.5,63.6 2595.8,63.6 2543.3,143 
	2549.7,150.4 "/>
<polygon class="st7" points="2434.3,301 2516.2,177.3 2514.5,172.4 2510.1,163.6 2504.6,157 2499.1,150.4 2492.6,146 2486,141.6 
	2479.4,138.3 2471.7,136.1 2464,135.1 2462.7,134.9 2434.3,190.3 "/>
<polygon class="st7" points="2390.4,324 2390.4,276.2 2304.7,443.7 2339.9,443.7 2419.1,324 "/>
<polygon class="st7" points="2491.5,119.7 2501.3,121.8 2510.1,124.1 2518.9,127.3 2526.6,131.7 2535.4,137.2 2540.4,140.8 
	2591.4,63.6 2499.1,63.6 2471.4,117.9 2482.7,118.6 "/>
<polygon class="st7" points="2724.3,131.7 2715.5,129.5 2705.6,129.5 2699.1,129.5 2692.5,130.6 2685.9,132.9 2680.4,135 
	2673.8,139.4 2669.4,142.7 2665,148.2 2660.6,153.7 2656.2,160.3 2652.9,166.9 2648.5,181.2 2645.2,198.8 2644.2,216.3 
	2726.6,132.7 "/>
<polygon class="st7" points="2596.9,244.9 2595.8,233.9 2594.7,221.8 2595.8,209.7 2596.9,198.8 2600.2,188.9 2603.5,177.9 
	2607.9,169.1 2613.4,159.2 2620,151.5 2626.6,143.8 2634.3,137.2 2643,130.6 2651.8,126.3 2661.7,121.9 2671.6,118.6 2682.6,115.3 
	2693.6,114.2 2705.6,113.1 2718.8,114.2 2730.9,116.4 2741,118.1 2794.6,63.6 2685.9,63.6 2570.5,207.2 2570.5,219.6 2570.5,233.9 
	2568.4,247.1 2565.1,259.2 2560.6,270.1 2555.2,278.9 2549.7,287.7 2543.1,295.4 2535.4,302 2527.7,307.5 2520,311.9 2511.2,316.3 
	2502.4,318.5 2494.8,320.7 2486,322.9 2477.1,323.5 2380.5,443.7 2420.1,443.7 2601,260.1 2599.1,255.9 "/>
<polyline class="st7" points="2796.8,66.9 2745.4,119.1 2755.1,123 2755.1,154.8 2748.5,147.1 2744.1,142.7 2738.6,138.3 2732,135 
	2730.4,134.3 2644.4,221.6 2645.2,237.2 2648.5,255.9 2652.9,271.2 2656.2,278.9 2660.6,285.5 2665,291 2669.4,296.5 2673.8,300 
	2796.8,202 "/>
<polyline class="st7" points="2796.8,311.9 2585.9,443.7 2716.6,443.7 2796.8,406.3 2796.8,410.7 2726.5,443.7 2796.8,443.7 "/>
<polyline class="st7" points="2796.8,207.5 2677.8,302.3 2681.5,304.2 2687,307.5 2694.7,309.7 2702.4,310.8 2710,311.9 
	2716.6,310.8 2723.2,309.7 2735.3,306.4 2746.3,300.9 2755.1,295.4 2762.8,311.9 2754,317.4 2743,321.8 2735.3,324 2726.5,326.2 
	2716.6,327.3 2704.6,327.3 2692.5,327.3 2681.5,326.2 2670.5,324 2660.6,320.7 2656.8,319 2500.3,443.7 2579.4,443.7 2796.8,307.5 
	"/>
<polygon class="st7" points="2641.9,311.9 2633.1,306.4 2625.5,299.8 2618.9,292.1 2612.3,284.4 2606.8,275.6 2603.5,265.8 
	2602.7,263.9 2425.6,443.7 2493.7,443.7 2652.5,317.1 2650.7,316.3 "/>
<g class="st8">
	<path class="st9" d="M2197.1,480.4l3.9,5.8l-0.5,0.4c-0.4-0.4-0.7-0.5-0.9-0.5s-0.9,0.3-2.1,1c-2.4,1.4-4.3,2.3-5.9,2.7
		s-3.5,0.7-5.7,0.7c-4.4,0-8-1-10.9-3.1c-1.7-1.2-3-2.7-3.9-4.5c-1.1-2.1-1.7-4.3-1.7-6.8c0-3.4,1-6.3,3-8.8c3-3.8,7.5-5.6,13.5-5.6
		c2.2,0,4.1,0.2,5.7,0.7s3.6,1.4,5.9,2.7c1.1,0.6,1.8,1,2.1,1s0.6-0.2,0.9-0.5l0.5,0.4l-3.9,5.8l-0.6-0.4c0-0.2,0-0.4,0-0.6
		c0-0.4-0.2-0.8-0.5-1.1c-0.3-0.3-0.9-0.8-1.8-1.3c-2.4-1.4-5-2-7.7-2c-3.2,0-5.7,0.8-7.6,2.4c-2.2,1.9-3.4,4.3-3.4,7.3
		c0,3,1.1,5.5,3.4,7.3c1.9,1.6,4.4,2.4,7.6,2.4c2.7,0,5.3-0.7,7.7-2.1c0.9-0.5,1.5-0.9,1.8-1.3c0.3-0.3,0.5-0.7,0.5-1.1
		c0-0.2,0-0.3,0-0.5L2197.1,480.4z"/>
	<path class="st9" d="M2213.2,480.2v5.6h14.6c0.4,0,0.7-0.1,1-0.3c0.2-0.2,0.4-0.5,0.5-1h0.6v6.8h-0.6c-0.1-0.5-0.3-0.8-0.5-1
		s-0.6-0.3-1-0.3h-21.4v-0.6c0.5-0.1,0.8-0.3,1-0.5c0.2-0.2,0.3-0.6,0.3-1v-18.8c0-0.4-0.1-0.7-0.3-1s-0.5-0.4-1-0.6V467h20.8
		c0.4,0,0.8-0.1,1-0.3c0.2-0.2,0.4-0.5,0.5-1h0.6v6.8h-0.6c-0.1-0.5-0.3-0.8-0.5-1c-0.2-0.2-0.6-0.3-1-0.3h-13.9v5h8.7
		c0.4,0,0.7-0.1,1-0.3c0.2-0.2,0.4-0.5,0.6-1h0.6v6.6h-0.6c-0.1-0.5-0.3-0.8-0.5-1c-0.2-0.2-0.6-0.3-1-0.3H2213.2z"/>
	<path class="st9" d="M2241.3,474.9v13c0,0.4,0.1,0.8,0.3,1c0.2,0.2,0.5,0.4,1,0.6v0.6h-7.6v-0.6c0.5-0.1,0.8-0.3,1-0.5
		c0.2-0.2,0.3-0.6,0.3-1v-18.8c0-0.4-0.1-0.7-0.3-1s-0.5-0.4-1-0.6V467h8.8v0.6c-0.6,0.2-0.9,0.4-0.9,0.8c0,0.3,0.2,0.7,0.7,1.1
		l12.3,12.2v-12.7c0-0.4-0.1-0.7-0.3-1c-0.2-0.2-0.5-0.4-1-0.5V467h7.6v0.6c-0.5,0.1-0.8,0.3-1,0.5s-0.3,0.5-0.3,1v18.8
		c0,0.4,0.1,0.7,0.3,1s0.5,0.4,1,0.6v0.6h-8.2v-0.6c0.6-0.1,0.9-0.4,0.9-0.8c0-0.2-0.1-0.4-0.2-0.6c-0.2-0.2-0.5-0.6-1.1-1.2
		L2241.3,474.9z"/>
	<path class="st9" d="M2280.6,471.2v16.7c0,0.4,0.1,0.7,0.3,1s0.5,0.4,1,0.6v0.6h-8.1v-0.6c0.5-0.1,0.8-0.3,1-0.5s0.3-0.6,0.3-1
		v-16.7h-6.8c-0.4,0-0.8,0.1-1,0.3s-0.4,0.5-0.5,1h-0.6v-6.8h0.6c0.1,0.5,0.3,0.8,0.5,1c0.2,0.2,0.6,0.3,1,0.3h19
		c0.4,0,0.8-0.1,1-0.3c0.2-0.2,0.4-0.5,0.5-1h0.6v6.8h-0.6c-0.1-0.5-0.3-0.8-0.5-1s-0.6-0.3-1-0.3H2280.6z"/>
	<path class="st9" d="M2300.5,480.2v5.6h14.6c0.4,0,0.7-0.1,1-0.3c0.2-0.2,0.4-0.5,0.5-1h0.6v6.8h-0.6c-0.1-0.5-0.3-0.8-0.5-1
		s-0.6-0.3-1-0.3h-21.4v-0.6c0.5-0.1,0.8-0.3,1-0.5c0.2-0.2,0.3-0.6,0.3-1v-18.8c0-0.4-0.1-0.7-0.3-1s-0.5-0.4-1-0.6V467h20.8
		c0.4,0,0.8-0.1,1-0.3c0.2-0.2,0.4-0.5,0.5-1h0.6v6.8h-0.6c-0.1-0.5-0.3-0.8-0.5-1c-0.2-0.2-0.6-0.3-1-0.3h-13.9v5h8.7
		c0.4,0,0.7-0.1,1-0.3c0.2-0.2,0.4-0.5,0.6-1h0.6v6.6h-0.6c-0.1-0.5-0.3-0.8-0.5-1c-0.2-0.2-0.6-0.3-1-0.3H2300.5z"/>
	<path class="st9" d="M2329.2,480.6v7.3c0,0.4,0.1,0.7,0.3,1s0.5,0.4,1,0.6v0.6h-8.1v-0.6c0.5-0.1,0.8-0.3,1-0.5
		c0.2-0.2,0.3-0.6,0.3-1v-18.8c0-0.4-0.1-0.7-0.3-1s-0.5-0.4-1-0.6V467h15.1c2,0,3.4,0.1,4.5,0.3c1,0.2,1.9,0.6,2.7,1.1
		c1.7,1.1,2.5,2.8,2.5,5.3c0,1.9-0.5,3.3-1.5,4.4c-1,1-2.7,1.8-4.9,2.3l4.3,6.1c0.8,1.1,1.4,1.9,1.9,2.3c0.5,0.4,1,0.7,1.6,0.8v0.6
		h-9.7v-0.6c0.7-0.2,1.1-0.5,1.1-0.9c0-0.3-0.2-0.8-0.7-1.4l-4.6-6.6H2329.2z M2329.2,476.4h8.3c1.3,0,2.2-0.1,2.8-0.4
		c0.8-0.4,1.3-1.1,1.3-2.2c0-1-0.3-1.6-0.9-2c-0.6-0.4-1.7-0.6-3.2-0.6h-8.3V476.4z"/>
	<path class="st9" d="M2445,480.2v7.7c0,0.4,0.1,0.7,0.3,1c0.2,0.2,0.5,0.4,1,0.6v0.6h-8.1v-0.6c0.5-0.1,0.8-0.3,1-0.5
		c0.2-0.2,0.3-0.6,0.3-1v-18.8c0-0.4-0.1-0.7-0.3-1s-0.5-0.4-1-0.6V467h20.6c0.4,0,0.8-0.1,1-0.3c0.2-0.2,0.4-0.5,0.5-1h0.6v6.8
		h-0.6c-0.1-0.5-0.3-0.8-0.5-1c-0.2-0.2-0.6-0.3-1-0.3H2445v5h8.7c0.4,0,0.8-0.1,1-0.3s0.4-0.5,0.6-1h0.6v6.6h-0.6
		c-0.1-0.5-0.3-0.8-0.5-1c-0.2-0.2-0.6-0.3-1-0.3H2445z"/>
	<path class="st9" d="M2478,466.5c3.7,0,6.7,0.9,9.1,2.8c2.9,2.2,4.4,5.4,4.4,9.4c0,3.8-1.5,6.8-4.4,9c-2.4,1.9-5.4,2.8-9.1,2.8
		c-3.7,0-6.7-0.9-9.1-2.8c-2.9-2.2-4.4-5.3-4.4-9.2c0-3.9,1.5-7,4.4-9.2C2471.4,467.5,2474.4,466.6,2478,466.5z M2478,470.9
		c-2.4,0-4.3,0.8-5.8,2.3c-1.4,1.4-2.1,3.2-2.1,5.4c0,2.1,0.7,3.9,2.1,5.3c1.5,1.5,3.4,2.3,5.8,2.3c2.4,0,4.3-0.8,5.8-2.3
		c1.4-1.4,2.1-3.2,2.1-5.2c0-2.3-0.7-4.1-2.1-5.5C2482.3,471.7,2480.4,470.9,2478,470.9z"/>
	<path class="st9" d="M2503.5,480.6v7.3c0,0.4,0.1,0.7,0.3,1s0.5,0.4,1,0.6v0.6h-8.1v-0.6c0.5-0.1,0.8-0.3,1-0.5
		c0.2-0.2,0.3-0.6,0.3-1v-18.8c0-0.4-0.1-0.7-0.3-1s-0.5-0.4-1-0.6V467h15.1c2,0,3.4,0.1,4.5,0.3c1,0.2,1.9,0.6,2.7,1.1
		c1.7,1.1,2.5,2.8,2.5,5.3c0,1.9-0.5,3.3-1.5,4.4c-1,1-2.7,1.8-4.9,2.3l4.3,6.1c0.8,1.1,1.4,1.9,1.9,2.3c0.5,0.4,1,0.7,1.6,0.8v0.6
		h-9.7v-0.6c0.7-0.2,1.1-0.5,1.1-0.9c0-0.3-0.2-0.8-0.7-1.4l-4.6-6.6H2503.5z M2503.5,476.4h8.3c1.3,0,2.2-0.1,2.8-0.4
		c0.8-0.4,1.3-1.1,1.3-2.2c0-1-0.3-1.6-0.9-2c-0.6-0.4-1.7-0.6-3.2-0.6h-8.3V476.4z"/>
	<path class="st9" d="M2609.1,487.9v-23.7c0-0.4-0.1-0.7-0.3-1s-0.5-0.4-1-0.5V462h15.6c3.4,0,6,0.4,7.9,1.2c2.6,1.1,4.6,3,5.8,5.6
		c1,2.1,1.5,4.5,1.5,7.2c0,4.8-1.5,8.5-4.5,11c-1.2,1.1-2.7,1.8-4.4,2.3c-1.7,0.5-3.8,0.7-6.4,0.7h-15.6v-0.7c0.5-0.1,0.8-0.3,1-0.5
		S2609.1,488.3,2609.1,487.9z M2615.2,485.4h7.7c2.4,0,4.3-0.3,5.5-1c2.6-1.4,4-4.2,4-8.4c0-3-0.7-5.3-2.1-6.9
		c-0.8-0.9-1.8-1.5-2.9-1.9s-2.6-0.6-4.5-0.6h-7.7V485.4z"/>
	<path class="st9" d="M2651,469.1v18.8c0,0.4,0.1,0.7,0.3,1s0.5,0.4,1,0.6v0.6h-8.1v-0.6c0.5-0.1,0.8-0.3,1-0.5
		c0.2-0.2,0.3-0.6,0.3-1v-18.8c0-0.4-0.1-0.7-0.3-1s-0.5-0.4-1-0.6V467h8.1v0.6c-0.5,0.1-0.8,0.3-1,0.5S2651,468.7,2651,469.1z"/>
	<path class="st9" d="M2680.1,469.1l-2.8,5.4l-0.5-0.3c0-0.5-0.1-0.8-0.4-1.1c-0.8-0.7-1.9-1.3-3.4-1.7s-3.1-0.7-4.6-0.7
		c-1.3,0-2.5,0.2-3.5,0.6c-1.5,0.5-2.2,1.3-2.2,2.3c0,0.7,0.4,1.1,1.1,1.4s2.1,0.5,4.1,0.7l3.2,0.2c2.8,0.2,5,0.8,6.5,1.6
		c0.8,0.5,1.5,1.1,2,2c0.7,1,1,2.2,1,3.5c0,2.3-1.1,4.2-3.2,5.5c-2,1.3-4.7,1.9-8.2,1.9c-3.5,0-6.8-0.7-10-2.2
		c-0.2-0.1-0.4-0.1-0.6-0.1c-0.3,0-0.5,0.2-0.8,0.5l-0.5-0.2l2.4-5.6l0.5,0.2c0,0.1,0,0.1,0,0.2c0,0.4,0.1,0.7,0.4,0.9
		c0.7,0.6,1.9,1.1,3.5,1.6c1.7,0.4,3.3,0.7,5,0.7c1.4,0,2.7-0.2,3.9-0.6c1.4-0.5,2.1-1.2,2.1-2.3c0-0.8-0.5-1.4-1.5-1.7
		c-0.7-0.2-1.8-0.4-3.5-0.6l-3.2-0.3c-1.7-0.1-3.1-0.3-4-0.5s-1.7-0.5-2.4-1c-0.9-0.5-1.6-1.3-2.1-2.2s-0.7-2-0.7-3.1
		c0-2.5,1.1-4.4,3.2-5.8c2-1.2,4.4-1.8,7.3-1.8c1.6,0,3,0.2,4.4,0.5c1.4,0.3,3,1,4.9,1.8c0.6,0.3,1,0.4,1.2,0.4s0.5-0.2,0.8-0.5
		L2680.1,469.1z"/>
	<path class="st9" d="M2692.4,480.2v5.6h14.6c0.4,0,0.7-0.1,1-0.3c0.2-0.2,0.4-0.5,0.5-1h0.6v6.8h-0.6c-0.1-0.5-0.3-0.8-0.5-1
		s-0.6-0.3-1-0.3h-21.4v-0.6c0.5-0.1,0.8-0.3,1-0.5c0.2-0.2,0.3-0.6,0.3-1v-18.8c0-0.4-0.1-0.7-0.3-1s-0.5-0.4-1-0.6V467h20.8
		c0.4,0,0.8-0.1,1-0.3c0.2-0.2,0.4-0.5,0.5-1h0.6v6.8h-0.6c-0.1-0.5-0.3-0.8-0.5-1c-0.2-0.2-0.6-0.3-1-0.3h-13.9v5h8.7
		c0.4,0,0.7-0.1,1-0.3c0.2-0.2,0.4-0.5,0.6-1h0.6v6.6h-0.6c-0.1-0.5-0.3-0.8-0.5-1c-0.2-0.2-0.6-0.3-1-0.3H2692.4z"/>
	<path class="st9" d="M2731.6,484.3H2721l-1.2,2.5c-0.3,0.6-0.4,1.1-0.4,1.4c0,0.7,0.4,1.1,1.3,1.3v0.6h-8.4v-0.6
		c0.5-0.1,0.9-0.2,1.2-0.5c0.3-0.2,0.6-0.7,0.9-1.4l8.4-17c0.3-0.6,0.5-1.2,0.5-1.7c0-0.6-0.4-1-1.1-1.3V467h8.9v0.6
		c-0.8,0.3-1.1,0.8-1.1,1.4c0,0.5,0.2,1,0.5,1.7l8.7,16.5c0.5,0.9,0.9,1.5,1.1,1.7c0.3,0.3,0.7,0.5,1.3,0.6v0.6h-9.4v-0.6
		c0.9-0.1,1.3-0.6,1.3-1.2c0-0.4-0.2-0.9-0.5-1.6L2731.6,484.3z M2730,481l-3.8-7.4l-3.6,7.4H2730z"/>
	<path class="st9" d="M2767.1,469.1l-2.8,5.4l-0.5-0.3c0-0.5-0.1-0.8-0.4-1.1c-0.8-0.7-1.9-1.3-3.4-1.7s-3.1-0.7-4.6-0.7
		c-1.3,0-2.5,0.2-3.5,0.6c-1.5,0.5-2.2,1.3-2.2,2.3c0,0.7,0.4,1.1,1.1,1.4s2.1,0.5,4.1,0.7l3.2,0.2c2.8,0.2,5,0.8,6.5,1.6
		c0.8,0.5,1.5,1.1,2,2c0.7,1,1,2.2,1,3.5c0,2.3-1.1,4.2-3.2,5.5c-2,1.3-4.7,1.9-8.2,1.9c-3.5,0-6.8-0.7-10-2.2
		c-0.2-0.1-0.4-0.1-0.6-0.1c-0.3,0-0.5,0.2-0.8,0.5l-0.5-0.2l2.4-5.6l0.5,0.2c0,0.1,0,0.1,0,0.2c0,0.4,0.1,0.7,0.4,0.9
		c0.7,0.6,1.9,1.1,3.5,1.6c1.7,0.4,3.3,0.7,5,0.7c1.4,0,2.7-0.2,3.9-0.6c1.4-0.5,2.1-1.2,2.1-2.3c0-0.8-0.5-1.4-1.5-1.7
		c-0.7-0.2-1.8-0.4-3.5-0.6l-3.2-0.3c-1.7-0.1-3.1-0.3-4-0.5s-1.7-0.5-2.4-1c-0.9-0.5-1.6-1.3-2.1-2.2s-0.7-2-0.7-3.1
		c0-2.5,1.1-4.4,3.2-5.8c2-1.2,4.4-1.8,7.3-1.8c1.6,0,3,0.2,4.4,0.5c1.4,0.3,3,1,4.9,1.8c0.6,0.3,0.9,0.4,1.2,0.4s0.5-0.2,0.8-0.5
		L2767.1,469.1z"/>
	<path class="st9" d="M2779.4,480.2v5.6h14.6c0.4,0,0.8-0.1,1-0.3c0.2-0.2,0.4-0.5,0.5-1h0.6v6.8h-0.6c-0.1-0.5-0.3-0.8-0.5-1
		s-0.6-0.3-1-0.3h-21.4v-0.6c0.5-0.1,0.8-0.3,1-0.5c0.2-0.2,0.3-0.6,0.3-1v-18.8c0-0.4-0.1-0.7-0.3-1s-0.5-0.4-1-0.6V467h20.8
		c0.4,0,0.8-0.1,1-0.3c0.2-0.2,0.4-0.5,0.5-1h0.6v6.8h-0.6c-0.1-0.5-0.3-0.8-0.5-1c-0.2-0.2-0.6-0.3-1-0.3h-13.9v5h8.7
		c0.4,0,0.7-0.1,1-0.3c0.2-0.2,0.4-0.5,0.6-1h0.6v6.6h-0.6c-0.1-0.5-0.3-0.8-0.5-1c-0.2-0.2-0.6-0.3-1-0.3H2779.4z"/>
</g>
<g class="st8">
	<path class="st9" d="M2197.1,521.4l3.9,5.8l-0.5,0.4c-0.4-0.4-0.7-0.5-0.9-0.5s-0.9,0.3-2.1,1c-2.4,1.4-4.3,2.3-5.9,2.7
		s-3.5,0.7-5.7,0.7c-4.4,0-8-1-10.9-3.1c-1.7-1.2-3-2.7-3.9-4.5c-1.1-2.1-1.7-4.3-1.7-6.8c0-3.4,1-6.3,3-8.8c3-3.8,7.5-5.6,13.5-5.6
		c2.2,0,4.1,0.2,5.7,0.7s3.6,1.4,5.9,2.7c1.1,0.6,1.8,1,2.1,1s0.6-0.2,0.9-0.5l0.5,0.4l-3.9,5.8l-0.6-0.4c0-0.2,0-0.4,0-0.6
		c0-0.4-0.2-0.8-0.5-1.1c-0.3-0.3-0.9-0.8-1.8-1.3c-2.4-1.4-5-2-7.7-2c-3.2,0-5.7,0.8-7.6,2.4c-2.2,1.9-3.4,4.3-3.4,7.3
		c0,3,1.1,5.5,3.4,7.3c1.9,1.6,4.4,2.4,7.6,2.4c2.7,0,5.3-0.7,7.7-2.1c0.9-0.5,1.5-0.9,1.8-1.3c0.3-0.3,0.5-0.7,0.5-1.1
		c0-0.2,0-0.3,0-0.5L2197.1,521.4z"/>
	<path class="st9" d="M2219.3,507.5c3.7,0,6.7,0.9,9.1,2.8c2.9,2.2,4.4,5.4,4.4,9.4c0,3.8-1.5,6.8-4.4,9c-2.4,1.9-5.4,2.8-9.1,2.8
		c-3.7,0-6.7-0.9-9.1-2.8c-2.9-2.2-4.4-5.3-4.4-9.2c0-3.9,1.5-7,4.4-9.2C2212.7,508.5,2215.7,507.6,2219.3,507.5z M2219.3,511.9
		c-2.4,0-4.3,0.8-5.8,2.3c-1.4,1.4-2.1,3.2-2.1,5.4c0,2.1,0.7,3.9,2.1,5.3c1.5,1.5,3.4,2.3,5.8,2.3c2.4,0,4.3-0.8,5.8-2.3
		c1.4-1.4,2.1-3.2,2.1-5.2c0-2.3-0.7-4.1-2.1-5.5C2223.6,512.7,2221.7,511.9,2219.3,511.9z"/>
	<path class="st9" d="M2244.3,515.9v13c0,0.4,0.1,0.8,0.3,1c0.2,0.2,0.5,0.4,1,0.6v0.6h-7.6v-0.6c0.5-0.1,0.8-0.3,1-0.5
		c0.2-0.2,0.3-0.6,0.3-1v-18.8c0-0.4-0.1-0.7-0.3-1s-0.5-0.4-1-0.6V508h8.8v0.6c-0.6,0.2-0.9,0.4-0.9,0.8c0,0.3,0.2,0.7,0.7,1.1
		l12.3,12.2v-12.7c0-0.4-0.1-0.7-0.3-1c-0.2-0.2-0.5-0.4-1-0.5V508h7.6v0.6c-0.5,0.1-0.8,0.3-1,0.5s-0.3,0.5-0.3,1v18.8
		c0,0.4,0.1,0.7,0.3,1s0.5,0.4,1,0.6v0.6h-8.2v-0.6c0.6-0.1,0.9-0.4,0.9-0.8c0-0.2-0.1-0.4-0.2-0.6c-0.2-0.2-0.5-0.6-1.1-1.2
		L2244.3,515.9z"/>
	<path class="st9" d="M2283.6,512.2v16.7c0,0.4,0.1,0.7,0.3,1s0.5,0.4,1,0.6v0.6h-8.1v-0.6c0.5-0.1,0.8-0.3,1-0.5s0.3-0.6,0.3-1
		v-16.7h-6.8c-0.4,0-0.8,0.1-1,0.3s-0.4,0.5-0.5,1h-0.6v-6.8h0.6c0.1,0.5,0.3,0.8,0.5,1c0.2,0.2,0.6,0.3,1,0.3h19
		c0.4,0,0.8-0.1,1-0.3c0.2-0.2,0.4-0.5,0.5-1h0.6v6.8h-0.6c-0.1-0.5-0.3-0.8-0.5-1s-0.6-0.3-1-0.3H2283.6z"/>
	<path class="st9" d="M2303.3,521.6v7.3c0,0.4,0.1,0.7,0.3,1s0.5,0.4,1,0.6v0.6h-8.1v-0.6c0.5-0.1,0.8-0.3,1-0.5
		c0.2-0.2,0.3-0.6,0.3-1v-18.8c0-0.4-0.1-0.7-0.3-1s-0.5-0.4-1-0.6V508h15.1c2,0,3.4,0.1,4.5,0.3c1,0.2,1.9,0.6,2.7,1.1
		c1.7,1.1,2.5,2.8,2.5,5.3c0,1.9-0.5,3.3-1.5,4.4c-1,1-2.7,1.8-4.9,2.3l4.3,6.1c0.8,1.1,1.4,1.9,1.9,2.3c0.5,0.4,1,0.7,1.6,0.8v0.6
		h-9.7v-0.6c0.7-0.2,1.1-0.5,1.1-0.9c0-0.3-0.2-0.8-0.7-1.4l-4.6-6.6H2303.3z M2303.3,517.4h8.3c1.3,0,2.2-0.1,2.8-0.4
		c0.8-0.4,1.3-1.1,1.3-2.2c0-1-0.3-1.6-0.9-2c-0.6-0.4-1.7-0.6-3.2-0.6h-8.3V517.4z"/>
	<path class="st9" d="M2339.4,507.5c3.7,0,6.7,0.9,9.1,2.8c2.9,2.2,4.4,5.4,4.4,9.4c0,3.8-1.5,6.8-4.4,9c-2.4,1.9-5.4,2.8-9.1,2.8
		s-6.7-0.9-9.1-2.8c-2.9-2.2-4.4-5.3-4.4-9.2c0-3.9,1.5-7,4.4-9.2C2332.8,508.5,2335.8,507.6,2339.4,507.5z M2339.4,511.9
		c-2.4,0-4.3,0.8-5.8,2.3c-1.4,1.4-2.1,3.2-2.1,5.4c0,2.1,0.7,3.9,2.1,5.3c1.5,1.5,3.4,2.3,5.8,2.3c2.4,0,4.3-0.8,5.8-2.3
		c1.4-1.4,2.1-3.2,2.1-5.2c0-2.3-0.7-4.1-2.1-5.5C2343.7,512.7,2341.8,511.9,2339.4,511.9z"/>
	<path class="st9" d="M2364.9,526.8h12.9c0.4,0,0.8-0.1,1-0.3s0.4-0.5,0.6-1h0.6v6.8h-0.6c-0.1-0.5-0.3-0.8-0.5-1
		c-0.2-0.2-0.6-0.3-1-0.3h-19.7v-0.6c0.5-0.1,0.8-0.3,1-0.5c0.2-0.2,0.3-0.6,0.3-1v-18.8c0-0.4-0.1-0.7-0.3-1s-0.5-0.4-1-0.6V508
		h8.1v0.6c-0.5,0.1-0.8,0.3-1,0.5c-0.2,0.2-0.3,0.6-0.3,1V526.8z"/>
	<path class="st9" d="M2422.7,525.3h-10.6l-1.2,2.5c-0.3,0.6-0.4,1.1-0.4,1.4c0,0.7,0.4,1.1,1.3,1.3v0.6h-8.4v-0.6
		c0.5-0.1,0.9-0.2,1.2-0.5c0.3-0.2,0.6-0.7,0.9-1.4l8.4-17c0.3-0.6,0.5-1.2,0.5-1.7c0-0.6-0.4-1-1.1-1.3V508h8.9v0.6
		c-0.8,0.3-1.1,0.8-1.1,1.4c0,0.5,0.2,1,0.5,1.7l8.7,16.5c0.5,0.9,0.9,1.5,1.1,1.7c0.3,0.3,0.7,0.5,1.3,0.6v0.6h-9.4v-0.6
		c0.9-0.1,1.3-0.6,1.3-1.2c0-0.4-0.2-0.9-0.5-1.6L2422.7,525.3z M2421,522l-3.8-7.4l-3.6,7.4H2421z"/>
	<path class="st9" d="M2442.4,515.9v13c0,0.4,0.1,0.8,0.3,1c0.2,0.2,0.5,0.4,1,0.6v0.6h-7.6v-0.6c0.5-0.1,0.8-0.3,1-0.5
		c0.2-0.2,0.3-0.6,0.3-1v-18.8c0-0.4-0.1-0.7-0.3-1s-0.5-0.4-1-0.6V508h8.8v0.6c-0.6,0.2-0.9,0.4-0.9,0.8c0,0.3,0.2,0.7,0.7,1.1
		l12.3,12.2v-12.7c0-0.4-0.1-0.7-0.3-1c-0.2-0.2-0.5-0.4-1-0.5V508h7.6v0.6c-0.5,0.1-0.8,0.3-1,0.5s-0.3,0.5-0.3,1v18.8
		c0,0.4,0.1,0.7,0.3,1s0.5,0.4,1,0.6v0.6h-8.2v-0.6c0.6-0.1,0.9-0.4,0.9-0.8c0-0.2-0.1-0.4-0.2-0.6c-0.2-0.2-0.5-0.6-1.1-1.2
		L2442.4,515.9z"/>
	<path class="st9" d="M2470.3,528.9v-18.8c0-0.4-0.1-0.7-0.3-1s-0.5-0.4-1-0.6V508h13.5c2.8,0,5,0.3,6.6,1c2.3,1,3.9,2.6,4.9,4.9
		c0.7,1.6,1,3.4,1,5.6c0,3.9-1.2,6.9-3.5,8.9c-1.1,0.9-2.3,1.6-3.7,2c-1.4,0.4-3.2,0.6-5.3,0.6H2469v-0.6c0.5-0.1,0.8-0.3,1-0.5
		C2470.2,529.7,2470.3,529.3,2470.3,528.9z M2475.8,526.8h5.9c2.7,0,4.6-0.6,5.9-1.8c1.3-1.3,1.9-3.1,1.9-5.5s-0.6-4.2-1.9-5.5
		c-0.6-0.6-1.4-1.1-2.3-1.4c-0.9-0.3-2.1-0.4-3.5-0.4h-5.9V526.8z"/>
	<path class="st9" d="M2525.7,519.6v9.2c0,0.4,0.1,0.7,0.3,1c0.2,0.2,0.5,0.4,1,0.5v0.7h-8.7v-0.7c0.5-0.1,0.8-0.3,1-0.5
		s0.3-0.5,0.3-0.9v-23.7c0-0.4-0.1-0.7-0.3-1s-0.5-0.4-1-0.5V503h17.5c2,0,3.7,0.1,4.9,0.4c1.2,0.3,2.3,0.7,3.2,1.4
		c0.9,0.7,1.7,1.6,2.2,2.7c0.5,1.2,0.8,2.4,0.8,3.7c0,1.9-0.5,3.5-1.5,5c-0.9,1.2-2,2.1-3.5,2.6c-1.4,0.5-3.5,0.8-6,0.8H2525.7z
		 M2525.7,515h9.3c1.9,0,3.2-0.2,3.9-0.6c0.5-0.3,0.9-0.7,1.2-1.2c0.3-0.6,0.4-1.2,0.4-1.9c0-0.7-0.1-1.3-0.4-1.9
		c-0.3-0.6-0.7-1-1.2-1.2c-0.7-0.4-2-0.6-3.9-0.6h-9.3V515z"/>
	<path class="st9" d="M2558.4,521.6v7.3c0,0.4,0.1,0.7,0.3,1s0.5,0.4,1,0.6v0.6h-8.1v-0.6c0.5-0.1,0.8-0.3,1-0.5
		c0.2-0.2,0.3-0.6,0.3-1v-18.8c0-0.4-0.1-0.7-0.3-1s-0.5-0.4-1-0.6V508h15.1c2,0,3.4,0.1,4.5,0.3c1,0.2,1.9,0.6,2.7,1.1
		c1.7,1.1,2.5,2.8,2.5,5.3c0,1.9-0.5,3.3-1.5,4.4c-1,1-2.7,1.8-4.9,2.3l4.3,6.1c0.8,1.1,1.4,1.9,1.9,2.3c0.5,0.4,1,0.7,1.6,0.8v0.6
		h-9.7v-0.6c0.7-0.2,1.1-0.5,1.1-0.9c0-0.3-0.2-0.8-0.7-1.4l-4.6-6.6H2558.4z M2558.4,517.4h8.3c1.3,0,2.2-0.1,2.8-0.4
		c0.8-0.4,1.3-1.1,1.3-2.2c0-1-0.3-1.6-0.9-2c-0.6-0.4-1.7-0.6-3.2-0.6h-8.3V517.4z"/>
	<path class="st9" d="M2589,521.2v5.6h14.6c0.4,0,0.7-0.1,1-0.3c0.2-0.2,0.4-0.5,0.5-1h0.6v6.8h-0.6c-0.1-0.5-0.3-0.8-0.5-1
		s-0.6-0.3-1-0.3h-21.4v-0.6c0.5-0.1,0.8-0.3,1-0.5c0.2-0.2,0.3-0.6,0.3-1v-18.8c0-0.4-0.1-0.7-0.3-1s-0.5-0.4-1-0.6V508h20.8
		c0.4,0,0.8-0.1,1-0.3c0.2-0.2,0.4-0.5,0.5-1h0.6v6.8h-0.6c-0.1-0.5-0.3-0.8-0.5-1c-0.2-0.2-0.6-0.3-1-0.3H2589v5h8.7
		c0.4,0,0.7-0.1,1-0.3c0.2-0.2,0.4-0.5,0.6-1h0.6v6.6h-0.6c-0.1-0.5-0.3-0.8-0.5-1c-0.2-0.2-0.6-0.3-1-0.3H2589z"/>
	<path class="st9" d="M2623.1,523.7l5.6-12.1c0.3-0.7,0.5-1.2,0.5-1.6c0-0.7-0.4-1.2-1.3-1.4V508h8.9v0.6c-0.5,0.2-0.9,0.4-1.2,0.7
		s-0.6,0.8-0.9,1.6l-8,16.9c-0.3,0.6-0.4,1.1-0.4,1.4c0,0.7,0.5,1.1,1.4,1.3v0.6h-9v-0.6c0.9-0.2,1.3-0.6,1.3-1.3
		c0-0.3-0.1-0.8-0.4-1.4l-8-16.9c-0.4-0.8-0.7-1.4-0.9-1.6s-0.6-0.5-1.2-0.6V508h9.2v0.6c-0.9,0.3-1.3,0.7-1.3,1.4
		c0,0.3,0.2,0.8,0.5,1.6L2623.1,523.7z"/>
	<path class="st9" d="M2647.5,521.2v5.6h14.6c0.4,0,0.7-0.1,1-0.3c0.2-0.2,0.4-0.5,0.5-1h0.6v6.8h-0.6c-0.1-0.5-0.3-0.8-0.5-1
		s-0.6-0.3-1-0.3h-21.4v-0.6c0.5-0.1,0.8-0.3,1-0.5c0.2-0.2,0.3-0.6,0.3-1v-18.8c0-0.4-0.1-0.7-0.3-1s-0.5-0.4-1-0.6V508h20.8
		c0.4,0,0.8-0.1,1-0.3c0.2-0.2,0.4-0.5,0.5-1h0.6v6.8h-0.6c-0.1-0.5-0.3-0.8-0.5-1c-0.2-0.2-0.6-0.3-1-0.3h-13.9v5h8.7
		c0.4,0,0.7-0.1,1-0.3c0.2-0.2,0.4-0.5,0.6-1h0.6v6.6h-0.6c-0.1-0.5-0.3-0.8-0.5-1c-0.2-0.2-0.6-0.3-1-0.3H2647.5z"/>
	<path class="st9" d="M2675.7,515.9v13c0,0.4,0.1,0.8,0.3,1c0.2,0.2,0.5,0.4,1,0.6v0.6h-7.6v-0.6c0.5-0.1,0.8-0.3,1-0.5
		c0.2-0.2,0.3-0.6,0.3-1v-18.8c0-0.4-0.1-0.7-0.3-1s-0.5-0.4-1-0.6V508h8.8v0.6c-0.6,0.2-0.9,0.4-0.9,0.8c0,0.3,0.2,0.7,0.7,1.1
		l12.3,12.2v-12.7c0-0.4-0.1-0.7-0.3-1c-0.2-0.2-0.5-0.4-1-0.5V508h7.6v0.6c-0.5,0.1-0.8,0.3-1,0.5s-0.3,0.5-0.3,1v18.8
		c0,0.4,0.1,0.7,0.3,1s0.5,0.4,1,0.6v0.6h-8.2v-0.6c0.6-0.1,0.9-0.4,0.9-0.8c0-0.2-0.1-0.4-0.2-0.6c-0.2-0.2-0.5-0.6-1.1-1.2
		L2675.7,515.9z"/>
	<path class="st9" d="M2714.9,512.2v16.7c0,0.4,0.1,0.7,0.3,1s0.5,0.4,1,0.6v0.6h-8.1v-0.6c0.5-0.1,0.8-0.3,1-0.5
		c0.2-0.2,0.3-0.6,0.3-1v-16.7h-6.8c-0.4,0-0.8,0.1-1,0.3c-0.2,0.2-0.4,0.5-0.5,1h-0.6v-6.8h0.6c0.1,0.5,0.3,0.8,0.5,1
		c0.2,0.2,0.6,0.3,1,0.3h19.1c0.4,0,0.8-0.1,1-0.3c0.2-0.2,0.4-0.5,0.5-1h0.6v6.8h-0.6c-0.1-0.5-0.3-0.8-0.5-1
		c-0.2-0.2-0.6-0.3-1-0.3H2714.9z"/>
	<path class="st9" d="M2734.6,510.1v18.8c0,0.4,0.1,0.7,0.3,1s0.5,0.4,1,0.6v0.6h-8.1v-0.6c0.5-0.1,0.8-0.3,1-0.5
		c0.2-0.2,0.3-0.6,0.3-1v-18.8c0-0.4-0.1-0.7-0.3-1s-0.5-0.4-1-0.6V508h8.1v0.6c-0.5,0.1-0.8,0.3-1,0.5S2734.6,509.7,2734.6,510.1z"
		/>
	<path class="st9" d="M2754.6,507.5c3.7,0,6.7,0.9,9.1,2.8c2.9,2.2,4.4,5.4,4.4,9.4c0,3.8-1.5,6.8-4.4,9c-2.4,1.9-5.4,2.8-9.1,2.8
		c-3.7,0-6.7-0.9-9.1-2.8c-2.9-2.2-4.4-5.3-4.4-9.2c0-3.9,1.5-7,4.4-9.2C2748,508.5,2751,507.6,2754.6,507.5z M2754.6,511.9
		c-2.4,0-4.3,0.8-5.8,2.3c-1.4,1.4-2.1,3.2-2.1,5.4c0,2.1,0.7,3.9,2.1,5.3c1.5,1.5,3.4,2.3,5.8,2.3c2.4,0,4.3-0.8,5.8-2.3
		c1.4-1.4,2.1-3.2,2.1-5.2c0-2.3-0.7-4.1-2.1-5.5C2758.9,512.7,2757,511.9,2754.6,511.9z"/>
	<path class="st9" d="M2779.6,515.9v13c0,0.4,0.1,0.8,0.3,1c0.2,0.2,0.5,0.4,1,0.6v0.6h-7.6v-0.6c0.5-0.1,0.8-0.3,1-0.5
		c0.2-0.2,0.3-0.6,0.3-1v-18.8c0-0.4-0.1-0.7-0.3-1s-0.5-0.4-1-0.6V508h8.8v0.6c-0.6,0.2-0.9,0.4-0.9,0.8c0,0.3,0.2,0.7,0.7,1.1
		l12.3,12.2v-12.7c0-0.4-0.1-0.7-0.3-1c-0.2-0.2-0.5-0.4-1-0.5V508h7.6v0.6c-0.5,0.1-0.8,0.3-1,0.5s-0.3,0.5-0.3,1v18.8
		c0,0.4,0.1,0.7,0.3,1s0.5,0.4,1,0.6v0.6h-8.2v-0.6c0.6-0.1,0.9-0.4,0.9-0.8c0-0.2-0.1-0.4-0.2-0.6c-0.2-0.2-0.5-0.6-1.1-1.2
		L2779.6,515.9z"/>
</g>
<path class="st10" d="M3723.3,139.9c-6.1,10.8-14,20.6-23.4,28.7c-11.1,9.7-138.8,92.8-145,98s-17.7,19.3-27.1,60.5
	c-7.6,33.3-12.5,20.9-37.6,19.8c-14.6-0.6-55.3-12-52.2,21.4c0,0,5-7.4,60.5,0.5c21.9,3.1,39.7-4.4,44.9-21.9
	c5.2-17.7,12.7-47.8,24-63.6c5.2-7.3,107.5-74.1,135.6-91.8C3713.4,185,3746.3,163.8,3723.3,139.9"/>
<path class="st10" d="M3402.6,390.8c0,0,8.4-7.3,30.3,2.1s79.6,37.1,94.9,49c9.4,7.3,35.5,19.8,28.2,33.4s-42.8,19.8-35.5,49
	s45.9,16.7,51.1,9.4s-17.2,4.3-25-16.7c-6.3-16.7,4.7-27.8,19.8-38.6c7.3-5.2,17.1-9.4,15.6-23c-1-9.4-16.7-16.7-32.3-26.1
	s-76.2-39.6-100.1-51.1S3399.5,370.9,3402.6,390.8"/>
<path class="st10" d="M3746.8,175.2c-3,5.5-5.2,13.3-17.4,22c-22.8,16.2-111,74.2-131.3,87.2c-11.5,7.3-20.6,21-23.5,27.1
	c-3.1,6.8-7.8,23.8-9.9,53c-0.4,5.6-14.3,14.9-12.6,19c1.6,4,12.3,2,11.9,5.1c-0.4,2.7-3.5,6.8-3.5,9.5c0,3.1,6.3,0.3,4.7,3.6
	c-2.6,5.5,1.6,6.8,3.1,11s-0.5,8.9,0.9,12.4c2.5,6.1,11.6,7.2,26,6.9s21.1,10.4,17.9,19.8c-4.2,12.5-13.9,12.3-28.9,23
	s-15.7,24.4-7,35.9c6.7,8.8,31.9,13,47.7-4c3.3-3.9-7.2,1.4-22.2-7c0,0-9.8-7.5-4.6-17.7s13.6-14.5,22.9-20.3s21.4-9,20.8-21.4
	s-12.7-14.2-17.6-14.5s-12.6,0.2-19.4-0.2c-10.4-0.5-13.5-5.7-14.1-26.6c-0.2-6.7-9.1-3.2-4.2-12c2.6-4.6-4.9-2.7-10-5.1
	c-4.4-2,5-11.7,11.6-21c2-2.9-1.2-6.6,0-20.4c1-12,6.3-27.6,21.4-38.6c7.4-5.3,39.6-26.6,49-32.3c13.1-8,76.6-51.6,87.6-60.4
	c20.5-16.5-1.4-35.6,0.6-34.2"/>
<path class="st10" d="M3513.3,506.4l-0.1,0.6l-0.9-0.1c-0.8-0.2-1.6,0.1-2.1,0.7c-0.4,0.7-0.7,1.6-0.7,2.4l-1.9,14.9
	c-0.2,0.9-0.2,1.8,0.1,2.7c0.4,0.6,1.1,1,1.9,1l0.8,0.1l-0.1,0.6l-9.3-1.2c-2.7-0.2-5.3-0.9-7.6-2.2c-1.7-1-3.1-2.6-3.8-4.4
	c-0.9-2.1-1.2-4.3-0.8-6.5c0.3-2.9,1.7-5.7,3.9-7.6c2.5-2.1,5.9-2.9,10.4-2.3L3513.3,506.4 M3506.5,507.3c-1.1-0.4-2.3-0.7-3.5-0.9
	c-2.5-0.4-4.9,0.3-6.8,1.9c-4,4-4.8,10.1-1.9,14.9c1.5,2,3.8,3.3,6.3,3.6c1.2,0.1,2.4,0.1,3.5-0.1L3506.5,507.3z"/>
<path class="st10" d="M3476.6,522.7l2.1-8.8l-4.9-1.2c-0.9-0.3-1.8-0.3-2.7,0c-0.8,0.6-1.4,1.4-1.6,2.4l-0.6-0.2l1.8-7.8l0.6,0.1
	c-0.1,0.7-0.1,1.5-0.1,2.2c0.1,0.4,0.4,0.8,0.8,1.1c0.6,0.4,1.3,0.7,2,0.8l4.9,1.2l1.8-7.4c0.2-0.6,0.3-1.2,0.3-1.9
	c0-0.2-0.2-0.4-0.4-0.6c-0.4-0.3-0.8-0.4-1.2-0.5l-3.8-0.9c-0.9-0.3-1.9-0.4-2.8-0.4c-0.7,0.1-1.3,0.3-1.9,0.6
	c-1.1,0.7-2,1.6-2.8,2.6l-0.7-0.2l3.3-5.1l17.3,4.1l-0.1,0.6l-0.8-0.2c-0.5-0.1-1.1-0.1-1.6,0c-0.4,0.1-0.7,0.3-0.9,0.6
	c-0.3,0.7-0.6,1.4-0.7,2.1l-3.5,14.6c-0.3,0.9-0.4,1.8-0.2,2.7c0.4,0.6,1.1,1,1.8,1.1l0.8,0.2l-0.2,0.6l-17.3-4.2l1-5l0.7,0.2
	c-0.1,0.9,0,1.8,0.2,2.6c0.2,0.5,0.5,1,1,1.3c0.7,0.4,1.5,0.6,2.3,0.8L3476.6,522.7"/>
<path class="st10" d="M3457.7,506l2.2-6.4c0.4-0.8,0.6-1.8,0.4-2.7c-0.3-0.7-0.9-1.1-1.6-1.3l-0.8-0.3l0.2-0.6l9.3,3.2l-0.2,0.6
	l-0.8-0.3c-0.7-0.3-1.6-0.2-2.3,0.2c-0.5,0.6-0.9,1.4-1.1,2.2l-4.9,14.1c-0.4,0.8-0.6,1.7-0.4,2.7c0.3,0.7,0.9,1.2,1.6,1.3l0.8,0.3
	l-0.2,0.6l-8-2.8c-1.6-0.5-3.1-1.2-4.4-2.2c-1-0.8-1.7-1.8-2.1-3c-0.4-1.2-0.4-2.6,0-3.8c0.5-1.7,1.7-3,3.3-3.8
	c1.8-0.7,3.8-0.7,5.5,0c0.5,0.2,1.1,0.4,1.7,0.7S3457,505.6,3457.7,506 M3457.3,506.9c-0.5-0.3-1-0.6-1.4-0.8
	c-0.3-0.2-0.7-0.3-1.1-0.5c-1.1-0.4-2.3-0.3-3.3,0.3c-1.1,0.6-2,1.7-2.4,3c-0.3,0.9-0.4,1.9-0.3,2.8c0.1,0.9,0.4,1.7,1,2.4
	c0.6,0.7,1.3,1.1,2.2,1.4c0.7,0.2,1.4,0.4,2.2,0.4L3457.3,506.9z"/>
<path class="st10" d="M3434.6,493.4l8.2,3.7l2.9-2.6c0.5-0.5,1-1,1.3-1.6c0.1-0.3,0.1-0.7-0.1-1.1c-0.5-0.6-1.1-1.1-1.8-1.4l0.3-0.6
	l6.6,3l-0.3,0.6c-0.6-0.2-1.3-0.3-2-0.1c-1.2,0.6-2.2,1.3-3.1,2.3l-15.3,14l-0.5-0.2l0.5-20.8c0.1-1.2,0-2.3-0.4-3.5
	c-0.4-0.7-1-1.3-1.7-1.6l0.3-0.6l8.3,3.7l-0.3,0.6c-0.6-0.3-1.2-0.4-1.9-0.4c-0.4,0.1-0.7,0.3-0.8,0.7c-0.3,0.8-0.4,1.6-0.4,2.4
	L3434.6,493.4 M3434.6,494.8l-0.3,10.1l7.5-6.9L3434.6,494.8z"/>
<path class="st10" d="M3409,470.6l5.3,3.1l1.3,13.3l1.2,0.7c0.1,0.1,0.3,0.1,0.4,0.3s0.3,0.2,0.4,0.3l3.4-5.8c0.6-0.7,0.9-1.6,1-2.6
	c-0.2-0.7-0.6-1.3-1.3-1.6l-0.8-0.5l0.3-0.5l8.5,5l-0.3,0.5l-0.7-0.4c-0.7-0.5-1.5-0.6-2.3-0.2c-0.7,0.5-1.2,1.2-1.6,2l-7.6,12.9
	c-0.6,0.7-0.9,1.6-1,2.5c0.2,0.7,0.7,1.3,1.3,1.6l0.7,0.5l-0.3,0.5l-7.2-4.3c-1.6-0.9-3.1-1.9-4.4-3.2c-0.8-0.9-1.4-2-1.5-3.2
	c-0.2-1.2,0-2.5,0.7-3.5c0.7-1.2,1.8-2.1,3.1-2.5c1.6-0.4,3.3-0.3,4.8,0.3l-0.8-8.1c-0.1-1.4-0.3-2.8-0.9-4
	c-0.5-0.9-1.3-1.7-2.2-2.4L3409,470.6 M3417,489.2l-0.5-0.3c-0.1-0.1-0.2-0.1-0.3-0.2c-1.4-1-3.2-1.5-4.9-1.3
	c-1.4,0.2-2.6,1.1-3.3,2.3c-0.7,1.1-0.9,2.4-0.6,3.7c0.3,1.3,1.2,2.4,2.3,3c0.8,0.4,1.6,0.8,2.5,1L3417,489.2z"/>
<path class="st10" d="M3381,478.6l3-4.5l0.5,0.4c-0.4,0.6-0.6,1.3-0.8,2c-0.1,0.7,0,1.4,0.3,2c0.4,0.7,0.9,1.3,1.6,1.7l2.6,1.9
	l10.3-14.3c0.6-0.7,1-1.5,1.2-2.4c-0.1-0.7-0.6-1.4-1.2-1.8l-0.7-0.5l0.4-0.5l8,5.8l-0.4,0.5l-0.7-0.5c-0.6-0.5-1.4-0.7-2.2-0.5
	c-0.7,0.4-1.3,1.1-1.8,1.8L3391,484l2.2,1.6c0.6,0.5,1.3,0.9,2,1.1c0.7,0.2,1.4,0.1,2-0.1c0.8-0.3,1.5-0.9,2.1-1.6l0.5,0.4l-3.4,4.3
	L3381,478.6"/>
<path class="st10" d="M3382.9,449.8l-6.7,20.2l10.4-11.3c1-1.1,1.4-1.8,1.5-2.3c0-0.7-0.4-1.4-1-1.9l-0.6-0.5l0.4-0.5l5.9,5.5
	l-0.4,0.5l-0.6-0.5c-0.5-0.6-1.3-0.9-2.1-0.8c-0.8,0.4-1.5,0.9-2,1.6l-10.2,11.1c-0.5,0.5-1,1.2-1.3,1.9c-0.1,0.4-0.1,0.8,0.1,1.2
	c0.3,0.6,0.7,1.2,1.3,1.6l-0.4,0.5l-4.9-4.5l6.1-18.8l-18.3,7.6l-4.8-4.5l0.4-0.5l0.6,0.5c0.5,0.6,1.3,0.9,2.1,0.8
	c0.8-0.4,1.5-0.9,2-1.6l10.2-11.1c1-1,1.5-1.8,1.5-2.3c0-0.7-0.4-1.4-1-1.9l-0.6-0.5l0.4-0.5l7.2,6.7l-0.4,0.5l-0.6-0.5
	c-0.5-0.6-1.3-0.9-2.1-0.8c-0.8,0.3-1.5,0.9-2,1.6l-10.4,11.3l19.7-8.3L3382.9,449.8"/>
<path class="st10" d="M3349.5,446.8l6.9-5.9l-3.3-3.9c-0.5-0.8-1.3-1.3-2.1-1.6c-1,0-2,0.3-2.7,1l-0.4-0.5l6.1-5.2l0.4,0.5
	c-0.5,0.5-0.9,1.1-1.3,1.8c-0.2,0.4-0.2,0.9-0.1,1.4c0.2,0.7,0.6,1.3,1.1,1.9l3.3,3.9l5.8-4.9c0.5-0.4,0.9-0.8,1.3-1.3
	c0.1-0.2,0.2-0.5,0.1-0.7c-0.1-0.4-0.4-0.8-0.7-1.1l-2.5-3c-0.6-0.8-1.2-1.4-2-2c-0.6-0.3-1.2-0.5-1.9-0.6c-1.3-0.1-2.6,0.1-3.8,0.4
	l-0.5-0.6l5.7-2.2l11.5,13.5l-0.5,0.4l-0.5-0.6c-0.3-0.4-0.8-0.7-1.3-0.9c-0.4-0.2-0.8-0.2-1.1,0c-0.7,0.3-1.3,0.8-1.8,1.3
	l-11.4,9.8c-1.1,0.9-1.7,1.6-1.8,2.1c0,0.8,0.3,1.5,0.8,2l0.5,0.6l-0.5,0.4l-11.6-13.5l3.7-3.5l0.4,0.5c-0.6,0.7-1.1,1.4-1.4,2.2
	c-0.2,0.5-0.2,1.1,0,1.6c0.3,0.7,0.8,1.4,1.4,2L3349.5,446.8"/>
<path class="st10" d="M3338,435.4l-3.6-5.2l6.2-21.3l-10.9,7.5c-1.2,0.8-1.8,1.4-1.9,1.9c-0.1,0.7,0.1,1.5,0.6,2l0.5,0.7l-0.5,0.4
	l-4.6-6.6l0.5-0.4l0.5,0.7c0.4,0.7,1.1,1.2,1.9,1.2c0.8-0.2,1.6-0.6,2.3-1.1l16-11l0.4,0.5l-6.7,23l11.7-8c1.2-0.8,1.8-1.4,1.9-1.9
	c0.1-0.7-0.1-1.5-0.6-2l-0.5-0.7l0.5-0.4l4.6,6.7l-0.5,0.4l-0.4-0.7c-0.4-0.7-1.1-1.2-1.9-1.2c-0.8,0.2-1.6,0.6-2.3,1.1l-13.2,9.1
	c-0.2,0.7-0.3,1.4-0.4,2.1c0,0.6,0.1,1.1,0.3,1.6c0.2,0.5,0.4,0.9,0.7,1.3L3338,435.4"/>
<path class="st10" d="M3312.6,394.3l4.6-2.8l0.3,0.6c-0.6,0.4-1.1,0.9-1.6,1.4c-0.4,0.6-0.6,1.2-0.6,1.9c0,0.8,0.3,1.6,0.7,2.3
	l1.6,2.8l15.5-8.4c1.2-0.7,2-1.2,2.1-1.7c0.2-0.7,0.1-1.5-0.3-2.1l-0.4-0.7l0.6-0.3l4.7,8.6l-0.6,0.3l-0.4-0.7
	c-0.3-0.7-1-1.3-1.8-1.4c-0.8,0.1-1.7,0.4-2.4,0.9l-15.5,8.4l1.3,2.4c0.3,0.7,0.8,1.3,1.3,1.9c0.5,0.4,1.2,0.7,1.8,0.7
	c0.9,0,1.7-0.1,2.5-0.5l0.3,0.5l-4.9,2.4L3312.6,394.3"/>
<path class="st10" d="M3302,370.6c-1.1-2.8-0.9-5.8,0.5-8.5c1.4-2.9,3.8-5,6.8-6.1c3-1.2,6.4-1.2,9.4,0.1c5.6,2.3,8.3,8.8,5.9,14.4
	c-0.1,0.2-0.2,0.4-0.3,0.6c-1.5,2.9-4,5.1-7.1,6.1c-3.1,1.3-6.7,1.2-9.7-0.4C3304.9,375.6,3302.9,373.4,3302,370.6 M3303.3,370.5
	c0.6,1.8,2,3.2,3.9,3.8c2.3,0.8,5.2,0.5,8.6-0.8s6-3.1,7.3-5.3c1-1.6,1.2-3.6,0.5-5.4c-0.7-2-2.3-3.5-4.3-4.1
	c-2.1-0.7-4.8-0.5-8.2,0.8c-3.7,1.4-6.2,3.1-7.5,5.3C3302.6,366.6,3302.5,368.7,3303.3,370.5"/>
<path class="st10" d="M3296.9,348.9l8.7-2.3l-1.1-4.1c-0.1-0.7-0.5-1.4-1.1-1.9c-0.8-0.4-1.8-0.4-2.7-0.2l-0.2-0.6l7.6-2l0.2,0.6
	c-0.7,0.1-1.3,0.4-1.8,0.8c-0.3,0.3-0.6,0.7-0.7,1.1c-0.1,0.6-0.1,1.2,0.1,1.8l1.1,4.1l7.1-1.9c0.8-0.1,1.5-0.4,2.2-0.8
	c0.3-0.2,0.5-0.5,0.5-0.9c0.1-0.5,0.1-1.1,0-1.6l-0.2-0.8l0.6-0.1l2.5,9.5l-0.6,0.1l-0.2-0.8c-0.1-0.8-0.6-1.4-1.3-1.8
	c-0.9-0.1-1.8-0.1-2.6,0.3l-14.5,3.8c-0.8,0.2-1.5,0.4-2.2,0.8c-0.3,0.2-0.5,0.5-0.5,0.9c-0.1,0.5-0.1,1.1,0,1.6l0.2,0.8l-0.6,0.2
	l-4.4-16.6l4.9-1.5l0.1,0.6c-0.8,0.4-1.4,1-2,1.6c-0.4,0.5-0.6,1.1-0.7,1.7c0,0.9,0.1,1.8,0.4,2.7L3296.9,348.9"/>
<path class="st10" d="M3299.7,316.3l-1.2-10.6l-6.6,0.8c-0.8,0.1-1.5,0.2-2.3,0.5c-0.3,0.2-0.5,0.5-0.6,0.8
	c-0.2,0.5-0.3,1.1-0.2,1.6l0.1,0.8l-0.6,0.1l-1.2-9.8l0.6-0.1l0.1,0.8c0.1,0.5,0.3,1,0.6,1.5c0.2,0.3,0.5,0.6,0.9,0.6
	c0.7,0.1,1.5,0.1,2.2-0.1l14.9-1.7c0.8,0,1.5-0.2,2.3-0.5c0.3-0.2,0.5-0.4,0.6-0.8c0.2-0.5,0.3-1.1,0.2-1.6l-0.1-0.8l0.6-0.1
	l1.1,9.8l-0.6,0.1l-0.1-0.8c0-0.8-0.4-1.5-1.1-1.9c-0.8-0.3-1.8-0.3-2.6-0.1l-7,0.8l1.3,10.6l7-0.8c0.8,0,1.5-0.2,2.3-0.5
	c0.3-0.2,0.5-0.5,0.6-0.8c0.2-0.5,0.3-1,0.2-1.6l-0.1-0.8l0.6-0.1l1.1,9.8l-0.6,0.1l-0.1-0.8c0-0.8-0.4-1.5-1.1-1.9
	c-0.9-0.3-1.8-0.3-2.6-0.1l-14.9,1.8c-0.8,0-1.5,0.2-2.3,0.5c-0.3,0.2-0.5,0.5-0.6,0.8c-0.2,0.5-0.3,1-0.2,1.6l0.1,0.8l-0.6,0.1
	l-1.1-9.8l0.6-0.1l0.1,0.8c0.1,0.5,0.3,1,0.6,1.5c0.2,0.3,0.5,0.6,0.9,0.6c0.7,0.1,1.5,0.1,2.2-0.1L3299.7,316.3"/>
<path class="st10" d="M3288.1,289.8l9.1-0.1l-0.1-5.1c0.1-0.9-0.1-1.8-0.6-2.6c-0.7-0.7-1.7-1-2.7-0.9v-0.6l8-0.1v0.6
	c-0.7,0.1-1.5,0.2-2.1,0.5c-0.4,0.2-0.7,0.6-0.9,1c-0.3,0.7-0.4,1.4-0.3,2.1l0.1,5.1l7.6-0.1c0.6,0,1.2,0,1.9-0.2
	c0.2-0.1,0.4-0.3,0.5-0.5c0.2-0.4,0.2-0.9,0.2-1.3v-3.9c0-1-0.1-1.9-0.3-2.8c-0.2-0.6-0.6-1.2-1.1-1.7c-1-0.9-2-1.6-3.2-2.1v-0.7
	l5.8,1.9l0.2,17.8h-0.6v-0.8c0-0.5-0.1-1.1-0.4-1.5c-0.2-0.3-0.5-0.6-0.8-0.7c-0.7-0.2-1.5-0.2-2.2-0.2l-15,0.2
	c-0.9-0.1-1.9,0.1-2.7,0.5c-0.5,0.5-0.7,1.3-0.6,2v0.8h-0.6l-0.2-17.8l5.1-0.3v0.7c-0.9,0.1-1.7,0.4-2.5,0.8c-0.5,0.3-0.8,0.8-1,1.3
	c-0.2,0.8-0.3,1.6-0.2,2.4l0.1,6.3"/>
<path class="st10" d="M3303.5,258.7l-0.8,9l3.4,1.9c0.6,0.4,1.3,0.6,1.9,0.8c0.4,0,0.7-0.1,1-0.4c0.4-0.6,0.7-1.4,0.7-2.1l0.6,0.1
	l-0.7,7.2h-0.6c0-0.7-0.2-1.3-0.5-1.9c-0.9-0.9-2-1.7-3.1-2.2l-18.2-10l0.1-0.5l19.9-6.3c1.1-0.3,2.2-0.8,3.1-1.5
	c0.6-0.6,0.9-1.3,1-2.1l0.6,0.1l-0.9,9.1l-0.6-0.1c0.1-0.6,0-1.3-0.3-1.9c-0.2-0.3-0.5-0.5-0.9-0.6c-0.8,0-1.6,0.2-2.4,0.5
	L3303.5,258.7 M3302.2,259.1l-9.6,3l8.9,4.9L3302.2,259.1z"/>
<path class="st10" d="M3309.8,229.3l0.2-0.5l5.7,3.1l-3.5,17.5l-0.6-0.1l0.2-0.8c0.2-0.8,0-1.6-0.5-2.2c-0.7-0.4-1.5-0.7-2.4-0.8
	l-14.7-2.9c-1.4-0.3-2.3-0.3-2.7-0.1c-0.6,0.4-1,1-1.1,1.8l-0.2,0.9l-0.6-0.1l2-10.2l0.6,0.1c-0.2,0.8-0.3,1.7-0.2,2.6
	c0.1,0.4,0.3,0.8,0.7,1.1c0.8,0.4,1.6,0.7,2.5,0.8l14.2,2.9c0.6,0.2,1.3,0.2,1.9,0.1c0.3-0.1,0.5-0.3,0.7-0.5
	c0.3-0.8,0.5-1.7,0.7-2.6l0.3-1.6c0.3-1.2,0.4-2.5,0.3-3.7c-0.1-0.8-0.5-1.6-1-2.2C3311.6,230.7,3310.7,229.9,3309.8,229.3"/>
<path class="st10" d="M3299,206.3l5.3,1.3l-0.2,0.6c-0.7-0.1-1.4-0.2-2.1-0.1c-0.7,0.1-1.3,0.5-1.8,1c-0.5,0.6-0.9,1.3-1.1,2.1
	l-0.9,3.1l16.9,4.9c0.8,0.4,1.8,0.5,2.7,0.3c0.6-0.4,1.1-1,1.3-1.7l0.2-0.8l0.6,0.2l-2.7,9.4l-0.6-0.2l0.2-0.8
	c0.3-0.7,0.2-1.6-0.3-2.3c-0.7-0.5-1.5-0.9-2.3-1l-16.9-4.9l-0.8,2.7c-0.3,0.7-0.4,1.5-0.4,2.3c0.1,0.7,0.3,1.3,0.8,1.8
	c0.6,0.7,1.3,1.1,2.2,1.4l-0.2,0.6l-5.1-1.8L3299,206.3"/>
<path class="st10" d="M3312.7,200.1l4-9.9l-6.1-2.5c-0.7-0.3-1.4-0.6-2.2-0.7c-0.4,0-0.7,0.2-0.9,0.4c-0.4,0.3-0.7,0.8-0.9,1.3
	l-0.3,0.8l-0.6-0.2l3.7-9.1l0.6,0.2l-0.3,0.8c-0.2,0.5-0.3,1-0.2,1.6c0,0.4,0.2,0.7,0.5,1c0.6,0.4,1.3,0.8,2,1l13.8,5.7
	c0.7,0.3,1.4,0.6,2.2,0.7c0.3,0,0.7-0.1,0.9-0.4c0.4-0.3,0.8-0.8,1-1.3l0.3-0.8l0.6,0.2l-3.7,9.1l-0.6-0.2l0.3-0.7
	c0.3-0.7,0.3-1.5,0-2.2c-0.6-0.6-1.4-1.1-2.3-1.4l-6.5-2.7l-4,9.9l6.5,2.7c0.7,0.3,1.4,0.6,2.2,0.7c0.3,0,0.7-0.1,0.9-0.4
	c0.4-0.3,0.8-0.8,1-1.3l0.3-0.8l0.6,0.2l-3.7,9.1l-0.6-0.2l0.3-0.7c0.4-0.7,0.4-1.5,0-2.2c-0.6-0.6-1.4-1.1-2.3-1.4l-13.8-5.7
	c-0.7-0.3-1.4-0.6-2.2-0.7c-0.3,0-0.7,0.1-0.9,0.4c-0.4,0.3-0.8,0.8-1,1.3l-0.3,0.8l-0.6-0.2l3.7-9.1l0.6,0.2l-0.3,0.8
	c-0.2,0.5-0.3,1-0.2,1.6c0,0.4,0.2,0.7,0.5,1c0.6,0.4,1.3,0.8,2,1L3312.7,200.1"/>
<path class="st10" d="M3331.8,156.8l3.8-6.1l0.5,0.3c-0.4,0.7-0.6,1.4-0.6,2.2c0.3,1.3,0.9,2.5,1.6,3.6c1,1.8,1.8,3.7,2.5,5.6
	c1.2-0.2,2.4-0.5,3.5-1c0.8-0.4,1.4-1,1.9-1.7c0.4-0.6,0.6-1.3,0.5-2c-0.1-0.8-0.5-1.5-1-2l0.7-0.3c1,1,1.7,2.2,2,3.6
	c0.2,1.2-0.1,2.4-0.7,3.4c-0.5,0.8-1.3,1.5-2.1,2c-1.2,0.6-2.5,1.1-3.8,1.3c0.3,1.5,0.4,3.1,0.2,4.6c-0.2,1.2-0.6,2.4-1.3,3.5
	c-0.8,1.4-2.1,2.5-3.6,3c-1.3,0.4-2.7,0.3-3.9-0.5c-1.3-0.8-2.2-2-2.7-3.4c-0.7-2.3-1-4.6-0.7-7c-1-0.1-2.1-0.3-3.1-0.6
	c-0.7-0.2-1.4-0.5-2-0.9c-1.5-0.8-2.5-2.4-2.6-4.1c-0.1-1.4,0.3-2.7,1-3.9c0.6-1.1,1.6-1.8,2.8-2.2c1.1-0.3,2.2-0.1,3.2,0.5
	c1,0.6,1.7,1.6,2.1,2.7c0.4,1.7,0.5,3.5,0.2,5.3c2.8,0.1,5.6,0.1,8.4-0.1c-1-3-2.1-4.9-3.5-5.8c-0.4-0.3-0.9-0.4-1.4-0.3
	c-0.4,0.1-0.8,0.3-1,0.6L3331.8,156.8 M3328.8,162.6c0.2-1.3,0.1-2.6-0.3-3.9c-0.3-1-1-1.8-1.9-2.4c-0.6-0.4-1.4-0.6-2.1-0.4
	c-0.7,0.1-1.3,0.6-1.7,1.2c-0.5,0.7-0.6,1.6-0.3,2.5c0.2,0.7,0.7,1.3,1.3,1.7c0.5,0.3,1.1,0.6,1.7,0.7
	C3326.4,162.2,3327.4,162.4,3328.8,162.6 M3339.3,166c-2.5,0.2-4.3,0.3-5.4,0.3s-2.4-0.1-4-0.2c-0.1,1.4,0.1,2.7,0.6,4
	c0.4,1,1.1,1.9,2.1,2.5c1,0.6,2.2,0.9,3.4,0.7c1.2-0.2,2.3-0.9,2.8-2c0.4-0.6,0.6-1.3,0.7-2C3339.5,168.1,3339.5,167,3339.3,166"/>
<path class="st10" d="M3350.3,135.7l7-8l-5-4.4c-0.6-0.5-1.2-1-1.9-1.3c-0.3-0.1-0.7-0.1-1,0.1c-0.5,0.2-1,0.5-1.3,0.9l-0.5,0.6
	l-0.5-0.4l6.5-7.4l0.5,0.4l-0.5,0.6c-0.4,0.4-0.6,0.9-0.7,1.4c-0.1,0.4-0.1,0.8,0.1,1.1c0.4,0.6,1,1.2,1.6,1.6l11.3,9.8
	c0.6,0.5,1.2,1,1.9,1.4c0.3,0.1,0.7,0.1,1-0.1c0.5-0.2,1-0.5,1.3-0.9l0.5-0.6l0.5,0.4l-6.5,7.4l-0.5-0.4l0.5-0.6
	c0.6-0.5,0.8-1.3,0.7-2.1c-0.4-0.8-1-1.5-1.7-2l-5.3-4.6l-7,8l5.3,4.6c0.5,0.5,1.2,1,1.9,1.3c0.3,0.1,0.7,0.1,1,0
	c0.5-0.2,1-0.5,1.3-0.9l0.5-0.6l0.5,0.4l-6.5,7.4l-0.5-0.4l0.5-0.6c0.6-0.5,0.8-1.3,0.7-2.1c-0.4-0.8-1-1.5-1.7-2l-11.3-9.8
	c-0.6-0.5-1.2-1-1.9-1.4c-0.3-0.1-0.7-0.1-1,0c-0.5,0.2-1,0.5-1.3,0.9l-0.5,0.6l-0.5-0.4l6.5-7.4l0.5,0.4l-0.5,0.6
	c-0.4,0.4-0.6,0.9-0.7,1.4c-0.1,0.4,0,0.8,0.1,1.1c0.4,0.6,1,1.1,1.6,1.6L3350.3,135.7"/>
<path class="st10" d="M3368.9,102.5l-0.4-0.5l6-5.4l0.4,0.5l-0.6,0.6c-0.6,0.5-0.9,1.4-0.8,2.2c0.3,0.8,0.7,1.5,1.4,2.1l6.3,7
	c1.3,1.3,2.3,2.8,3.1,4.5c0.5,1.4,0.6,2.9,0.2,4.3c-0.6,1.8-1.6,3.5-3.1,4.7c-1.4,1.4-3.2,2.4-5.1,2.8c-1.5,0.2-3.1,0-4.4-0.8
	c-1.6-1.1-3-2.4-4.2-3.9l-6-6.7c-0.6-0.8-1.4-1.4-2.3-1.7c-0.7,0-1.4,0.3-1.8,0.8l-0.6,0.6l-0.4-0.5l7.3-6.6l0.4,0.5l-0.6,0.6
	c-0.6,0.5-1,1.2-0.9,2c0.3,0.8,0.8,1.6,1.4,2.2l6.7,7.5c0.7,0.8,1.5,1.5,2.3,2.1c0.7,0.6,1.5,1.1,2.5,1.4c0.8,0.2,1.7,0.2,2.5-0.1
	c1-0.3,1.9-0.8,2.6-1.5c1.1-0.9,1.9-2.1,2.4-3.4c0.4-1.1,0.5-2.4,0.1-3.5c-0.7-1.6-1.7-3.1-3-4.3l-6.3-7c-1-1.1-1.7-1.6-2.1-1.7
	c-0.7,0-1.4,0.2-1.9,0.8L3368.9,102.5"/>
<path class="st10" d="M3401.8,105.3l-18.2-11.1l8.7,12.7c0.8,1.2,1.4,1.8,1.9,1.9c0.7,0.1,1.5-0.1,2.1-0.5l0.7-0.5l0.4,0.5l-6.7,4.5
	l-0.4-0.5l0.7-0.5c0.7-0.4,1.2-1.1,1.2-1.9c-0.2-0.8-0.5-1.6-1.1-2.3l-8.5-12.5c-0.4-0.6-0.9-1.2-1.5-1.6c-0.4-0.2-0.8-0.3-1.2-0.2
	c-0.7,0.1-1.3,0.4-1.9,0.9l-0.4-0.5l5.4-3.7l17,10.2l-3.3-19.5l5.4-3.7l0.4,0.5l-0.7,0.4c-0.7,0.4-1.2,1.1-1.2,1.9
	c0.2,0.8,0.5,1.6,1.1,2.3l8.5,12.4c0.8,1.2,1.4,1.8,1.9,1.9c0.7,0.1,1.5-0.1,2.1-0.5l0.7-0.4l0.4,0.5l-8.1,5.5l-0.4-0.5l0.7-0.5
	c0.7-0.4,1.2-1.1,1.2-1.9c-0.2-0.8-0.6-1.6-1.1-2.3l-8.7-12.7l3.6,21.1L3401.8,105.3"/>
<path class="st10" d="M3426.6,82l-8.1,4l0.2,3.9c0,0.7,0.1,1.4,0.4,2c0.2,0.3,0.5,0.6,0.9,0.6c0.8,0,1.5-0.2,2.2-0.5l0.3,0.6
	l-6.5,3.3l-0.3-0.6c0.6-0.3,1-0.8,1.4-1.4c0.3-1.3,0.4-2.6,0.2-3.8l-1.1-20.6l0.5-0.2l15.8,13.6c0.8,0.8,1.8,1.5,2.9,1.9
	c0.8,0.2,1.6,0.1,2.3-0.3l0.3,0.6l-8.2,4l-0.3-0.6c0.6-0.3,1.1-0.7,1.5-1.2c0.2-0.3,0.2-0.7,0-1.1c-0.4-0.7-1-1.3-1.7-1.8L3426.6,82
	 M3425.6,81.1l-7.6-6.6l0.5,10.2L3425.6,81.1z"/>
<path class="st10" d="M3430.1,63.2l5.9-2.1l19,11.5l-4.4-12.5c-0.2-0.9-0.7-1.7-1.3-2.3c-0.7-0.3-1.4-0.3-2.1,0l-0.8,0.3l-0.2-0.6
	l7.6-2.7l0.2,0.6l-0.8,0.3c-0.8,0.2-1.4,0.8-1.7,1.5c-0.1,0.9,0.1,1.7,0.5,2.5l6.5,18.3l-0.6,0.2l-20.5-12.4l4.7,13.4
	c0.5,1.3,0.9,2.1,1.3,2.3c0.7,0.3,1.4,0.3,2.1,0l0.8-0.3l0.2,0.6l-7.6,2.7l-0.2-0.6l0.8-0.3c0.8-0.2,1.4-0.8,1.7-1.6
	c0.1-0.8-0.1-1.7-0.5-2.5l-5.4-15.1c-0.6-0.4-1.3-0.7-1.9-1c-0.5-0.1-1.1-0.2-1.7-0.1c-0.5,0-1,0.2-1.5,0.4L3430.1,63.2"/>
<path class="st10" d="M3482.4,47.9l1.5,7.8l-0.6,0.1c-0.4-1.2-0.9-2.4-1.8-3.4c-0.7-0.8-1.6-1.4-2.6-1.7c-1-0.3-2.1-0.4-3.1-0.2
	c-1.1,0.2-2,0.7-2.7,1.6c-0.6,0.7-0.9,1.7-0.7,2.6c0.1,0.7,0.5,1.3,1.1,1.8c1.7,1.1,3.6,1.9,5.6,2.4c1.7,0.5,3.3,1.1,4.9,1.8
	c0.9,0.4,1.6,1,2.2,1.8c1.7,2.1,1.7,5.2,0,7.3c-1.2,1.5-2.9,2.6-4.8,2.8c-0.6,0.1-1.3,0.2-1.9,0.2c-0.8,0-1.5-0.1-2.3-0.2
	c-0.7-0.1-1.4-0.2-2.2-0.1c-0.2,0-0.5,0.2-0.6,0.4c-0.1,0.4-0.2,0.7-0.1,1.1l-0.6,0.1l-1.5-7.8l0.6-0.1c0.4,1.2,1.1,2.4,1.9,3.4
	c0.7,0.8,1.6,1.3,2.6,1.6c1.1,0.4,2.3,0.4,3.5,0.2c1.2-0.2,2.3-0.8,3.1-1.7c0.6-0.8,0.9-1.8,0.7-2.9c-0.1-0.6-0.4-1.1-0.8-1.6
	c-0.5-0.6-1.1-1-1.8-1.3c-1.3-0.6-2.6-1-4-1.4c-1.6-0.5-3.1-1.1-4.6-1.8c-0.9-0.4-1.6-1-2.3-1.8c-0.6-0.7-1-1.6-1.1-2.5
	c-0.3-1.6,0.1-3.3,1.1-4.6c1.1-1.4,2.7-2.4,4.4-2.7c1.3-0.2,2.7-0.2,4,0.1c0.5,0.1,0.9,0.2,1.4,0.2c0.3,0,0.5-0.2,0.7-0.4
	c0.2-0.3,0.3-0.7,0.2-1.1L3482.4,47.9"/>
<path class="st10" d="M3495.7,48l0.8,9.1l5.1-0.5c0.9,0,1.8-0.3,2.6-0.8c0.6-0.8,0.9-1.8,0.7-2.8l0.6,0l0.7,7.9l-0.6,0.1
	c-0.1-0.7-0.4-1.4-0.7-2.1c-0.3-0.4-0.6-0.7-1.1-0.8c-0.7-0.2-1.4-0.3-2.2-0.2l-5.1,0.5l0.7,7.6c0,0.6,0.1,1.2,0.3,1.8
	c0.1,0.2,0.3,0.4,0.5,0.5c0.4,0.1,0.9,0.2,1.3,0.1l3.9-0.3c1-0.1,1.9-0.2,2.8-0.5c0.6-0.3,1.2-0.7,1.6-1.2c0.8-1,1.4-2.1,1.9-3.3
	l0.7-0.1l-1.5,5.9l-17.7,1.6l-0.1-0.6l0.8-0.1c0.5,0,1-0.2,1.5-0.5c0.3-0.2,0.6-0.5,0.7-0.9c0.1-0.7,0.1-1.5,0-2.2l-1.4-15
	c0-0.9-0.2-1.8-0.7-2.6c-0.6-0.5-1.3-0.6-2.1-0.5l-0.8,0.1l-0.1-0.6l17.7-1.6l0.7,5l-0.7,0.1c-0.2-0.9-0.5-1.7-1-2.4
	c-0.4-0.4-0.8-0.8-1.4-0.9c-0.8-0.1-1.6-0.1-2.4,0L3495.7,48"/>
<path class="st10" d="M3535.3,68.8l-6.2-0.1l-7.6-11c-0.6,0-1,0-1.4,0h-0.4c-0.2,0-0.4,0-0.5,0l-0.1,6.8c-0.1,0.9,0,1.8,0.4,2.7
	c0.5,0.5,1.2,0.8,1.9,0.8h0.9v0.6l-9.8-0.2v-0.6h0.9c0.8,0.1,1.6-0.3,2.1-0.9c0.3-0.8,0.5-1.6,0.4-2.5l0.3-15c0.1-0.9,0-1.9-0.4-2.7
	c-0.5-0.5-1.2-0.8-1.9-0.8h-0.9v-0.6l8.4,0.2c1.8,0,3.6,0.2,5.4,0.6c1.1,0.4,2.2,1.1,2.9,2c0.8,1,1.2,2.2,1.2,3.4
	c0,1.4-0.5,2.7-1.5,3.7c-1.2,1.2-2.7,1.9-4.4,2.1l4.7,6.7c0.7,1.2,1.7,2.2,2.8,3.1c0.9,0.6,1.9,0.9,3,1L3535.3,68.8 M3519.1,56.6
	h0.6h0.4c1.8,0.2,3.5-0.3,4.9-1.3c1.1-0.9,1.7-2.2,1.7-3.6c0.1-1.3-0.4-2.6-1.3-3.5c-0.9-0.9-2.2-1.4-3.5-1.4
	c-0.9,0-1.8,0.1-2.6,0.3L3519.1,56.6z"/>
<path class="st10" d="M3559.7,48.7l-0.1,0.6c-0.7,0-1.3,0.2-1.9,0.5c-0.8,0.6-1.5,1.4-1.9,2.3l-10.4,18.5l-0.7-0.1l-6.1-20.8
	c-0.2-0.7-0.4-1.4-0.7-2c-0.2-0.4-0.5-0.7-0.9-1c-0.5-0.3-1-0.5-1.6-0.6l0.1-0.6l9.4,1.2l-0.1,0.6c-0.7-0.1-1.5,0-2.1,0.3
	c-0.3,0.2-0.6,0.6-0.6,1c0,0.9,0.1,1.9,0.5,2.7l4.1,14.1l7-12.6c0.5-0.8,0.9-1.7,1.1-2.6c0-0.4-0.1-0.7-0.4-1
	c-0.4-0.4-1-0.7-1.6-0.8c-0.1,0-0.2,0-0.3-0.1l0.1-0.6L3559.7,48.7"/>
<path class="st10" d="M3568.1,73.7l-0.1,0.6l-9.6-2.1l0.1-0.6l0.8,0.2c0.7,0.2,1.6,0.1,2.2-0.4c0.5-0.7,0.8-1.6,0.9-2.4l3.1-14.6
	c0.2-0.7,0.3-1.5,0.3-2.3c-0.1-0.3-0.3-0.6-0.5-0.8c-0.4-0.4-0.9-0.6-1.4-0.7l-0.8-0.2l0.1-0.6l9.6,2.1l-0.1,0.6l-0.8-0.2
	c-0.7-0.2-1.6-0.1-2.2,0.4c-0.5,0.7-0.8,1.6-0.9,2.4l-3.1,14.6c-0.2,0.7-0.3,1.5-0.3,2.3c0.1,0.3,0.3,0.7,0.5,0.9
	c0.4,0.4,0.9,0.6,1.4,0.7L3568.1,73.7"/>
<path class="st10" d="M3596.1,57.8l-1.8,7.7l-0.5-0.2c0.1-2-0.4-4-1.4-5.7c-1-1.4-2.4-2.4-4-2.8c-1.4-0.4-2.9-0.5-4.3-0.1
	c-1.5,0.5-2.9,1.4-3.9,2.7c-1.3,1.7-2.3,3.7-2.8,5.8c-0.6,1.8-0.8,3.6-0.6,5.5c0.2,1.6,0.8,3.1,1.9,4.3c1.1,1.2,2.5,2.1,4,2.5
	c1.3,0.4,2.7,0.5,4.1,0.2c1.7-0.5,3.3-1.4,4.7-2.6l0.4,0.5c-1.4,1.5-3.2,2.6-5.2,3.2c-1.9,0.5-3.8,0.4-5.7-0.2
	c-3.4-0.9-6.1-3.4-7.2-6.7c-0.9-2.5-0.9-5.3-0.1-7.8c0.6-2.1,1.8-4.1,3.3-5.7c1.5-1.5,3.3-2.6,5.4-3.1c2-0.5,4.1-0.4,6.1,0.2
	c1.6,0.5,3.1,1.4,4.3,2.6c0.2,0.3,0.5,0.5,0.9,0.7c0.3,0.1,0.6,0.1,0.9-0.1c0.4-0.2,0.8-0.6,1-1L3596.1,57.8"/>
<path class="st10" d="M3606.8,63.9l-3.5,8.4l4.7,2c0.8,0.5,1.8,0.6,2.7,0.5c0.9-0.4,1.6-1.2,1.9-2.1l0.6,0.3l-3.1,7.3l-0.6-0.2
	c0.2-0.7,0.3-1.4,0.4-2.2c0-0.5-0.2-0.9-0.6-1.3c-0.5-0.5-1.2-0.9-1.8-1.1l-4.7-2l-3,7c-0.3,0.6-0.5,1.2-0.6,1.8
	c0,0.2,0.1,0.5,0.2,0.7c0.3,0.3,0.7,0.6,1.1,0.7l3.6,1.5c0.9,0.4,1.8,0.7,2.7,0.9c0.7,0.1,1.4-0.1,2-0.3c1.2-0.5,2.3-1.2,3.2-2.1
	l0.7,0.3l-4.1,4.5l-16.4-6.9l0.2-0.6l0.8,0.3c0.5,0.2,1,0.3,1.6,0.2c0.4,0,0.7-0.2,1-0.5c0.4-0.6,0.8-1.3,1-2l5.8-13.8
	c0.5-0.8,0.7-1.7,0.6-2.7c-0.3-0.7-0.9-1.2-1.6-1.4l-0.8-0.3l0.3-0.6l16.4,6.9l-1.7,4.8l-0.6-0.3c0.2-0.8,0.3-1.7,0.2-2.6
	c-0.1-0.6-0.4-1.1-0.8-1.5c-0.6-0.5-1.4-0.9-2.1-1.2L3606.8,63.9"/>
<path class="st10" d="M3636.7,76.3l-3.8,7l-0.6-0.3c0.5-1.2,0.8-2.4,0.8-3.7c0-1.1-0.4-2.1-1-3c-0.6-0.9-1.4-1.6-2.3-2.2
	c-0.9-0.5-2.1-0.7-3.1-0.4c-0.9,0.2-1.7,0.8-2.2,1.6c-0.3,0.6-0.4,1.3-0.3,2c0.6,1.9,1.6,3.8,2.8,5.4c1,1.4,1.9,2.9,2.6,4.4
	c0.4,0.9,0.6,1.8,0.6,2.8c0,0.9-0.2,1.8-0.7,2.6c-0.8,1.5-2.2,2.6-3.9,3c-1.9,0.5-3.9,0.2-5.5-0.8c-0.5-0.3-1.1-0.6-1.6-1
	c-0.3-0.2-0.8-0.8-1.6-1.6c-0.5-0.6-1-1-1.6-1.5c-0.2-0.1-0.5-0.2-0.7-0.1c-0.3,0.2-0.6,0.4-0.8,0.8l-0.6-0.3l3.8-7l0.6,0.3
	c-0.5,1.2-0.7,2.5-0.7,3.8c0.1,1,0.4,2,1,2.9c0.7,1,1.5,1.8,2.6,2.3c1,0.6,2.3,0.9,3.5,0.6c1-0.2,1.9-0.9,2.4-1.8
	c0.3-0.5,0.4-1.1,0.4-1.7c0-0.7-0.2-1.4-0.5-2.1c-0.7-1.3-1.4-2.5-2.2-3.6c-0.9-1.4-1.8-2.8-2.5-4.3c-0.4-0.9-0.6-1.8-0.6-2.8
	c0-0.9,0.2-1.8,0.7-2.6c0.8-1.5,2.1-2.5,3.7-2.9c1.7-0.4,3.6-0.2,5.1,0.7c1.2,0.7,2.2,1.6,3,2.6c0.3,0.4,0.6,0.7,1,1
	c0.2,0.1,0.5,0.2,0.8,0.1c0.4-0.1,0.7-0.4,0.9-0.7l0.6,0.3"/>
<path class="st10" d="M3671.4,102.1l0.4-0.5l6.3,5.1l-0.4,0.5l-0.7-0.5c-0.6-0.5-1.5-0.7-2.3-0.4c-0.7,0.4-1.4,1-1.8,1.7l-5.9,7.3
	c-1.1,1.5-2.4,2.7-3.9,3.8c-1.3,0.7-2.7,1-4.2,0.8c-1.9-0.3-3.7-1.1-5.1-2.4c-1.6-1.2-2.9-2.8-3.6-4.6c-0.5-1.5-0.4-3,0.1-4.5
	c0.8-1.7,1.9-3.3,3.2-4.8l5.7-7c0.7-0.7,1.1-1.6,1.3-2.5c-0.1-0.7-0.4-1.3-1-1.7l-0.7-0.5l0.4-0.5l7.6,6.2l-0.4,0.5l-0.7-0.5
	c-0.5-0.5-1.4-0.8-2.1-0.6c-0.8,0.4-1.4,1-1.9,1.7l-6.4,7.8c-0.6,0.8-1.2,1.7-1.8,2.5c-0.5,0.8-0.9,1.7-1,2.7
	c-0.1,0.8,0.1,1.6,0.4,2.4c0.4,0.9,1.1,1.7,1.9,2.4c1.1,0.9,2.4,1.5,3.8,1.8c1.2,0.3,2.4,0.1,3.5-0.4c1.5-1,2.8-2.2,3.8-3.6l5.9-7.3
	c0.7-0.6,1.1-1.5,1.3-2.4c-0.1-0.7-0.5-1.4-1.1-1.8L3671.4,102.1"/>
<path class="st10" d="M3692,119.7l-5.6,5.7l-0.5-0.5c0.8-1,1.4-2.1,1.8-3.4c0.3-1,0.2-2.1-0.1-3.1c-0.3-1-0.8-2-1.6-2.7
	c-0.7-0.8-1.8-1.3-2.9-1.3c-0.9-0.1-1.9,0.3-2.6,0.9c-0.5,0.5-0.8,1.2-0.8,1.9c0.1,2,0.5,4.1,1.2,6c0.5,1.6,1,3.3,1.3,5
	c0.1,1,0,1.9-0.3,2.8c-0.3,0.9-0.8,1.7-1.4,2.3c-1.2,1.2-2.9,1.9-4.6,1.8c-1.9-0.1-3.7-0.9-5-2.4c-0.5-0.4-0.9-0.9-1.2-1.4
	c-0.4-0.6-0.8-1.3-1.1-2c-0.3-0.7-0.7-1.3-1.1-1.9c-0.2-0.2-0.4-0.3-0.7-0.3c-0.4,0.1-0.7,0.2-1,0.5l-0.4-0.5l5.6-5.6l0.4,0.4
	c-0.8,1-1.4,2.2-1.8,3.5c-0.2,1-0.2,2.1,0.2,3.1c0.3,1.1,1,2.1,1.8,2.9c0.8,0.9,2,1.5,3.2,1.6c1,0.1,2-0.3,2.8-1
	c0.4-0.4,0.7-1,0.9-1.6c0.2-0.7,0.2-1.4,0.1-2.2c-0.3-1.4-0.6-2.8-1.1-4.1c-0.5-1.6-0.9-3.2-1.1-4.8c-0.1-1-0.1-1.9,0.2-2.9
	c0.3-0.9,0.7-1.7,1.4-2.3c1.2-1.2,2.7-1.8,4.4-1.7c1.8,0.1,3.5,0.9,4.7,2.2c0.9,1,1.7,2.1,2.1,3.4c0.1,0.5,0.4,0.9,0.7,1.3
	c0.2,0.2,0.4,0.3,0.7,0.3c0.4,0,0.7-0.2,1.1-0.4L3692,119.7"/>
<path class="st10" d="M3694,146.3l-5.7-7l-3.8,1.1c-0.7,0.2-1.3,0.4-1.9,0.8c-0.3,0.2-0.4,0.6-0.4,1c0.1,0.7,0.5,1.4,1,2l-0.5,0.4
	l-4.6-5.6l0.5-0.4c0.5,0.5,1.1,0.8,1.7,1c1.3,0,2.6-0.2,3.8-0.6l19.9-5.7l0.3,0.4l-9.7,18.4c-0.6,1-1,2.1-1.2,3.3
	c0,0.8,0.3,1.6,0.8,2.2l-0.5,0.4l-5.8-7l0.5-0.4c0.4,0.5,0.9,0.9,1.5,1.2c0.4,0.1,0.7,0,1-0.2c0.6-0.6,1.1-1.3,1.4-2L3694,146.3
	 M3694.6,145.1l4.7-8.9l-9.8,2.8L3694.6,145.1z"/>
<path class="st10" d="M3637.3,94.1c0-1.6,0.6-3.1,1.7-4.2c2.3-2.3,6-2.3,8.3,0c2.3,2.3,2.4,6,0.1,8.3c-2.3,2.3-6,2.4-8.3,0.1
	C3638,97.3,3637.4,95.7,3637.3,94.1"/>
<path class="st10" d="M3730.1,243.7c0,0-16.3,15-28.2,23c-12.5,8.4-68.9,40.2-81.4,51.1s-12,20.3-12,20.3l-2.1,27.1
	c0,0-7.8,8.4-8.9,11.5s5.2,3.6,9.9,6.3s-0.9,5,1,7.3c3.7,4.4,6.5,0.8,4,8.4c-0.4,1.2,3.1,4.7,2.7,6.6c-0.6,3.1-2.2,5.2,0.5,8
	c3.1,3.1,13.2,8.4,36.3,3.4c25-5.5,41.5,15.3,54,18.8c4.3,1.2,18.4,5.9,40.7-12.5c9.7-8-5.9-0.8-28.2-10.7
	c-23.8-10.6-31-11.3-46.9-8.1c-13.7,2.7-23.9,5.1-29.2,3.4c-4.6-1.5-0.8-8.7-4.2-9.9c-6.9-2.5-2.2-6-6.3-8.3s-1.7-3.4-1.8-8.2
	c-0.1-3.4-3.6-2.5-8.6-5.5c-3.9-2.4,5.3-6.7,6.6-10.2c1.6-4.2-0.4-10.2,0.6-18.9c1.8-15.3,23.4-26.1,34.9-32.9
	c12.5-7.3,48.4-30.5,56.9-36.5c19.8-14.1,9.4-33.4,9.4-33.4"/>
<g>
	<path class="st4" d="M510.1,715.1h23v90.6c0,12.3-0.9,21.5-2.7,27.8c-1.8,6.3-4,11.5-6.6,15.6c-2.6,4.2-5.8,7.9-9.7,11.1
		c-12.7,10.9-29.2,16.3-49.6,16.3c-20.8,0-37.5-5.4-50.1-16.2c-3.8-3.4-7-7.1-9.7-11.3c-2.6-4.2-4.8-9.2-6.5-15.3
		c-1.7-6-2.6-15.5-2.6-28.3v-90.4h23v90.6c0,15,1.7,25.5,5.1,31.3c3.4,5.9,8.6,10.6,15.7,14.1c7,3.5,15.3,5.3,24.8,5.3
		c13.6,0,24.6-3.5,33.2-10.6c4.5-3.8,7.7-8.3,9.7-13.5c2-5.2,3-14.1,3-26.6V715.1z"/>
	<path class="st4" d="M566.8,849.3c3.9,0,7.2,1.3,9.9,4c2.7,2.7,4.1,5.9,4.1,9.8c0,3.8-1.4,7-4.1,9.6c-2.7,2.6-6,3.9-10,3.9
		c-3.9,0-7.2-1.3-9.8-3.9c-2.7-2.6-4-5.8-4-9.6c0-3.9,1.3-7.2,4-9.8C559.6,850.6,562.9,849.3,566.8,849.3z"/>
	<path class="st4" d="M649.7,807.9l-17.4-10.6c-10.9-6.7-18.7-13.2-23.3-19.6c-4.6-6.4-6.9-13.8-6.9-22.2c0-12.6,4.4-22.8,13.1-30.6
		c8.7-7.8,20.1-11.8,34-11.8c13.3,0,25.6,3.7,36.7,11.2v25.9c-11.5-11.1-23.9-16.6-37.2-16.6c-7.5,0-13.6,1.7-18.4,5.2
		s-7.2,7.9-7.2,13.3c0,4.8,1.8,9.3,5.3,13.4c3.5,4.2,9.2,8.6,17.1,13.2l17.5,10.3c19.5,11.6,29.2,26.4,29.2,44.4
		c0,12.8-4.3,23.2-12.9,31.2c-8.6,8-19.7,12-33.4,12c-15.8,0-30.1-4.8-43.1-14.5v-29c12.3,15.6,26.6,23.5,42.9,23.5
		c7.2,0,13.1-2,17.9-6c4.8-4,7.1-9,7.1-15C670.8,825.8,663.8,816.6,649.7,807.9z"/>
	<path class="st4" d="M725.3,849.3c3.9,0,7.2,1.3,9.9,4c2.7,2.7,4.1,5.9,4.1,9.8c0,3.8-1.4,7-4.1,9.6c-2.7,2.6-6,3.9-10,3.9
		c-3.9,0-7.2-1.3-9.8-3.9c-2.7-2.6-4-5.8-4-9.6c0-3.9,1.3-7.2,4-9.8C718.1,850.6,721.4,849.3,725.3,849.3z"/>
	<path class="st4" d="M809.1,874.8V714.9h50.6c15.2,0,27.4,4.1,36.5,12.3c9.1,8.2,13.6,19.3,13.6,33.2c0,9.3-2.3,17.5-7,24.7
		c-4.6,7.2-11,12.4-19.1,15.6c-8.1,3.2-19.7,4.9-34.8,4.9h-16.9v69.3H809.1z M855.7,735.2h-23.7v50h25c9.3,0,16.5-2.2,21.5-6.6
		c5-4.4,7.5-10.6,7.5-18.8C886.1,743.4,876,735.2,855.7,735.2z"/>
	<path class="st4" d="M949.1,769.6v24.1l1.1-1.8c10.1-16.2,20.1-24.3,30.2-24.3c7.8,0,16,4,24.6,11.9l-11,18.3
		c-7.2-6.9-13.9-10.3-20.1-10.3c-6.7,0-12.5,3.2-17.4,9.6s-7.4,14-7.4,22.7v55h-20.9V769.6H949.1z"/>
	<path class="st4" d="M1104.5,824h-74c0.5,10.1,3.9,18.1,10.1,24c6.2,5.9,14.2,8.9,24.1,8.9c13.7,0,26.4-4.3,38-12.8v20.3
		c-6.4,4.3-12.7,7.3-19,9.1c-6.3,1.8-13.7,2.7-22.1,2.7c-11.6,0-21-2.4-28.1-7.2c-7.2-4.8-12.9-11.3-17.2-19.4
		c-4.3-8.1-6.5-17.5-6.5-28.2c0-16,4.5-29,13.6-39c9.1-10,20.8-15,35.3-15c13.9,0,25.1,4.9,33.4,14.6c8.3,9.8,12.5,22.8,12.5,39.2
		V824z M1031,811.6h52.9c-0.5-8.3-3-14.7-7.4-19.2c-4.4-4.5-10.4-6.7-17.8-6.7c-7.5,0-13.6,2.2-18.3,6.7
		C1035.5,796.9,1032.4,803.3,1031,811.6z"/>
	<path class="st4" d="M1121.9,867.2v-22.4c5.9,4.1,11.9,7.5,18,10c6.1,2.6,11.3,3.8,15.5,3.8c4.3,0,8.1-1.1,11.2-3.2
		c3.1-2.1,4.7-4.7,4.7-7.7c0-3-1-5.6-3-7.6c-2-2-6.4-4.9-13.1-8.7c-13.4-7.5-22.2-13.8-26.3-19.1c-4.2-5.3-6.2-11.1-6.2-17.3
		c0-8.1,3.1-14.7,9.4-19.8c6.3-5.1,14.4-7.7,24.3-7.7c10.3,0,20.8,2.9,31.7,8.7v20.6c-12.3-7.5-22.4-11.2-30.3-11.2
		c-4,0-7.3,0.9-9.8,2.6c-2.5,1.7-3.7,4-3.7,6.8c0,2.4,1.1,4.8,3.4,7c2.2,2.2,6.2,4.9,11.8,8l7.4,4.2c17.5,9.9,26.3,20.9,26.3,32.9
		c0,8.6-3.4,15.7-10.1,21.2c-6.7,5.5-15.4,8.3-26,8.3c-6.3,0-11.8-0.7-16.7-2C1135.4,873.3,1129.2,870.8,1121.9,867.2z"/>
	<path class="st4" d="M1227.8,725.4c3.4,0,6.4,1.2,8.8,3.5c2.4,2.4,3.7,5.3,3.7,8.7c0,3.4-1.2,6.3-3.7,8.7c-2.4,2.4-5.4,3.7-8.8,3.7
		c-3.2,0-6-1.2-8.5-3.7c-2.4-2.5-3.7-5.4-3.7-8.6c0-3.2,1.2-6,3.7-8.5C1221.8,726.6,1224.6,725.4,1227.8,725.4z M1217.5,769.6h20.8
		v105.2h-20.8V769.6z"/>
	<path class="st4" d="M1338.6,715.1h20.9v159.7H1315c-15.5,0-27.9-4.9-37.2-14.7s-13.9-23-13.9-39.6c0-15.5,4.9-28.2,14.6-38.2
		c9.7-10,22.1-15,37.2-15c7,0,14.6,1.5,22.9,4.5V715.1z M1338.6,857v-66.6c-6.5-3.3-13-4.9-19.7-4.9c-10.4,0-18.6,3.4-24.7,10.2
		c-6.1,6.8-9.2,15.9-9.2,27.4c0,10.8,2.7,19.2,8,25c3.2,3.5,6.6,5.9,10.2,7.1c3.6,1.2,10,1.8,19.3,1.8H1338.6z"/>
	<path class="st4" d="M1477.4,824h-74c0.5,10.1,3.9,18.1,10.1,24c6.2,5.9,14.2,8.9,24.1,8.9c13.7,0,26.4-4.3,38-12.8v20.3
		c-6.4,4.3-12.7,7.3-19,9.1c-6.3,1.8-13.7,2.7-22.1,2.7c-11.6,0-21-2.4-28.1-7.2c-7.2-4.8-12.9-11.3-17.2-19.4
		c-4.3-8.1-6.5-17.5-6.5-28.2c0-16,4.5-29,13.6-39c9.1-10,20.8-15,35.3-15c13.9,0,25.1,4.9,33.4,14.6c8.3,9.8,12.5,22.8,12.5,39.2
		V824z M1403.9,811.6h52.9c-0.5-8.3-3-14.7-7.4-19.2c-4.4-4.5-10.4-6.7-17.8-6.7c-7.5,0-13.6,2.2-18.3,6.7
		C1408.4,796.9,1405.3,803.3,1403.9,811.6z"/>
	<path class="st4" d="M1520.7,769.6V783c9.3-10.3,19.9-15.4,31.7-15.4c6.6,0,12.6,1.7,18.3,5.1c5.6,3.4,9.9,8,12.9,13.9
		c2.9,5.9,4.4,15.3,4.4,28.1v60.1h-20.8v-59.9c0-10.7-1.6-18.4-4.9-23c-3.3-4.6-8.8-6.9-16.5-6.9c-9.8,0-18.2,4.9-25,14.7v75.1
		h-21.3V769.6H1520.7z"/>
	<path class="st4" d="M1602.2,786.3l39.1-38.4v21.7h33.3v18.7h-33.3v51.5c0,12,5,18,15,18c7.5,0,15.4-2.5,23.7-7.4v19.4
		c-8,4.5-16.7,6.7-26.2,6.7c-9.5,0-17.5-2.8-23.8-8.3c-2-1.7-3.6-3.6-4.9-5.7c-1.3-2.1-2.4-4.8-3.3-8.2c-0.9-3.4-1.3-9.8-1.3-19.4
		v-46.6h-18.3V786.3z"/>
	<path class="st4" d="M1691.6,771.1v-4.5c3.4-3.4,5.8-6.7,7.2-9.9c1.4-3.3,2.2-7.8,2.4-13.5c-8.1-2.6-12.1-7.6-12.1-15
		c0-4.2,1.4-7.8,4.2-10.7c2.8-3,6.1-4.5,9.9-4.5c4.6,0,8.5,2.1,11.4,6.2c3,4.1,4.5,9.4,4.5,15.8c0,8.5-2.4,16-7.3,22.5
		C1706.8,763.9,1700.1,768.4,1691.6,771.1z"/>
	<path class="st4" d="M1722.3,867.2v-22.4c5.9,4.1,11.9,7.5,18,10c6.1,2.6,11.3,3.8,15.5,3.8c4.3,0,8.1-1.1,11.2-3.2
		c3.1-2.1,4.7-4.7,4.7-7.7c0-3-1-5.6-3-7.6c-2-2-6.4-4.9-13.1-8.7c-13.4-7.5-22.2-13.8-26.3-19.1c-4.2-5.3-6.2-11.1-6.2-17.3
		c0-8.1,3.1-14.7,9.4-19.8c6.3-5.1,14.4-7.7,24.3-7.7c10.3,0,20.8,2.9,31.7,8.7v20.6c-12.3-7.5-22.4-11.2-30.3-11.2
		c-4,0-7.3,0.9-9.8,2.6c-2.5,1.7-3.7,4-3.7,6.8c0,2.4,1.1,4.8,3.4,7c2.2,2.2,6.2,4.9,11.8,8l7.4,4.2c17.5,9.9,26.3,20.9,26.3,32.9
		c0,8.6-3.4,15.7-10.1,21.2c-6.7,5.5-15.4,8.3-26,8.3c-6.3,0-11.8-0.7-16.7-2C1735.9,873.3,1729.7,870.8,1722.3,867.2z"/>
	<path class="st4" d="M2012.5,715.1h21.4v159.7h-23V750.5l-49.1,61.7h-4.2l-49.7-61.7v124.3H1885V715.1h21.6l53.1,65.6L2012.5,715.1
		z"/>
	<path class="st4" d="M2131.5,811.6v44.7c0,3.6,1.2,5.4,3.7,5.4c2.5,0,6.4-1.9,11.8-5.6v12.7c-4.7,3-8.5,5.1-11.4,6.2
		c-2.9,1.1-5.8,1.7-9,1.7c-8.9,0-14.2-3.5-15.8-10.5c-8.8,6.9-18.3,10.3-28.2,10.3c-7.3,0-13.4-2.4-18.3-7.3
		c-4.9-4.8-7.3-10.9-7.3-18.2c0-6.6,2.4-12.6,7.1-17.8c4.8-5.2,11.5-9.4,20.3-12.4l26.6-9.1V806c0-12.6-6.3-19-19-19
		c-11.4,0-22.4,5.9-33.2,17.6v-22.7c8.1-9.5,19.7-14.3,34.9-14.3c11.4,0,20.5,3,27.3,8.9c2.3,1.9,4.3,4.4,6.2,7.6
		c1.8,3.2,3,6.3,3.5,9.5C2131.2,796.7,2131.5,802.7,2131.5,811.6z M2111,854v-31.2l-13.9,5.4c-7.1,2.8-12.1,5.7-15,8.5
		c-2.9,2.9-4.4,6.4-4.4,10.7c0,4.3,1.4,7.9,4.2,10.6c2.8,2.7,6.4,4.1,10.8,4.1C2099.2,862.1,2105.4,859.4,2111,854z"/>
	<path class="st4" d="M2165.8,715.1h20.8v159.7h-20.8V715.1z"/>
	<path class="st4" d="M2282.7,811.6v44.7c0,3.6,1.2,5.4,3.7,5.4c2.5,0,6.4-1.9,11.8-5.6v12.7c-4.7,3-8.5,5.1-11.4,6.2
		c-2.9,1.1-5.8,1.7-9,1.7c-8.9,0-14.2-3.5-15.8-10.5c-8.8,6.9-18.3,10.3-28.2,10.3c-7.3,0-13.4-2.4-18.3-7.3
		c-4.9-4.8-7.3-10.9-7.3-18.2c0-6.6,2.4-12.6,7.1-17.8c4.8-5.2,11.5-9.4,20.3-12.4l26.6-9.1V806c0-12.6-6.3-19-19-19
		c-11.4,0-22.4,5.9-33.2,17.6v-22.7c8.1-9.5,19.7-14.3,34.9-14.3c11.4,0,20.5,3,27.3,8.9c2.3,1.9,4.3,4.4,6.2,7.6
		c1.8,3.2,3,6.3,3.5,9.5C2282.4,796.7,2282.7,802.7,2282.7,811.6z M2262.2,854v-31.2l-13.9,5.4c-7.1,2.8-12.1,5.7-15,8.5
		s-4.4,6.4-4.4,10.7c0,4.3,1.4,7.9,4.2,10.6c2.8,2.7,6.4,4.1,10.8,4.1C2250.5,862.1,2256.6,859.4,2262.2,854z"/>
	<path class="st4" d="M2338.8,769.6v24.1l1.1-1.8c10.1-16.2,20.1-24.3,30.2-24.3c7.8,0,16,4,24.6,11.9l-11,18.3
		c-7.2-6.9-13.9-10.3-20.1-10.3c-6.7,0-12.5,3.2-17.4,9.6s-7.4,14-7.4,22.7v55h-20.9V769.6H2338.8z"/>
	<path class="st4" d="M2420,725.4c3.4,0,6.4,1.2,8.8,3.5c2.4,2.4,3.7,5.3,3.7,8.7c0,3.4-1.2,6.3-3.7,8.7c-2.4,2.4-5.4,3.7-8.8,3.7
		c-3.2,0-6-1.2-8.5-3.7c-2.4-2.5-3.7-5.4-3.7-8.6c0-3.2,1.2-6,3.7-8.5C2414,726.6,2416.8,725.4,2420,725.4z M2409.7,769.6h20.8
		v105.2h-20.8V769.6z"/>
	<path class="st4" d="M2526.6,811.6v44.7c0,3.6,1.2,5.4,3.7,5.4c2.5,0,6.4-1.9,11.8-5.6v12.7c-4.7,3-8.5,5.1-11.4,6.2
		c-2.9,1.1-5.8,1.7-9,1.7c-8.9,0-14.2-3.5-15.8-10.5c-8.8,6.9-18.3,10.3-28.2,10.3c-7.3,0-13.4-2.4-18.3-7.3
		c-4.9-4.8-7.3-10.9-7.3-18.2c0-6.6,2.4-12.6,7.1-17.8c4.8-5.2,11.5-9.4,20.3-12.4l26.6-9.1V806c0-12.6-6.3-19-19-19
		c-11.4,0-22.4,5.9-33.2,17.6v-22.7c8.1-9.5,19.7-14.3,34.9-14.3c11.4,0,20.5,3,27.3,8.9c2.3,1.9,4.3,4.4,6.2,7.6
		c1.8,3.2,3,6.3,3.5,9.5C2526.4,796.7,2526.6,802.7,2526.6,811.6z M2506.2,854v-31.2l-13.9,5.4c-7.1,2.8-12.1,5.7-15,8.5
		c-2.9,2.9-4.4,6.4-4.4,10.7c0,4.3,1.4,7.9,4.2,10.6c2.8,2.7,6.4,4.1,10.8,4.1C2494.4,862.1,2500.5,859.4,2506.2,854z"/>
	<path class="st4" d="M2628.6,715.1h22.9v159.7h-22.9V715.1z"/>
	<path class="st4" d="M2704.9,769.6V783c9.3-10.3,19.9-15.4,31.7-15.4c6.6,0,12.6,1.7,18.3,5.1c5.6,3.4,9.9,8,12.9,13.9
		c2.9,5.9,4.4,15.3,4.4,28.1v60.1h-20.8v-59.9c0-10.7-1.6-18.4-4.9-23c-3.3-4.6-8.8-6.9-16.5-6.9c-9.8,0-18.2,4.9-25,14.7v75.1
		h-21.3V769.6H2704.9z"/>
	<path class="st4" d="M2811.8,725.4c3.4,0,6.4,1.2,8.8,3.5c2.4,2.4,3.7,5.3,3.7,8.7c0,3.4-1.2,6.3-3.7,8.7c-2.4,2.4-5.4,3.7-8.8,3.7
		c-3.2,0-6-1.2-8.5-3.7c-2.4-2.5-3.7-5.4-3.7-8.6c0-3.2,1.2-6,3.7-8.5C2805.8,726.6,2808.6,725.4,2811.8,725.4z M2801.6,769.6h20.8
		v105.2h-20.8V769.6z"/>
	<path class="st4" d="M2837.7,786.3l39.1-38.4v21.7h33.3v18.7h-33.3v51.5c0,12,5,18,15,18c7.5,0,15.4-2.5,23.7-7.4v19.4
		c-8,4.5-16.7,6.7-26.2,6.7c-9.5,0-17.5-2.8-23.8-8.3c-2-1.7-3.6-3.6-4.9-5.7c-1.3-2.1-2.4-4.8-3.3-8.2c-0.9-3.4-1.3-9.8-1.3-19.4
		v-46.6h-18.3V786.3z"/>
	<path class="st4" d="M2941.1,725.4c3.4,0,6.4,1.2,8.8,3.5c2.4,2.4,3.7,5.3,3.7,8.7c0,3.4-1.2,6.3-3.7,8.7c-2.4,2.4-5.4,3.7-8.8,3.7
		c-3.2,0-6-1.2-8.5-3.7c-2.4-2.5-3.7-5.4-3.7-8.6c0-3.2,1.2-6,3.7-8.5C2935.1,726.6,2937.9,725.4,2941.1,725.4z M2930.8,769.6h20.8
		v105.2h-20.8V769.6z"/>
	<path class="st4" d="M3047.8,811.6v44.7c0,3.6,1.2,5.4,3.7,5.4c2.5,0,6.4-1.9,11.8-5.6v12.7c-4.7,3-8.5,5.1-11.4,6.2
		c-2.9,1.1-5.8,1.7-9,1.7c-8.9,0-14.2-3.5-15.8-10.5c-8.8,6.9-18.3,10.3-28.2,10.3c-7.3,0-13.4-2.4-18.3-7.3
		c-4.9-4.8-7.3-10.9-7.3-18.2c0-6.6,2.4-12.6,7.1-17.8c4.8-5.2,11.5-9.4,20.3-12.4l26.6-9.1V806c0-12.6-6.3-19-19-19
		c-11.4,0-22.4,5.9-33.2,17.6v-22.7c8.1-9.5,19.7-14.3,34.9-14.3c11.4,0,20.5,3,27.3,8.9c2.3,1.9,4.3,4.4,6.2,7.6
		c1.8,3.2,3,6.3,3.5,9.5C3047.5,796.7,3047.8,802.7,3047.8,811.6z M3027.3,854v-31.2l-13.9,5.4c-7.1,2.8-12.1,5.7-15,8.5
		c-2.9,2.9-4.4,6.4-4.4,10.7c0,4.3,1.4,7.9,4.2,10.6c2.8,2.7,6.4,4.1,10.8,4.1C3015.6,862.1,3021.7,859.4,3027.3,854z"/>
	<path class="st4" d="M3066.9,786.3l39.1-38.4v21.7h33.3v18.7H3106v51.5c0,12,5,18,15,18c7.5,0,15.4-2.5,23.7-7.4v19.4
		c-8,4.5-16.7,6.7-26.2,6.7c-9.5,0-17.5-2.8-23.8-8.3c-2-1.7-3.6-3.6-4.9-5.7c-1.3-2.1-2.4-4.8-3.3-8.2c-0.9-3.4-1.3-9.8-1.3-19.4
		v-46.6h-18.3V786.3z"/>
	<path class="st4" d="M3170.3,725.4c3.4,0,6.4,1.2,8.8,3.5c2.4,2.4,3.7,5.3,3.7,8.7c0,3.4-1.2,6.3-3.7,8.7c-2.4,2.4-5.4,3.7-8.8,3.7
		c-3.2,0-6-1.2-8.5-3.7c-2.4-2.5-3.7-5.4-3.7-8.6c0-3.2,1.2-6,3.7-8.5C3164.3,726.6,3167.1,725.4,3170.3,725.4z M3160,769.6h20.8
		v105.2H3160V769.6z"/>
	<path class="st4" d="M3275.3,769.6h22.6l-46.5,107h-7l-47.6-107h22.8l28.4,64.7L3275.3,769.6z"/>
	<path class="st4" d="M3398.4,824h-74c0.5,10.1,3.9,18.1,10.1,24c6.2,5.9,14.2,8.9,24.1,8.9c13.7,0,26.4-4.3,38-12.8v20.3
		c-6.4,4.3-12.7,7.3-19,9.1c-6.3,1.8-13.7,2.7-22.1,2.7c-11.6,0-21-2.4-28.1-7.2c-7.2-4.8-12.9-11.3-17.2-19.4
		c-4.3-8.1-6.5-17.5-6.5-28.2c0-16,4.5-29,13.6-39c9.1-10,20.8-15,35.3-15c13.9,0,25.1,4.9,33.4,14.6c8.3,9.8,12.5,22.8,12.5,39.2
		V824z M3324.9,811.6h52.9c-0.5-8.3-3-14.7-7.4-19.2c-4.4-4.5-10.4-6.7-17.8-6.7c-7.5,0-13.6,2.2-18.3,6.7
		C3329.4,796.9,3326.3,803.3,3324.9,811.6z"/>
</g>
<g>
	<path class="st1" d="M594.2,422.6h-27.6V438h23.7v6.4h-23.7v26.3h-7.3v-54.5h34.8V422.6z"/>
	<path class="st1" d="M647.6,470.7h-9.4L619.9,449h-10.2v21.7h-7.3v-54.5h15.3c3.3,0,6,0.2,8.2,0.6s4.2,1.2,5.9,2.3
		c2,1.2,3.5,2.8,4.6,4.7c1.1,1.9,1.7,4.3,1.7,7.2c0,3.9-1,7.2-3,9.9c-2,2.6-4.7,4.6-8.2,6L647.6,470.7z M630.6,431.5
		c0-1.6-0.3-2.9-0.8-4.2c-0.5-1.2-1.5-2.2-2.7-3.1c-1-0.7-2.3-1.2-3.7-1.5c-1.4-0.3-3.1-0.4-5.1-0.4h-8.5V443h7.3
		c2.3,0,4.3-0.2,6-0.6c1.7-0.4,3.2-1.2,4.4-2.3c1.1-1,1.9-2.2,2.4-3.5S630.6,433.5,630.6,431.5z"/>
	<path class="st1" d="M695.2,422.4c2.2,2.4,3.9,5.4,5.1,9c1.2,3.5,1.8,7.6,1.8,12c0,4.5-0.6,8.5-1.8,12.1c-1.2,3.6-2.9,6.5-5.1,8.9
		c-2.2,2.5-4.9,4.3-8,5.6c-3.1,1.2-6.6,1.9-10.5,1.9c-3.8,0-7.3-0.6-10.5-1.9c-3.1-1.3-5.8-3.1-8-5.5s-3.9-5.4-5.1-8.9
		s-1.8-7.5-1.8-12c0-4.4,0.6-8.4,1.8-12c1.2-3.5,2.9-6.5,5.1-9.1c2.1-2.4,4.8-4.2,8-5.5c3.2-1.3,6.7-1.9,10.4-1.9
		c3.9,0,7.4,0.6,10.5,1.9C690.4,418.2,693.1,420,695.2,422.4z M694.6,443.4c0-7.1-1.6-12.5-4.8-16.4c-3.2-3.8-7.5-5.8-13-5.8
		c-5.5,0-9.9,1.9-13.1,5.8c-3.2,3.8-4.7,9.3-4.7,16.4c0,7.2,1.6,12.6,4.8,16.4s7.5,5.7,13,5.7s9.7-1.9,12.9-5.7
		C693,456.1,694.6,450.6,694.6,443.4z"/>
	<path class="st1" d="M762.2,470.7h-7.3v-47l-15.2,32h-4.3l-15.1-32v47h-6.8v-54.5h9.9l14.5,30.4l14.1-30.4h10.1V470.7z"/>
	<path class="st1" d="M842.1,422.6h-19.5v48.1h-7.3v-48.1h-19.5v-6.4h46.2V422.6z"/>
	<path class="st1" d="M891.1,470.7h-7.3V444h-27.2v26.7h-7.3v-54.5h7.3v21.4h27.2v-21.4h7.3V470.7z"/>
	<path class="st1" d="M941.7,470.7h-35.9v-54.5h35.9v6.4H913v14.9h28.7v6.4H913v20.3h28.7V470.7z"/>
	<path class="st1" d="M1022.6,470.7h-7.7l-5.3-15.2h-23.6l-5.3,15.2h-7.4l19.8-54.5h9.7L1022.6,470.7z M1007.3,449.3l-9.6-26.8
		l-9.6,26.8H1007.3z"/>
	<path class="st1" d="M1079.4,470.7h-7.3v-47l-15.2,32h-4.3l-15.1-32v47h-6.8v-54.5h9.9l14.5,30.4l14.1-30.4h10.1V470.7z"/>
	<path class="st1" d="M1130,470.7h-35.9v-54.5h35.9v6.4h-28.7v14.9h28.7v6.4h-28.7v20.3h28.7V470.7z"/>
	<path class="st1" d="M1186.6,470.7h-9.4l-18.2-21.7h-10.2v21.7h-7.3v-54.5h15.3c3.3,0,6,0.2,8.2,0.6s4.2,1.2,5.9,2.3
		c2,1.2,3.5,2.8,4.6,4.7c1.1,1.9,1.7,4.3,1.7,7.2c0,3.9-1,7.2-3,9.9c-2,2.6-4.7,4.6-8.2,6L1186.6,470.7z M1169.6,431.5
		c0-1.6-0.3-2.9-0.8-4.2c-0.5-1.2-1.5-2.2-2.7-3.1c-1-0.7-2.3-1.2-3.7-1.5c-1.4-0.3-3.1-0.4-5.1-0.4h-8.5V443h7.3
		c2.3,0,4.3-0.2,6-0.6c1.7-0.4,3.2-1.2,4.4-2.3c1.1-1,1.9-2.2,2.4-3.5S1169.6,433.5,1169.6,431.5z"/>
	<path class="st1" d="M1212.9,470.7h-21.5v-5.6h7.1v-43.4h-7.1v-5.6h21.5v5.6h-7.1v43.4h7.1V470.7z"/>
	<path class="st1" d="M1267.3,466.7c-1.3,0.6-2.6,1.1-3.6,1.6c-1.1,0.5-2.5,1-4.3,1.6c-1.5,0.5-3.1,0.9-4.9,1.2
		c-1.7,0.3-3.7,0.5-5.8,0.5c-4,0-7.6-0.6-10.8-1.7c-3.2-1.1-6-2.9-8.4-5.2c-2.3-2.3-4.2-5.3-5.5-8.8c-1.3-3.6-2-7.7-2-12.5
		c0-4.5,0.6-8.5,1.9-12c1.3-3.5,3.1-6.5,5.5-9c2.3-2.4,5.1-4.2,8.4-5.4c3.3-1.2,6.9-1.9,10.9-1.9c2.9,0,5.9,0.4,8.8,1.1
		c2.9,0.7,6.2,2,9.7,3.7v8.6h-0.5c-3-2.5-6-4.3-8.9-5.5c-3-1.1-6.1-1.7-9.5-1.7c-2.8,0-5.2,0.4-7.5,1.3c-2.2,0.9-4.2,2.3-5.9,4.2
		c-1.7,1.8-3,4.1-3.9,6.9s-1.4,6-1.4,9.7c0,3.8,0.5,7.1,1.6,9.9c1,2.8,2.4,5,4,6.7c1.7,1.8,3.7,3.1,6,4c2.3,0.9,4.7,1.3,7.2,1.3
		c3.5,0,6.8-0.6,9.8-1.8c3.1-1.2,5.9-3,8.6-5.4h0.5V466.7z"/>
	<path class="st1" d="M1320.6,470.7h-7.7l-5.3-15.2h-23.6l-5.3,15.2h-7.4l19.8-54.5h9.7L1320.6,470.7z M1305.2,449.3l-9.6-26.8
		l-9.6,26.8H1305.2z"/>
	<path class="st1" d="M1370.4,470.7h-9l-25.9-48.8v48.8h-6.8v-54.5h11.2l23.6,44.5v-44.5h6.8V470.7z"/>
	<path class="st1" d="M1447,432.6c0,2.4-0.4,4.7-1.3,6.7c-0.8,2.1-2,3.9-3.5,5.4c-1.9,1.9-4.1,3.3-6.7,4.2s-5.8,1.4-9.7,1.4h-7.3
		v20.3h-7.3v-54.5h14.8c3.3,0,6,0.3,8.3,0.8c2.3,0.5,4.3,1.4,6,2.6c2.1,1.4,3.7,3.1,4.8,5.2C1446.4,426.8,1447,429.5,1447,432.6z
		 M1439.4,432.8c0-1.9-0.3-3.5-1-4.9s-1.7-2.5-3-3.4c-1.2-0.8-2.5-1.3-4-1.6c-1.5-0.3-3.4-0.5-5.7-0.5h-7.2v21.8h6.1
		c2.9,0,5.3-0.3,7.1-0.8s3.3-1.4,4.5-2.5c1.1-1.2,2-2.4,2.4-3.7C1439.2,435.9,1439.4,434.4,1439.4,432.8z"/>
	<path class="st1" d="M1492.5,470.7h-35.9v-54.5h35.9v6.4h-28.7v14.9h28.7v6.4h-28.7v20.3h28.7V470.7z"/>
	<path class="st1" d="M1544.6,422.4c2.2,2.4,3.9,5.4,5.1,9c1.2,3.5,1.8,7.6,1.8,12c0,4.5-0.6,8.5-1.8,12.1c-1.2,3.6-2.9,6.5-5.1,8.9
		c-2.2,2.5-4.9,4.3-8,5.6c-3.1,1.2-6.6,1.9-10.5,1.9c-3.8,0-7.3-0.6-10.5-1.9c-3.1-1.3-5.8-3.1-8-5.5s-3.9-5.4-5.1-8.9
		s-1.8-7.5-1.8-12c0-4.4,0.6-8.4,1.8-12c1.2-3.5,2.9-6.5,5.1-9.1c2.1-2.4,4.8-4.2,8-5.5c3.2-1.3,6.7-1.9,10.4-1.9
		c3.9,0,7.4,0.6,10.5,1.9C1539.8,418.2,1542.4,420,1544.6,422.4z M1543.9,443.4c0-7.1-1.6-12.5-4.8-16.4c-3.2-3.8-7.5-5.8-13-5.8
		c-5.5,0-9.9,1.9-13.1,5.8c-3.2,3.8-4.7,9.3-4.7,16.4c0,7.2,1.6,12.6,4.8,16.4s7.5,5.7,13,5.7s9.7-1.9,12.9-5.7
		C1542.3,456.1,1543.9,450.6,1543.9,443.4z"/>
	<path class="st1" d="M1598.7,432.6c0,2.4-0.4,4.7-1.3,6.7c-0.8,2.1-2,3.9-3.5,5.4c-1.9,1.9-4.1,3.3-6.7,4.2s-5.8,1.4-9.7,1.4h-7.3
		v20.3h-7.3v-54.5h14.8c3.3,0,6,0.3,8.3,0.8c2.3,0.5,4.3,1.4,6,2.6c2.1,1.4,3.7,3.1,4.8,5.2C1598.1,426.8,1598.7,429.5,1598.7,432.6
		z M1591.1,432.8c0-1.9-0.3-3.5-1-4.9s-1.7-2.5-3-3.4c-1.2-0.8-2.5-1.3-4-1.6c-1.5-0.3-3.4-0.5-5.7-0.5h-7.2v21.8h6.1
		c2.9,0,5.3-0.3,7.1-0.8s3.3-1.4,4.5-2.5c1.1-1.2,2-2.4,2.4-3.7C1590.9,435.9,1591.1,434.4,1591.1,432.8z"/>
	<path class="st1" d="M1642.7,470.7h-34.5v-54.5h7.3v48.1h27.2V470.7z"/>
	<path class="st1" d="M1685.9,470.7H1650v-54.5h35.9v6.4h-28.7v14.9h28.7v6.4h-28.7v20.3h28.7V470.7z"/>
</g>
<g>
	<path class="st9" d="M2818.3,464.8h-3.1v7.7h-1.2v-7.7h-3.1v-1h7.4V464.8z"/>
	<path class="st9" d="M2827.2,472.5h-1.2V465l-2.4,5.1h-0.7l-2.4-5.1v7.5h-1.1v-8.7h1.6l2.3,4.9l2.3-4.9h1.6V472.5z"/>
</g>
</svg>
